<svg width="22" height="20" viewBox="0 0 22 20" fill="none" xmlns="http://www.w3.org/2000/svg">
<path d="M9.65792 11.7749C9.59989 11.55 9.48265 11.3447 9.31838 11.1805C9.15412 11.0162 8.94884 10.8989 8.7239 10.8409L4.73625 9.81264C4.66822 9.79333 4.60834 9.75236 4.56571 9.69593C4.52307 9.63951 4.5 9.57072 4.5 9.5C4.5 9.42928 4.52307 9.36049 4.56571 9.30407C4.60834 9.24764 4.66822 9.20667 4.73625 9.18736L8.7239 8.15843C8.94876 8.10046 9.15399 7.98331 9.31824 7.81917C9.4825 7.65502 9.59979 7.44988 9.65792 7.22506L10.6862 3.23741C10.7053 3.1691 10.7462 3.10893 10.8028 3.06607C10.8593 3.0232 10.9282 3 10.9992 3C11.0701 3 11.1391 3.0232 11.1956 3.06607C11.2521 3.10893 11.293 3.1691 11.3121 3.23741L12.3398 7.22506C12.3978 7.45 12.515 7.65528 12.6793 7.81954C12.8436 7.98381 13.0488 8.10105 13.2738 8.15908L17.2614 9.18671C17.33 9.20562 17.3905 9.24651 17.4336 9.3031C17.4767 9.3597 17.5 9.42887 17.5 9.5C17.5 9.57113 17.4767 9.6403 17.4336 9.69689C17.3905 9.75349 17.33 9.79438 17.2614 9.81329L13.2738 10.8409C13.0488 10.8989 12.8436 11.0162 12.6793 11.1805C12.515 11.3447 12.3978 11.55 12.3398 11.7749L11.3115 15.7626C11.2924 15.8309 11.2514 15.8911 11.1949 15.9339C11.1384 15.9768 11.0694 16 10.9985 16C10.9276 16 10.8586 15.9768 10.8021 15.9339C10.7456 15.8911 10.7047 15.8309 10.6855 15.7626L9.65792 11.7749Z" stroke="url(#paint0_linear_3020_31424)" stroke-width="1.33333" stroke-linecap="round" stroke-linejoin="round"/>
<defs>
<linearGradient id="paint0_linear_3020_31424" x1="22.9554" y1="6.0625" x2="12.1238" y2="21.9484" gradientUnits="userSpaceOnUse">
<stop stop-color="#231F20"/>
<stop offset="1" stop-color="#2DA9DF"/>
</linearGradient>
</defs>
</svg>
