<svg width="147" height="147" viewBox="0 0 147 147" fill="none" xmlns="http://www.w3.org/2000/svg">
<circle cx="73.0497" cy="73.0497" r="73.0497" fill="#EDF7FF"/>
<path d="M88.336 128.294C88.336 128.294 88.3359 139.421 88.3359 144.227L100.707 139.954L114.994 132.573L123.419 125.581V120.919L88.336 128.294Z" fill="#263238"/>
<path d="M99.378 132.831C99.3749 132.821 99.4475 132.776 99.5952 132.752C99.7407 132.729 99.9674 132.736 100.214 132.867C100.454 132.99 100.726 133.273 100.775 133.688C100.829 134.083 100.682 134.582 100.289 134.822C99.8868 135.051 99.4201 134.885 99.1769 134.579C99.051 134.425 98.9852 134.226 98.9862 134.04C98.9849 133.853 99.046 133.691 99.1192 133.564C99.2713 133.307 99.4869 133.189 99.6357 133.167C99.7872 133.143 99.8672 133.182 99.8648 133.191C99.8635 133.208 99.7818 133.197 99.6513 133.241C99.5224 133.281 99.3439 133.404 99.2251 133.635C99.1023 133.857 99.077 134.212 99.297 134.46C99.4984 134.705 99.8969 134.833 100.206 134.651C100.516 134.466 100.653 134.047 100.614 133.712C100.582 133.366 100.366 133.115 100.156 132.988C99.7154 132.728 99.3763 132.87 99.378 132.831Z" fill="#455A64"/>
<path d="M95.02 41.1453C93.8661 41.2253 92.7321 40.2303 92.5435 38.9723C92.3552 37.7143 93.139 36.3699 94.2551 36.0365C93.5786 35.19 93.4605 33.8575 93.9761 32.883C94.4913 31.9085 95.601 31.3653 96.6021 31.5979C96.6952 30.4887 97.3467 29.4565 98.2574 28.975C99.168 28.4935 100.306 28.5798 101.148 29.1945C102.311 28.2033 104.109 28.2639 105.214 29.3322C106.203 29.1875 107.245 29.8226 107.66 30.8228C108.075 31.8233 107.829 33.1078 107.083 33.8378" fill="#263238"/>
<path d="M94.6608 41.4919C95.3376 35.7867 99.874 31.6122 105.085 31.8976L105.603 31.9259C111.17 32.5915 113.768 38.1773 113.01 44.296L111.278 64.7549L111.185 65.748L98.1728 67.8905L98.4265 62.6653C98.4265 62.6653 93.1006 61.4508 93.301 55.5293C93.3972 52.6695 94.0312 46.7983 94.6608 41.4919Z" fill="#937263"/>
<path d="M98.3826 62.6538C98.3826 62.6538 101.799 63.069 105.516 60.7695C105.516 60.7695 103.671 64.938 98.3401 64.1116L98.3826 62.6538Z" fill="#5E483F"/>
<path d="M95.5509 46.1395C95.5165 46.5849 95.8303 46.9845 96.2514 47.0325C96.6718 47.0805 97.0412 46.7594 97.0756 46.314C97.1101 45.8686 96.7966 45.4686 96.3759 45.4203C95.9548 45.3723 95.5853 45.6941 95.5509 46.1395Z" fill="#263238"/>
<path d="M95.6842 44.4498C95.7742 44.5652 96.3758 44.1231 97.2008 44.1708C98.0251 44.2054 98.6091 44.7062 98.7036 44.5998C98.7498 44.5529 98.6621 44.3486 98.408 44.1224C98.158 43.8973 97.7248 43.6684 97.2109 43.6424C96.697 43.6175 96.2557 43.8024 95.9976 44.0022C95.7341 44.2035 95.6393 44.3981 95.6842 44.4498Z" fill="#263238"/>
<path d="M103.338 46.9579C103.303 47.4033 103.617 47.803 104.038 47.851C104.459 47.8993 104.828 47.5778 104.863 47.1321C104.897 46.6867 104.583 46.2867 104.163 46.2387C103.742 46.1903 103.372 46.5126 103.338 46.9579Z" fill="#263238"/>
<path d="M103.782 45.0638C103.872 45.1792 104.475 44.7375 105.299 44.7851C106.123 44.8197 106.708 45.3206 106.802 45.2142C106.848 45.1673 106.761 44.963 106.506 44.7371C106.256 44.512 105.823 44.2832 105.309 44.2571C104.795 44.2322 104.354 44.4171 104.096 44.617C103.833 44.8171 103.738 45.0117 103.782 45.0638Z" fill="#263238"/>
<path d="M100.485 51.6443C100.492 51.5926 99.9834 51.4669 99.1581 51.3043C98.9485 51.2689 98.7512 51.2116 98.7228 51.0512C98.681 50.8808 98.7802 50.6352 98.8946 50.3707C99.1179 49.8196 99.3514 49.2418 99.597 48.6364C100.576 46.1661 101.295 44.1304 101.204 44.0876C101.113 44.0452 100.247 46.0128 99.2691 48.4831C99.0329 49.0926 98.8072 49.6734 98.5922 50.2293C98.5008 50.489 98.35 50.7807 98.4418 51.1346C98.4907 51.3113 98.6395 51.4457 98.7728 51.4933C98.9057 51.5461 99.0241 51.555 99.128 51.5677C99.9614 51.663 100.48 51.6953 100.485 51.6443Z" fill="#263238"/>
<path d="M102.883 52.406C102.749 52.39 102.703 53.3771 101.905 54.0357C101.109 54.6969 100.16 54.5336 100.146 54.6712C100.131 54.7326 100.35 54.8748 100.752 54.909C101.147 54.9455 101.73 54.8372 102.218 54.4346C102.705 54.0301 102.932 53.4679 102.98 53.0649C103.033 52.6534 102.944 52.4037 102.883 52.406Z" fill="#263238"/>
<path d="M103.73 41.4879C103.8 41.7395 104.628 41.6677 105.59 41.8492C106.555 42.0096 107.321 42.3646 107.46 42.1499C107.522 42.0468 107.396 41.8068 107.091 41.5501C106.79 41.2941 106.301 41.0396 105.723 40.9365C105.146 40.8345 104.609 40.9071 104.25 41.0459C103.888 41.1843 103.7 41.3689 103.73 41.4879Z" fill="#263238"/>
<path d="M96.105 41.8349C96.2406 42.0492 96.8183 41.8661 97.5022 41.8933C98.1864 41.8944 98.7576 42.1013 98.9004 41.8925C98.9635 41.791 98.8818 41.5789 98.6379 41.3694C98.3976 41.161 97.988 40.9787 97.518 40.9686C97.048 40.9593 96.6327 41.1242 96.3854 41.3229C96.1347 41.5223 96.0456 41.7307 96.105 41.8349Z" fill="#263238"/>
<path d="M95.2989 38.8044C95.2989 38.8044 96.8813 35.1758 98.5406 34.3996C100.55 33.4601 101.287 35.8809 103.183 35.4073C105.078 34.9332 106.996 34.0313 108.835 35.7299C110.848 37.5888 109.813 38.759 109.824 41.3919C109.868 52.0664 111.495 55.1737 112.223 50.1866C112.302 49.6404 113.705 49.2791 114.014 46.9692C114.415 43.9739 114.685 40.3252 114.172 38.1559C113.74 36.3274 112.865 35.0326 111.257 33.5699C108.72 31.2607 105.103 31.0159 102.633 31.1539C100.163 31.2923 95.284 34.1518 95.2989 38.8044Z" fill="#263238"/>
<path d="M111.888 50.0076C111.963 49.0959 112.71 48.4139 113.531 48.5456C114.527 48.7052 115.612 49.3932 115.444 51.6704C115.144 55.7098 111.528 54.5452 111.531 54.4287C111.532 54.3498 111.749 51.6968 111.888 50.0076Z" fill="#937263"/>
<path d="M112.44 52.981C112.457 52.9695 112.5 53.0361 112.604 53.1005C112.705 53.163 112.883 53.2158 113.08 53.1544C113.478 53.0327 113.855 52.3846 113.927 51.6579C113.963 51.2914 113.919 50.9349 113.823 50.6342C113.733 50.3288 113.575 50.1066 113.383 50.0508C113.193 49.9838 113.045 50.0999 112.992 50.2097C112.935 50.3183 112.952 50.4009 112.932 50.4062C112.921 50.4155 112.858 50.3314 112.9 50.1673C112.921 50.0884 112.971 49.9969 113.063 49.9273C113.157 49.8562 113.289 49.8276 113.423 49.8562C113.704 49.9031 113.937 50.2127 114.044 50.5423C114.165 50.875 114.222 51.2761 114.181 51.688C114.097 52.4999 113.663 53.2277 113.121 53.3486C112.858 53.3996 112.649 53.2943 112.546 53.1894C112.439 53.0792 112.427 52.987 112.44 52.981Z" fill="#5E483F"/>
<path d="M112.17 42.1648C111.677 42.4974 111.157 42.8397 110.581 42.871C110.004 42.9023 109.364 42.5026 109.295 41.8701C109.264 41.5862 109.341 41.2628 109.183 41.0359C108.994 40.7654 108.621 40.8264 108.312 40.8454C107.24 40.9116 106.185 40.0197 105.965 38.8606C105.672 39.2949 105.038 39.2405 104.64 38.9254C104.241 38.6102 103.997 38.1165 103.694 37.6919C103.39 37.2673 102.954 36.8785 102.466 36.928C102.192 36.9555 101.931 37.12 101.659 37.0783C101.179 37.0046 100.972 36.3695 100.923 35.8381C100.874 35.3068 100.845 34.6884 100.45 34.3796C100.084 34.093 99.5866 34.2199 99.1395 34.2676C98.6928 34.3156 98.1253 34.1693 98.0332 33.6845C97.9849 33.4304 98.0946 33.1718 98.2306 32.9597C98.8463 31.9993 100.112 31.6268 101.08 32.1213C101.499 30.8042 102.68 29.8256 103.944 29.7482C105.208 29.6708 106.48 30.499 107.029 31.7571C107.839 31.0237 108.981 30.7599 109.99 31.0724C110.999 31.385 111.849 32.2657 112.194 33.3574C113.099 33.1476 114.099 33.5837 114.628 34.419C115.157 35.2543 115.184 36.4402 114.694 37.3038C115.335 37.7555 115.867 38.509 115.843 39.3473C115.819 40.1856 115.042 40.9793 114.319 40.7188C114.585 41.3871 114.304 42.2589 113.715 42.5916C113.126 42.9246 112.321 42.6664 111.984 42.0375" fill="#263238"/>
<path d="M100.754 33.2975C100.751 33.2975 100.75 33.3228 100.751 33.3715C100.754 33.4203 100.753 33.4939 100.765 33.5888C100.79 33.7775 100.846 34.058 100.996 34.3832C101.148 34.7036 101.388 35.0772 101.767 35.3845C102.137 35.6945 102.653 35.9426 103.248 35.9397L103.19 35.8467C103.061 36.1864 103.073 36.6035 103.213 36.9678C103.345 37.3376 103.564 37.671 103.796 37.9973C103.916 38.1543 104.018 38.3367 104.186 38.484C104.35 38.6258 104.55 38.7136 104.757 38.7538C105.168 38.8349 105.641 38.7192 105.959 38.3519L105.824 38.3013C105.881 39.1106 106.259 39.9381 106.896 40.465C107.232 40.7619 107.656 40.9554 108.081 40.9666C108.506 40.9852 108.907 40.8695 109.282 40.7445L109.186 40.6916C109.36 41.2055 109.644 41.6509 109.998 41.988C110.345 42.324 110.818 42.5361 111.259 42.4419C112.134 42.2875 112.744 41.5247 112.894 40.7832L112.808 40.8211C113.227 41.1028 113.686 41.153 114.06 41.0942C114.438 41.0392 114.741 40.8754 114.958 40.7099C115.177 40.5409 115.31 40.362 115.391 40.238C115.466 40.1082 115.497 40.036 115.493 40.0338C115.475 40.0159 115.358 40.3348 114.924 40.6533C114.708 40.8051 114.413 40.9532 114.049 40.9967C113.69 41.0444 113.255 40.9852 112.869 40.7162L112.802 40.6693L112.784 40.7541C112.636 41.4455 112.049 42.1562 111.239 42.2894C110.839 42.3697 110.424 42.1807 110.095 41.8626C109.764 41.5452 109.494 41.1158 109.332 40.6328L109.307 40.5562L109.236 40.5796C108.867 40.7017 108.481 40.8096 108.088 40.791C107.695 40.7787 107.315 40.6064 106.994 40.3247C106.392 39.8265 106.037 39.0522 105.979 38.2857L105.965 38.093L105.844 38.2347C105.576 38.5495 105.152 38.6615 104.783 38.5893C104.597 38.5543 104.42 38.4773 104.277 38.3549C104.137 38.2377 104.03 38.0569 103.909 37.8983C103.677 37.5776 103.464 37.2569 103.338 36.9123C103.204 36.5715 103.192 36.205 103.304 35.8969L103.338 35.802L103.246 35.8039C102.684 35.8146 102.187 35.5884 101.825 35.2967C101.455 35.0087 101.214 34.6534 101.057 34.3471C100.75 33.7176 100.78 33.2897 100.754 33.2975Z" fill="#455A64"/>
<path d="M90.3073 120.4C90.3073 120.4 94.4194 123.2 94.8207 122.623C95.2221 122.046 95.9158 121.58 94.7031 120.302C93.4903 119.023 92.0024 118.563 91.3719 117.353C90.7414 116.144 90.033 112.974 88.4069 112.331C86.7808 111.688 84.1238 109.534 84.1238 109.534L81.2455 116.126L83.4896 117.049C83.4896 117.049 83.3418 120.358 83.8367 121.906C84.3317 123.455 85.8888 125.095 85.8888 125.095C85.8888 125.095 86.4376 126.298 87.488 126.816C87.488 126.816 87.9112 127.778 88.4621 128.684C89.0126 129.591 93.3205 132.018 93.3205 132.018C93.3205 132.018 94.1232 130.864 93.0366 129.827C91.9499 128.79 90.8482 128.023 90.8482 128.023L93.9252 127.49C93.9252 127.49 93.7912 125.736 92.0223 125.785C90.2533 125.834 89.6624 125.299 89.6624 125.299L91.4473 123.933C91.4473 123.933 90.9431 122.652 90.0531 122.897C89.163 123.143 89.163 123.143 89.163 123.143L90.3073 120.4Z" fill="#937263"/>
<path d="M118.621 94.2185L123.491 99.395L121.917 89.4944L131.803 86.0459C131.803 86.0459 134.428 99.6335 134.885 102.847C135.705 108.613 134.698 116.81 129.826 117.387C124.554 118.011 120.574 112.277 118.041 108.515C116.093 105.622 112.951 100.565 112.951 100.565L118.621 94.2185Z" fill="#E0E0E0"/>
<path d="M80.9594 85.4131C79.3729 90.9219 77.1552 91.7546 76.2793 107.534C76.1086 110.611 78.2025 114.556 80.6966 115.948C83.1907 117.34 87.5371 115.632 88.9484 112.971L90.3493 101.301L80.9594 85.4131Z" fill="#E0E0E0"/>
<path d="M87.5114 108.462C87.4581 108.48 87.1855 107.361 86.538 106.143C85.8996 104.919 85.154 104.103 85.1945 104.061C85.2096 104.044 85.4154 104.225 85.706 104.569C85.9961 104.912 86.3625 105.425 86.6902 106.046C87.0164 106.667 87.2388 107.272 87.365 107.72C87.4915 108.169 87.5326 108.456 87.5114 108.462Z" fill="#263238"/>
<path d="M78.5702 91.7638C78.6535 91.4374 83.5327 76.7916 85.0895 73.5857C86.9516 69.7506 90.8662 68.0546 93.2961 67.8894C95.7261 67.7242 121.73 70.0096 121.73 70.0096C121.73 70.0096 129.014 72.0274 130.488 79.2954C132.336 88.4097 133.823 97.3979 133.823 97.3979L120.79 100.502L119.257 96.2433L94.7676 102.269L86.9288 98.9812L78.5702 91.7638Z" fill="#E0E0E0"/>
<path d="M123.6 125.861L122.966 101.446L123.448 70.8454L113.291 65.907L112.153 61.0762L100.296 67.2577L97.8126 64.2319L96.7727 67.6421L94.1747 68.5786L89.063 79.6959L88.8397 99.1919C88.8397 99.1919 87.6034 122.172 88.3353 128.294C88.3353 128.294 90.25 131.798 96.1421 131.954C108.087 132.272 123.6 125.861 123.6 125.861Z" fill="#E0E0E0"/>
<path d="M113.281 92.4576C113.275 92.5097 112.681 92.4695 111.724 92.3824C110.642 92.2831 109.382 92.1674 107.989 92.0394C106.595 91.9244 105.333 91.8206 104.25 91.7313C103.293 91.6513 102.701 91.5884 102.702 91.5359C102.704 91.4857 103.299 91.4556 104.261 91.4682C105.223 91.4805 106.552 91.5408 108.016 91.668C109.479 91.796 110.799 91.9665 111.752 92.1209C112.703 92.2749 113.287 92.4078 113.281 92.4576Z" fill="white"/>
<path d="M113.117 94.4636C113.11 94.5157 112.516 94.4755 111.559 94.3884C110.477 94.2891 109.216 94.1733 107.824 94.0453C106.43 93.9304 105.168 93.8266 104.086 93.7376C103.128 93.6576 102.536 93.5948 102.537 93.5423C102.539 93.4921 103.134 93.4619 104.096 93.4746C105.058 93.4868 106.387 93.5471 107.851 93.6744C109.314 93.802 110.635 93.9728 111.587 94.1272C112.538 94.2809 113.122 94.4137 113.117 94.4636Z" fill="white"/>
<path d="M112.951 96.4703C112.945 96.5224 112.351 96.4822 111.394 96.3951C110.312 96.2958 109.051 96.1801 107.659 96.0521C106.264 95.9371 105.003 95.8333 103.92 95.744C102.963 95.664 102.37 95.6011 102.371 95.5486C102.373 95.4984 102.968 95.4683 103.93 95.4809C104.892 95.4932 106.221 95.5535 107.685 95.6807C109.148 95.8083 110.469 95.9791 111.421 96.1336C112.373 96.2876 112.957 96.4204 112.951 96.4703Z" fill="white"/>
<path d="M112.785 98.4768C112.779 98.5289 112.185 98.4887 111.228 98.4016C110.146 98.3023 108.885 98.1865 107.493 98.0585C106.099 97.9436 104.837 97.8397 103.754 97.7508C102.797 97.6708 102.204 97.6079 102.206 97.5555C102.207 97.5052 102.802 97.4751 103.765 97.4877C104.727 97.5 106.055 97.5603 107.519 97.6876C108.983 97.8152 110.303 97.986 111.255 98.1404C112.207 98.2941 112.791 98.4269 112.785 98.4768Z" fill="white"/>
<path d="M96.1331 132.581C96.1277 132.582 96.1206 132.528 96.1115 132.424C96.1027 132.297 96.0926 132.144 96.0798 131.958C96.0572 131.518 96.0268 130.92 95.9883 130.167C95.9246 128.577 95.8345 126.333 95.7238 123.575C95.5359 118.008 95.2967 110.311 95.376 101.801C95.4229 97.5459 95.5524 93.4868 95.9219 89.8113C96.3062 86.1402 96.8788 82.8759 97.3943 80.1477C97.918 77.4207 98.3967 75.2298 98.7308 73.7169C98.8974 72.9858 99.0294 72.4057 99.1269 71.9781C99.1711 71.7981 99.2075 71.6503 99.2379 71.5283C99.2645 71.4275 99.2807 71.3765 99.2861 71.378C99.2915 71.3794 99.2855 71.433 99.2689 71.5368C99.247 71.6615 99.2207 71.8118 99.1883 71.9949C99.1049 72.4265 98.9919 73.0114 98.8495 73.7493C98.5519 75.2715 98.1062 77.4706 97.6113 80.1998C97.1244 82.9291 96.5758 86.1934 96.209 89.8481C95.8578 93.5028 95.7367 97.5548 95.6898 101.803C95.6105 110.301 95.8146 117.996 95.9455 123.565C96.0143 126.325 96.0707 128.57 96.1102 130.161C96.124 130.915 96.1348 131.514 96.1429 131.955C96.1432 132.142 96.1432 132.295 96.1436 132.422C96.1419 132.527 96.1385 132.581 96.1331 132.581Z" fill="#263238"/>
<path d="M103.774 84.7037C103.765 84.6907 104.003 84.6993 104.462 84.7264C104.959 84.7592 105.63 84.8035 106.468 84.8589C108.26 84.994 110.763 85.1826 113.78 85.4103L113.918 85.4207L113.908 85.5755C113.655 89.2704 113.353 93.6912 113.026 98.4666L113.02 98.5522L112.958 98.602C112.616 98.8755 112.246 99.1527 111.866 99.4247C111.194 99.9054 110.511 100.35 109.809 100.739C109.106 101.108 108.382 101.479 107.581 101.53C106.788 101.582 106.032 101.323 105.371 100.965C104.71 100.596 104.12 100.136 103.583 99.6465C103.314 99.4013 103.055 99.152 102.808 98.8967C102.694 98.7828 102.538 98.6121 102.461 98.4346C102.367 98.2589 102.318 98.074 102.267 97.8928C102.099 97.1617 102.083 96.4487 102.087 95.7663C102.112 94.4008 102.249 93.1431 102.396 92.0015C102.698 89.7184 103.057 87.8951 103.314 86.639C103.445 86.0113 103.555 85.5261 103.634 85.1982C103.713 84.8715 103.763 84.6996 103.774 84.7037C103.785 84.7078 103.758 84.8816 103.7 85.2154C103.635 85.5837 103.549 86.0667 103.442 86.6691C103.225 87.932 102.902 89.7604 102.633 92.0372C102.501 93.1747 102.379 94.4275 102.367 95.7689C102.368 96.4365 102.394 97.1367 102.553 97.8046C102.645 98.1462 102.759 98.4178 103.014 98.6496C103.259 98.8997 103.515 99.1427 103.779 99.3804C104.307 99.8567 104.883 100.297 105.513 100.646C106.143 100.984 106.845 101.216 107.561 101.165C108.271 101.121 108.974 100.77 109.659 100.407C110.344 100.026 111.017 99.5869 111.681 99.1118C112.056 98.8435 112.425 98.567 112.758 98.3017L112.69 98.4372C113.038 93.6633 113.361 89.2443 113.63 85.551L113.758 85.7158C110.779 85.4278 108.306 85.1886 106.536 85.0174C105.688 84.9277 105.01 84.8559 104.508 84.8027C104.292 84.7767 104.115 84.7555 103.967 84.7376C103.844 84.722 103.778 84.7104 103.774 84.7037Z" fill="#263238"/>
<path d="M112.153 61.0762C112.153 61.0762 110.827 61.4992 107.422 63.5026C104.087 65.465 100.296 67.2577 100.296 67.2577L100.585 73.1616L113.202 66.176" fill="#E0E0E0"/>
<path d="M97.8122 64.2319L100.296 67.2578L98.9685 73.5866L96.7568 67.8665" fill="#E0E0E0"/>
<path d="M113.691 88.9058C113.683 89.0085 111.311 88.888 108.392 88.6368C105.472 88.3857 103.112 88.0991 103.119 87.9965C103.126 87.8941 105.498 88.0143 108.418 88.2655C111.337 88.5166 113.698 88.8035 113.691 88.9058Z" fill="#263238"/>
<g opacity="0.3">
<path d="M102.613 98.4009C103.185 99.4375 103.716 100.862 104.495 101.717C105.275 102.573 106.287 103.231 107.385 103.303C108.352 103.366 109.305 102.971 110.126 102.404C111.452 101.489 112.266 100.048 112.858 98.4511C112.941 98.3347 110.961 99.7921 109.885 100.423C108.809 101.054 108.056 101.252 106.842 101.144C105.25 101.002 103.822 99.554 102.613 98.4009Z" fill="black"/>
</g>
<g opacity="0.3">
<path d="M100.25 67.9114C100.14 68.0022 99.4507 75.2152 99.4507 75.2152L112.098 66.7881L100.585 73.1623L100.25 67.9114Z" fill="black"/>
</g>
<path d="M120.445 83.8521C120.457 83.8498 120.498 84.053 120.562 84.4221C120.628 84.8258 120.715 85.3527 120.819 85.9879C121.03 87.3449 121.313 89.1569 121.625 91.1599C121.944 93.1796 122.216 95.0121 122.395 96.3412C122.485 97.0058 122.554 97.5438 122.597 97.9167C122.641 98.2895 122.659 98.4964 122.648 98.4986C122.636 98.5008 122.594 98.2977 122.53 97.9286C122.463 97.5249 122.377 96.998 122.272 96.3632C122.057 95.0069 121.77 93.1956 121.452 91.1926C121.136 89.1722 120.875 87.3385 120.696 86.0094C120.614 85.3706 120.546 84.84 120.494 84.4336C120.451 84.0616 120.433 83.8543 120.445 83.8521Z" fill="#263238"/>
<path d="M124.205 71.6984C124.224 71.7255 123.862 72.0366 123.35 72.6182C122.838 73.1979 122.195 74.0741 121.662 75.1614C121.133 76.2512 120.825 77.3262 120.67 78.1173C120.512 78.9094 120.477 79.4136 120.445 79.4106C120.433 79.4095 120.433 79.2834 120.443 79.0542C120.449 78.825 120.484 78.4946 120.548 78.0901C120.674 77.2819 120.969 76.1791 121.508 75.0695C122.049 73.9621 122.721 73.0825 123.263 72.5207C123.533 72.2386 123.764 72.0247 123.934 71.8922C124.102 71.7571 124.197 71.6876 124.205 71.6984Z" fill="#263238"/>
<path d="M88.1215 79.9766C88.1701 79.9766 88.2093 88.1748 88.2093 98.286C88.2093 108.4 88.1698 116.597 88.1215 116.597C88.0733 116.597 88.0338 108.4 88.0338 98.286C88.0335 88.1748 88.0729 79.9766 88.1215 79.9766Z" fill="#263238"/>
<path d="M100.416 67.2059C100.437 67.2227 100.172 67.6696 99.7716 68.4093C99.3711 69.1486 98.8413 70.1856 98.3359 71.3745C98.2947 71.4719 98.2539 71.5691 98.2158 71.6595L98.1368 71.8466L98.0569 71.661C97.57 70.5313 97.2188 69.4802 97.0011 68.7125C96.8918 68.3285 96.8132 68.0164 96.7653 67.7991C96.717 67.5818 96.6975 67.4605 96.7086 67.4567C96.7329 67.4489 96.8682 67.917 97.1155 68.6697C97.3618 69.4225 97.7299 70.4576 98.2158 71.5776L98.0569 71.5791C98.095 71.4879 98.1362 71.3901 98.1773 71.2919C98.6861 70.0945 99.2371 69.0604 99.6666 68.3364C99.8812 67.9739 100.064 67.6878 100.196 67.4939C100.327 67.3008 100.406 67.1985 100.416 67.2059Z" fill="#263238"/>
<path d="M113.291 65.907C113.294 65.913 113.234 65.9524 113.117 66.022C112.983 66.0994 112.814 66.1969 112.606 66.3171C112.14 66.5831 111.501 66.9482 110.721 67.3939C109.13 68.3059 106.952 69.6052 104.539 71.0274C103.07 71.891 101.677 72.6914 100.467 73.3593L100.355 73.421L100.353 73.2845C100.338 71.5524 100.325 70.0931 100.316 69.0374C100.317 68.5414 100.317 68.1411 100.318 67.8404C100.321 67.5636 100.327 67.4155 100.335 67.4151C100.344 67.4151 100.354 67.5628 100.367 67.8393C100.377 68.14 100.391 68.54 100.408 69.0356C100.433 70.0908 100.468 71.5498 100.509 73.2815L100.396 73.2063C101.6 72.5265 102.987 71.7198 104.456 70.8566C106.869 69.4348 109.058 68.1537 110.664 67.2719C111.466 66.8298 112.12 66.4827 112.575 66.2494C112.789 66.1426 112.964 66.0555 113.102 65.9867C113.223 65.9286 113.288 65.9011 113.291 65.907Z" fill="#263238"/>
<path d="M89.6467 70.4569C89.672 70.4741 89.4736 70.845 89.2182 71.4757C88.9617 72.1053 88.6682 73.0072 88.4941 74.042C88.323 75.0779 88.3065 76.0357 88.3426 76.7248C88.3777 77.4146 88.4435 77.8392 88.4145 77.8451C88.4027 77.8478 88.375 77.7439 88.3355 77.5534C88.2937 77.3633 88.2525 77.0835 88.2188 76.7356C88.15 76.0405 88.1466 75.0623 88.3214 74.007C88.4985 72.9525 88.8173 72.0398 89.1058 71.4173C89.2495 71.1051 89.3784 70.8599 89.4786 70.6988C89.5772 70.5358 89.6366 70.4499 89.6467 70.4569Z" fill="#263238"/>
<path d="M99.1746 75.4297C99.1486 75.4751 98.8618 75.3266 98.5342 75.0982C98.2062 74.8697 97.9616 74.6479 97.9876 74.6029C98.0136 74.5575 98.3004 74.706 98.628 74.9344C98.9556 75.1629 99.2006 75.3847 99.1746 75.4297Z" fill="#263238"/>
<path d="M99.718 74.6172C99.6735 74.6387 99.3303 73.8845 98.9511 72.9331C98.5718 71.9813 98.3006 71.1924 98.3451 71.1709C98.3897 71.1493 98.7328 71.9031 99.112 72.8549C99.4913 73.8064 99.7625 74.5956 99.718 74.6172Z" fill="#263238"/>
<path d="M131.366 108.183C131.364 108.184 131.349 108.156 131.321 108.099C131.291 108.034 131.252 107.951 131.203 107.846C131.15 107.731 131.088 107.592 131.014 107.43C130.92 107.276 130.813 107.099 130.692 106.901C130.198 106.109 129.345 105.057 128.161 103.868C126.983 102.672 125.486 101.326 123.804 99.7881C122.967 99.0126 122.076 98.1989 121.184 97.2928C120.294 96.3868 119.377 95.4142 118.554 94.2767L118.681 94.2834C117.097 96.11 115.381 98.0898 113.602 100.141C113.37 100.409 113.138 100.675 112.924 100.923L112.932 100.801C114.853 103.897 116.598 106.893 118.434 109.404C119.344 110.667 120.282 111.794 121.196 112.809C122.106 113.827 122.997 114.729 123.882 115.447C125.637 116.908 127.401 117.536 128.626 117.502C128.779 117.502 128.923 117.51 129.058 117.504C129.193 117.488 129.318 117.473 129.436 117.46C129.552 117.446 129.66 117.433 129.76 117.422C129.856 117.398 129.944 117.376 130.023 117.356C130.174 117.32 130.292 117.292 130.381 117.27C130.462 117.252 130.504 117.244 130.505 117.247C130.506 117.25 130.466 117.264 130.386 117.289C130.298 117.315 130.18 117.35 130.03 117.393C129.951 117.416 129.863 117.441 129.767 117.468C129.667 117.483 129.559 117.498 129.442 117.516C129.324 117.532 129.197 117.55 129.062 117.569C128.925 117.578 128.779 117.574 128.625 117.577C127.386 117.634 125.588 117.015 123.81 115.555C122.912 114.839 122.012 113.938 121.095 112.921C120.174 111.909 119.226 110.779 118.309 109.515C116.459 107.001 114.706 104.002 112.788 100.911L112.747 100.846L112.796 100.789C113.011 100.542 113.242 100.276 113.475 100.008C115.255 97.9585 116.974 95.9805 118.559 94.1557L118.626 94.0791L118.686 94.1628C119.496 95.2884 120.406 96.2592 121.29 97.1652C122.176 98.0709 123.063 98.888 123.896 99.6668C125.57 101.213 127.06 102.571 128.233 103.782C129.409 104.987 130.256 106.057 130.739 106.866C130.856 107.068 130.96 107.249 131.051 107.407C131.12 107.573 131.18 107.715 131.229 107.832C131.273 107.941 131.307 108.026 131.334 108.093C131.358 108.152 131.368 108.182 131.366 108.183Z" fill="#263238"/>
<path d="M110.976 87.7463C110.976 87.7463 107.888 83.846 107.332 84.2773C106.777 84.7082 105.976 84.9452 106.752 86.5277C107.528 88.1102 108.81 88.9931 109.051 90.336C109.291 91.6789 109.021 94.9157 110.381 96.0145C111.741 97.1132 113.634 99.9631 113.634 99.9631L118.349 94.5306L116.483 92.9797C116.483 92.9797 117.612 89.8657 117.602 88.2404C117.592 86.6147 116.595 84.5843 116.595 84.5843C116.595 84.5843 116.431 83.2723 115.583 82.4645C115.583 82.4645 115.466 81.42 115.211 80.3904C114.956 79.3609 111.569 75.7583 111.569 75.7583C111.569 75.7583 110.459 76.6204 111.186 77.9346C111.913 79.2489 112.736 80.3097 112.736 80.3097L109.64 79.8993C109.64 79.8993 109.245 81.6131 110.947 82.0946C112.65 82.5761 113.055 83.2633 113.055 83.2633L110.943 84.0336C110.943 84.0336 111.042 85.4073 111.965 85.4386C112.887 85.4698 112.887 85.4698 112.887 85.4698L110.976 87.7463Z" fill="#937263"/>
<path d="M111.783 85.4116C112.201 85.3967 112.789 85.3758 113.826 85.339L113.858 85.3379L113.878 85.3662C114.209 85.8127 114.567 86.4058 114.687 87.1622C114.808 87.9165 114.656 88.7674 114.27 89.5202C113.829 90.3332 113.181 90.8828 112.654 91.4089C112.118 91.9287 111.678 92.4522 111.442 92.981C111.201 93.5071 111.149 93.996 111.172 94.322C111.192 94.6517 111.267 94.8236 111.25 94.8303C111.244 94.8329 111.224 94.7916 111.192 94.7093C111.163 94.626 111.124 94.4998 111.104 94.3298C111.058 93.9938 111.093 93.4781 111.33 92.9211C111.563 92.3588 112.011 91.8078 112.546 91.2764C113.073 90.7391 113.702 90.1922 114.119 89.4216C114.482 88.7131 114.634 87.8964 114.526 87.192C114.421 86.4802 114.09 85.9027 113.777 85.4573L113.829 85.4841C112.568 85.4964 111.779 85.4637 111.783 85.4116Z" fill="#5E483F"/>
<path d="M116.094 84.5284C116.066 84.5433 115.979 84.3446 115.78 84.0827C115.582 83.8207 115.238 83.5268 114.781 83.3899C114.327 83.2488 113.886 83.2548 113.572 83.2619C113.256 83.2741 113.059 83.292 113.054 83.263C113.051 83.2392 113.242 83.1733 113.562 83.1253C113.881 83.0833 114.34 83.0524 114.829 83.2034C115.072 83.2801 115.292 83.3999 115.471 83.5417C115.65 83.6845 115.782 83.8509 115.877 83.9986C116.064 84.3003 116.11 84.5217 116.094 84.5284Z" fill="#5E483F"/>
<path d="M115.251 81.9615C115.213 82.002 114.755 81.4923 114.071 81.0532C113.391 80.6071 112.765 80.4124 112.778 80.3559C112.784 80.3075 113.453 80.4229 114.16 80.8861C114.87 81.3438 115.286 81.9328 115.251 81.9615Z" fill="#5E483F"/>
<g opacity="0.3">
<path d="M123.258 115.653C123.091 114.983 123.311 114.981 122.828 114.533C120.971 112.811 119.188 110.58 117.953 108.876C116.453 106.806 114.116 102.607 114.116 102.607L113.563 102.422C114.041 105.447 115.422 108.191 116.781 110.871C117.523 112.334 118.274 113.81 119.283 115.063C120.292 116.316 121.596 117.346 123.087 117.673C123.412 117.078 123.425 116.324 123.258 115.653Z" fill="black"/>
</g>
<path d="M18.9282 76.2627C18.9366 76.2631 18.9444 76.3922 18.9515 76.6374C18.9565 76.9083 18.9629 77.2644 18.971 77.709C18.9734 77.9442 18.9764 78.2024 18.9791 78.4826C18.9906 78.765 19.0183 79.0712 19.0392 79.4005C19.0895 80.0584 19.1158 80.81 19.2322 81.6323C19.2811 82.045 19.3324 82.4762 19.3857 82.9253C19.4441 83.3741 19.5301 83.837 19.6047 84.3184C19.7454 85.2833 19.9616 86.3009 20.1698 87.3755C20.6219 89.5169 21.1851 91.8551 21.791 94.3064C22.3967 96.7592 22.9426 99.1082 23.3664 101.264C23.5573 102.347 23.7591 103.372 23.8769 104.346C23.941 104.831 24.0159 105.298 24.0638 105.751C24.1043 106.204 24.1431 106.639 24.1802 107.055C24.273 107.884 24.2716 108.641 24.2956 109.303C24.303 109.634 24.3182 109.943 24.3168 110.226C24.3054 110.508 24.2952 110.767 24.2855 111.002C24.2642 111.447 24.2473 111.804 24.2342 112.075C24.2197 112.32 24.2082 112.448 24.2001 112.447C24.1917 112.446 24.1869 112.317 24.1859 112.072C24.1876 111.801 24.1893 111.445 24.192 111C24.195 110.765 24.1984 110.507 24.2021 110.227C24.1967 109.945 24.1751 109.638 24.1613 109.308C24.1249 108.649 24.1144 107.897 24.0112 107.073C23.9693 106.659 23.9255 106.227 23.8799 105.777C23.8276 105.328 23.7483 104.863 23.6802 104.381C23.5546 103.413 23.3461 102.393 23.1501 101.316C22.7159 99.17 22.1645 96.8288 21.5592 94.3764C20.9533 91.925 20.3955 89.5809 19.9539 87.4298C19.7508 86.35 19.5412 85.3275 19.4083 84.3564C19.3374 83.8719 19.2558 83.4068 19.2021 82.9551C19.1539 82.5034 19.1077 82.0692 19.0631 81.6539C18.9572 80.8271 18.9423 80.0703 18.9049 79.4091C18.8904 79.0779 18.8691 78.7702 18.8647 78.4867C18.8695 78.205 18.8735 77.946 18.8776 77.7098C18.8884 77.2644 18.8968 76.9075 18.9032 76.6363C18.9116 76.3907 18.9201 76.2623 18.9282 76.2627Z" fill="#263238"/>
<path d="M65.3271 94.0922L70.0984 75.3657L75.9732 76.543C75.9732 76.543 74.5656 78.3116 74.5656 79.9387C74.5656 81.5658 73.5901 96.8911 73.5901 96.8911C73.5901 96.8911 67.747 98.7787 65.3862 94.4178" fill="#FFBE9D"/>
<path d="M70.098 75.3669C70.098 75.3669 69.4435 73.4134 69.962 71.7234C70.4806 70.0334 72.2405 68.724 72.1312 67.7093C72.0219 66.6946 72.9562 64.2623 73.799 64.4535C74.6418 64.6448 75.2647 65.5616 74.5517 67.124C73.8391 68.6864 73.4268 70.3013 73.4268 70.3013C73.4268 70.3013 82.2013 65.261 82.918 65.1516C83.6346 65.0422 84.3516 64.9332 84.5372 65.5631C84.7231 66.193 82.9713 67.0001 82.9713 67.0001L80.6162 70.3846C80.6162 70.3846 79.992 72.513 78.9788 74.0229C77.9656 75.5329 75.9722 76.5438 75.9722 76.5438L73.4137 79.9395C73.4147 79.9399 69.5349 78.4783 70.098 75.3669Z" fill="#FFBE9D"/>
<path d="M82.8237 67.1345C82.8096 67.149 82.7461 67.0772 82.6081 67.0047C82.4715 66.934 82.2508 66.8688 81.9846 66.9209C81.4525 67.0277 80.7747 67.5341 80.2183 68.2441C79.6559 68.9619 79.2972 69.7444 79.033 70.3025C78.7732 70.8658 78.6086 71.2156 78.5765 71.2003C78.5475 71.1862 78.6561 70.8115 78.8785 70.2232C79.1052 69.6405 79.447 68.8234 80.0361 68.0703C80.6242 67.3254 81.3459 66.8104 81.963 66.7349C82.2717 66.701 82.5191 66.8078 82.6557 66.9161C82.7947 67.0266 82.8345 67.126 82.8237 67.1345Z" fill="#EB996E"/>
<path d="M79.6081 68.4006C79.6412 68.4642 79.0757 68.8903 78.3448 69.3516C77.614 69.8134 76.9949 70.136 76.9618 70.072C76.9288 70.0084 77.4943 69.5827 78.2251 69.1209C78.9555 68.6596 79.575 68.337 79.6081 68.4006Z" fill="#EB996E"/>
<path d="M74.9574 70.5758C74.929 70.5136 75.6204 70.2543 76.4325 70.5605C77.248 70.857 77.6569 71.5238 77.6003 71.5543C77.5483 71.6094 77.0979 71.0784 76.3556 70.8124C75.6187 70.5311 74.9689 70.6543 74.9574 70.5758Z" fill="#EB996E"/>
<path d="M56.6257 95.1727C56.5832 95.4518 63.2732 105.41 65.4431 107.277C70.7659 111.857 74.6818 105.664 74.2894 100.419C73.897 95.1746 60.0676 70.5386 60.0676 70.5386L55.5906 82.1731L56.6257 95.1727Z" fill="#2DA9DF"/>
<path d="M21.6106 67.9001L33.7763 64.7485L34.9249 62.6108L47.1267 62.8255L49.9616 66.1717L58.0953 70.5739L51.2687 102.179L28.3651 103.477L21.6106 67.9001Z" fill="#263238"/>
<path d="M35.5324 62.1953L30.9792 65.3127L21.4138 67.604L24.4427 109.953C24.4427 109.953 19.0144 120.142 19.0144 120.531C19.0144 120.919 29.5098 131.813 38.4301 136.846C38.4301 136.846 40.5442 124.667 40.304 116.137C40.0638 107.607 40.2129 92.7025 40.2129 92.7025L33.9834 67.0455L35.5324 62.1953Z" fill="#2DA9DF"/>
<path d="M48.276 65.6023L47.4248 63.0391L50.6021 66.1662C50.6021 66.1662 52.4872 66.8057 52.891 66.9528C56.0538 68.1051 60.3638 70.2208 60.3638 70.2208L54.9742 103.586C54.9742 103.586 62.8264 130.388 62.2413 145.003C62.2413 145.003 50.5186 143.838 38.5544 137.039L40.3191 89.1333C40.3191 89.1333 46.0553 82.5138 47.0101 75.8545C47.9643 69.1954 48.276 65.6023 48.276 65.6023Z" fill="#2DA9DF"/>
<path d="M39.729 97.8185C39.7233 97.8241 39.6511 97.7456 39.5174 97.5904C39.371 97.4155 39.179 97.1867 38.9388 96.9002C38.4246 96.2714 37.7053 95.391 36.8128 94.2993C35.0016 92.0508 32.4917 88.9341 29.6194 85.3677L29.5755 85.3134L29.5934 85.2423C29.9592 83.7896 30.3428 82.2648 30.7369 80.6991C30.9083 80.0211 31.0776 79.351 31.2443 78.6913L31.3597 78.8658C29.6902 78.7951 28.0876 78.727 26.5882 78.663L26.4255 78.6563L26.4819 78.4889C27.7758 74.6478 28.8845 71.3567 29.6795 68.9969C30.0742 67.8523 30.3907 66.9348 30.6181 66.2762C30.7251 65.9789 30.8108 65.7403 30.8772 65.5554C30.9383 65.3924 30.9727 65.3095 30.9791 65.3121C30.9855 65.3147 30.9633 65.4029 30.9143 65.5707C30.857 65.7593 30.7828 66.0023 30.6906 66.3055C30.4788 66.9701 30.1835 67.8966 29.8154 69.0516C29.0414 71.4203 27.9624 74.7233 26.7025 78.5778L26.5963 78.4037C28.096 78.4624 29.6987 78.5253 31.3685 78.5908L31.5264 78.5971L31.4839 78.7653C31.3175 79.425 31.1485 80.0955 30.9778 80.7735C30.5817 82.3385 30.1957 83.8629 29.8282 85.3148L29.8023 85.1894C32.6486 88.7808 35.1356 91.9194 36.9306 94.1843C37.8001 95.2984 38.5012 96.1962 39.0022 96.8381C39.2296 97.1372 39.4115 97.3757 39.5502 97.5581C39.673 97.724 39.7344 97.8133 39.729 97.8185Z" fill="#263238"/>
<path d="M38.2944 136.069C38.2252 136.067 38.5427 126.077 39.0033 113.758C39.4641 101.436 39.894 91.4515 39.9632 91.4536C40.0323 91.4557 39.7148 101.444 39.2539 113.766C38.7931 126.085 38.3632 136.071 38.2944 136.069Z" fill="#263238"/>
<path d="M50.2756 65.8247C50.283 65.8236 50.3016 65.927 50.3303 66.1261C50.3596 66.3501 50.3981 66.6403 50.4457 67.002C50.5405 67.7957 50.6721 68.9011 50.8354 70.2712C51.1505 73.0857 51.5868 76.9818 52.0861 81.4432L52.1064 81.6229L51.9437 81.592C51.0968 81.4312 50.2075 81.2623 49.2992 81.09L49.4345 80.8977C49.5947 81.2928 49.7661 81.7152 49.9389 82.1408C50.2783 82.9791 50.6123 83.8044 50.9298 84.5884L50.9622 84.6681L50.9109 84.7335C48.0089 88.4436 45.4413 91.727 43.5785 94.1083C42.6601 95.2644 41.9168 96.2006 41.384 96.8711C41.135 97.1762 40.936 97.421 40.7835 97.6078C40.6444 97.7741 39.7351 98.5276 39.7294 98.522C39.7233 98.5165 40.6208 97.7518 40.7484 97.5747C40.8924 97.3797 41.0807 97.1249 41.3159 96.8067C41.8348 96.1228 42.5589 95.1684 43.453 93.9896C45.2996 91.593 47.8453 88.2892 50.7223 84.5553L50.7034 84.7001C50.3853 83.9164 50.0506 83.0915 49.7105 82.2532C49.538 81.8272 49.3666 81.4048 49.2067 81.0097L49.1109 80.773L49.3424 80.8173C50.2503 80.9918 51.1394 81.1626 51.9859 81.3252L51.8435 81.474C51.3786 77.0082 50.9723 73.108 50.6791 70.2909C50.5459 68.9168 50.4386 67.8083 50.3613 67.0124C50.3306 66.6485 50.306 66.3564 50.2871 66.1313C50.2722 65.9311 50.2682 65.8258 50.2756 65.8247Z" fill="#263238"/>
<path d="M36.7741 128.702C36.2876 127.993 35.3047 127.555 34.802 128.25L34.8209 128.238C34.335 128.667 34.0837 129.433 34.2969 130.085C34.5699 130.922 35.5591 131.373 36.2798 130.975C37.0009 130.578 37.2607 129.411 36.7741 128.702Z" fill="#263238"/>
<path d="M37.5246 114.391C37.0381 113.682 36.0556 113.244 35.5525 113.938L35.5714 113.927C35.0855 114.356 34.8342 115.122 35.0474 115.775C35.3204 116.611 36.3096 117.062 37.0303 116.664C37.7513 116.266 38.0111 115.1 37.5246 114.391Z" fill="#263238"/>
<g opacity="0.3">
<path d="M26.5925 78.5343C26.6735 78.822 28.3862 79.1103 28.6854 79.9081C28.9847 80.7058 28.8379 81.6167 28.6254 82.448C28.4128 83.2788 28.1361 84.1168 28.1891 84.9782C28.2839 86.5235 29.3893 87.729 30.4227 88.7776C33.3119 91.7081 36.8398 94.8884 39.7293 97.8193C37.1698 94.219 33.8315 90.4899 31.0021 87.1441C30.5837 86.6496 30.1491 86.1328 29.9716 85.4853C29.7493 84.6727 29.9686 83.8024 30.1876 82.9886C30.4774 81.9107 30.7676 80.8327 31.0574 79.7548C31.132 79.4779 31.2936 79.011 31.3324 78.8577C31.3324 78.8577 30.5371 78.6839 30.2581 78.7137C30.2581 78.7137 27.7117 78.4141 26.5925 78.5343Z" fill="black"/>
</g>
<path d="M59.8565 69.2544C59.8646 69.2559 59.8545 69.3668 59.8278 69.5766C59.7944 69.8137 59.7516 70.1165 59.6989 70.4909C59.5738 71.3165 59.4014 72.454 59.1905 73.8456C58.7549 76.7074 58.1614 80.6054 57.5058 84.9119C56.8469 89.2348 56.2284 93.1444 55.7513 95.9686C55.5128 97.3806 55.3137 98.5218 55.1673 99.3088C55.0961 99.6794 55.0387 99.9793 54.9939 100.214C54.9517 100.42 54.9254 100.528 54.9173 100.526C54.9092 100.524 54.9193 100.414 54.946 100.204C54.9794 99.9674 55.0219 99.6645 55.0748 99.2902C55.2 98.4649 55.3724 97.327 55.5833 95.9358C56.0189 93.0741 56.6124 89.1757 57.268 84.8676C57.9266 80.5462 58.545 76.637 59.0225 73.8129C59.261 72.4008 59.4601 71.2592 59.6065 70.4723C59.6777 70.1017 59.735 69.8014 59.7799 69.567C59.8221 69.3605 59.8484 69.2529 59.8565 69.2544Z" fill="#263238"/>
<path d="M21.5908 67.5615C21.5908 67.5615 19.0259 68.321 17.2093 71.2861C15.1893 74.5832 11.6867 106.565 11.8206 108.783C11.9546 111.002 13.6949 116.621 18.3899 115.882C23.0848 115.142 35.5559 105.53 35.5559 105.53L31.2648 96.3609L22.1462 101.093L23.3885 85.2503L21.5908 67.5615Z" fill="#2DA9DF"/>
<g opacity="0.3">
<path d="M49.2446 112.811C48.9487 111.373 47.3305 110.911 46.0038 110.725C38.7949 109.71 31.5856 108.695 24.3766 107.681L22.5013 114.391C22.6923 115.928 22.89 117.491 23.4825 118.898C24.075 120.306 25.1331 121.558 26.4996 121.927C27.7071 122.253 28.968 121.861 30.1601 121.471C35.4623 119.74 40.7643 118.008 46.0666 116.277C46.8578 116.018 47.6696 115.748 48.3191 115.187C48.9689 114.626 49.4275 113.699 49.2446 112.811Z" fill="black"/>
</g>
<g opacity="0.3">
<path d="M22.6161 85.1369C22.3553 84.0024 21.9622 82.7187 20.9743 82.2908C19.9223 81.835 18.6982 82.6811 18.2306 83.816C17.7629 84.9509 17.8621 86.2625 18.0275 87.4956C18.6017 91.7794 19.9706 96.5359 21.2392 100.636L25.6777 98.838C25.0896 94.2996 23.6381 89.5808 22.6161 85.1369Z" fill="black"/>
</g>
<path d="M68.4467 81.2329L64.0814 95.7336L69.7491 100.273L74.3162 102.296C74.3159 102.271 75.1695 95.0493 74.9559 97.5695L75.9725 82.6681L68.4467 81.2329Z" fill="#2DA9DF"/>
<path d="M68.4465 81.2329C68.4583 81.2359 68.4205 81.4648 68.3423 81.8763C68.2674 82.2889 68.1375 82.8802 67.9674 83.6084C67.6249 85.0643 67.048 87.0453 66.3469 89.2027C65.6457 91.3608 65.0526 93.3266 64.6801 94.7699C64.4952 95.4918 64.3471 96.0767 64.2519 96.483C64.1531 96.8886 64.093 97.1115 64.0809 97.1085C64.0691 97.1055 64.1068 96.8767 64.1851 96.4655C64.26 96.0533 64.3899 95.4616 64.56 94.7335C64.9024 93.2775 65.4794 91.2961 66.1809 89.138C66.8816 86.9806 67.4748 85.0149 67.8473 83.5715C68.0322 82.8497 68.1803 82.2647 68.2755 81.8584C68.3746 81.4532 68.4347 81.23 68.4465 81.2329Z" fill="#263238"/>
<path d="M67.021 103.089C67.0024 103.103 66.7882 102.815 66.4781 102.32C66.168 101.825 65.7672 101.118 65.3761 100.307C64.9857 99.4946 64.6801 98.733 64.482 98.1722C64.2836 97.6115 64.1875 97.2543 64.2087 97.2453C64.2327 97.2353 64.37 97.5743 64.5964 98.1186C64.8224 98.663 65.1437 99.4098 65.5313 100.216C65.9197 101.022 66.3003 101.733 66.5823 102.245C66.8644 102.757 67.0422 103.072 67.021 103.089Z" fill="#263238"/>
<path d="M21.5916 100.15C21.571 100.201 20.9644 99.9453 20.2113 99.6513C19.4585 99.3555 18.8421 99.1315 18.8549 99.0783C18.8667 99.0281 19.5098 99.1698 20.2703 99.4686C21.0308 99.7659 21.6112 100.103 21.5916 100.15Z" fill="#263238"/>
<path d="M22.9635 79.5713C22.952 79.5758 22.9044 79.4612 22.8282 79.2491C22.7506 79.0377 22.651 78.7267 22.5394 78.3382C22.3153 77.562 22.0606 76.4677 21.8888 75.2368C21.7188 74.0052 21.6648 72.8771 21.6678 72.0622C21.6692 71.6547 21.6797 71.3251 21.6962 71.0981C21.7117 70.8707 21.7259 70.7457 21.738 70.7461C21.7654 70.7472 21.763 71.2499 21.792 72.0596C21.8204 72.8692 21.8936 73.9859 22.0623 75.2075C22.2327 76.4283 22.4658 77.5177 22.6585 78.2999C22.8504 79.0824 22.9895 79.5613 22.9635 79.5713Z" fill="#263238"/>
<g opacity="0.3">
<path d="M50.8314 82.5226C51.3642 82.5628 51.8969 82.603 52.4297 82.6432C51.7586 81.6393 50.5301 81.131 49.4261 81.4008C49.4616 82.4598 50.4664 83.288 50.4039 84.3455C50.3705 84.9141 50.0308 85.3967 49.7055 85.8398C48.4993 87.4833 47.9473 88.2357 46.7411 89.8796L46.9499 91.9041C48.1663 89.9875 49.3961 88.203 50.6124 86.2863C50.9839 85.701 51.3645 85.0927 51.4867 84.3909C51.6088 83.6891 51.4003 82.8646 50.8314 82.5226Z" fill="black"/>
</g>
<g opacity="0.3">
<path d="M66.6698 87.8993L67.1527 86.332C66.3395 89.0234 63.5796 91.0881 62.6726 93.7426C61.9111 95.9717 62.3042 98.6329 63.668 100.48C63.9814 100.905 64.5226 101.314 64.9322 101.004C65.2234 100.783 65.4579 100.354 65.3263 99.9922C65.1947 99.6305 64.249 97.4512 64.0813 97.1085C63.9538 96.8484 64.2368 96.1016 64.6147 94.6999C65.2811 92.2311 66.0038 90.3685 66.6698 87.8993Z" fill="black"/>
</g>
<path d="M31.5328 45.356C31.4086 50.1209 33.2431 54.9064 36.4288 58.1283C37.1583 55.7979 37.8874 53.4675 38.6169 51.1371" fill="#263238"/>
<path d="M48.0299 31.4503C46.1513 30.3184 43.8822 30.1555 41.7833 30.6191C39.6843 31.0827 37.728 32.1305 35.8753 33.3126C34.8358 33.9761 33.799 34.705 33.0519 35.742C31.6882 37.6345 30.3399 40.7425 30.2083 43.1559C30.102 45.1071 30.7795 49.9919 31.5276 51.7642C32.2138 53.3906 35.4256 54.6285 37.011 55.03L51.5582 36.3727C51.0436 34.3002 49.7399 32.4807 48.0299 31.4503Z" fill="#263238"/>
<path d="M50.5378 33.9674L47.0508 33.2798C48.9571 38.2862 49.474 49.7354 50.5645 55.0306C51.85 52.9737 54.835 46.7089 54.6754 44.217C54.5155 41.7251 54.6815 33.5428 50.5378 33.9674Z" fill="#263238"/>
<path d="M52.5314 42.1292C52.304 38.2877 49.9864 33.5793 46.5159 33.9927L38.485 36.252C35.9086 36.9769 34.1915 39.3757 34.0039 42.3007C33.9945 42.4466 33.9813 42.2687 33.9834 42.3785L35.776 65.3126L41.8044 78.5057L47.1245 64.6689C47.1276 62.7984 47.1279 61.3096 47.1286 61.3193C47.1286 61.3193 51.5779 60.4933 52.4872 54.0866C52.9393 50.9008 52.7838 46.3971 52.5314 42.1292Z" fill="#FFBE9D"/>
<path d="M51.1286 46.9669C51.1435 47.4008 50.8226 47.7721 50.412 47.7974C50.0024 47.8227 49.6576 47.4927 49.6427 47.0588C49.6279 46.625 49.9487 46.2533 50.3583 46.228C50.7693 46.2023 51.1141 46.5331 51.1286 46.9669Z" fill="#263238"/>
<path d="M51.6599 44.6377C51.5678 44.7453 51.0026 44.2861 50.2013 44.2902C49.4006 44.2816 48.8136 44.7378 48.7262 44.6299C48.6833 44.5823 48.7771 44.3884 49.0329 44.1823C49.2846 43.9769 49.7141 43.7767 50.2134 43.7778C50.7128 43.7797 51.1332 43.9814 51.3748 44.1883C51.6214 44.3963 51.7051 44.5897 51.6599 44.6377Z" fill="#263238"/>
<path d="M44.1754 46.9669C44.1902 47.4004 43.8694 47.7721 43.4587 47.7974C43.0491 47.8227 42.7043 47.4923 42.6895 47.0588C42.6746 46.6254 42.9955 46.2533 43.4054 46.228C43.8157 46.2023 44.1605 46.5334 44.1754 46.9669Z" fill="#263238"/>
<path d="M44.0485 44.6381C43.956 44.7453 43.3902 44.2865 42.5892 44.2906C41.7889 44.282 41.2014 44.7382 41.1141 44.6303C41.0715 44.5827 41.164 44.3892 41.4208 44.1827C41.6725 43.9773 42.102 43.7771 42.6013 43.7778C43.1004 43.7797 43.5208 43.9814 43.7627 44.1882C44.009 44.3962 44.0933 44.5901 44.0485 44.6381Z" fill="#263238"/>
<path d="M46.5539 51.5797C46.5502 51.5295 47.0482 51.4335 47.8553 51.3178C48.0598 51.294 48.2534 51.2486 48.2875 51.0945C48.3354 50.9312 48.2494 50.6882 48.1495 50.4259C47.9558 49.8804 47.7534 49.3081 47.5408 48.7087C46.6956 46.2641 46.0829 44.2533 46.1727 44.2168C46.2621 44.18 47.0202 46.132 47.8654 48.5766C48.0689 49.1794 48.2636 49.7539 48.4488 50.3038C48.5267 50.5602 48.6607 50.8508 48.5568 51.1894C48.5021 51.3583 48.352 51.4811 48.221 51.5202C48.0901 51.5648 47.9747 51.5674 47.8735 51.5741C47.0614 51.6247 46.557 51.63 46.5539 51.5797Z" fill="#263238"/>
<path d="M39.4255 59.0396C39.4255 59.0396 41.3153 63.4384 47.1264 62.8248L47.1281 61.3182C47.1281 61.3182 43.3013 61.5958 39.4255 59.0396Z" fill="#EB996E"/>
<path d="M43.7963 41.4441C43.7176 41.6845 42.9173 41.5728 41.9773 41.6997C41.0346 41.8061 40.2771 42.1116 40.152 41.8966C40.096 41.7935 40.2279 41.5673 40.5339 41.3336C40.8372 41.1007 41.3217 40.8785 41.8862 40.8078C42.4507 40.7386 42.9676 40.8361 43.3104 40.9887C43.6559 41.1416 43.83 41.3299 43.7963 41.4441Z" fill="#263238"/>
<path d="M51.3976 41.9341C51.2569 42.135 50.7046 41.9282 50.0406 41.92C49.3769 41.8861 48.8148 42.0576 48.6849 41.8482C48.6279 41.7462 48.7163 41.5453 48.9616 41.3544C49.2031 41.1646 49.6077 41.0087 50.0642 41.0229C50.5204 41.0377 50.9161 41.2186 51.1473 41.424C51.3821 41.6297 51.4594 41.8362 51.3976 41.9341Z" fill="#263238"/>
<path d="M50.9541 36.2793C50.5988 35.3156 49.6399 34.737 48.6979 34.6846C47.7559 34.6321 46.8358 35.0254 46.0193 35.5459C42.5605 37.7506 40.7831 43.0755 37.3656 45.3568C36.5251 45.9179 35.4312 45.4041 34.7163 46.1471C34.0013 46.8902 33.5377 48.0779 33.9331 49.0695C33.4739 48.3748 33.0087 47.6679 32.7475 46.8578C32.4864 46.0478 32.4536 45.106 32.8433 44.3615C33.1392 43.7967 33.6612 43.3654 33.8046 42.7325C33.9308 42.1758 33.7314 41.5935 33.7533 41.0201C33.7756 40.4363 34.0246 39.8949 34.2854 39.3863C35.6239 36.7753 37.4654 34.4141 39.8367 32.9454C41.386 31.9862 43.1577 31.4251 44.9335 31.4917C46.7092 31.5583 48.483 32.2783 49.7826 33.6144C50.5469 34.3999 51.3506 35.2129 50.9541 36.2793Z" fill="#263238"/>
<path d="M34.7997 46.9412C34.7386 46.7574 31.7091 45.5518 31.6689 49.1026C31.6301 52.5523 34.7862 51.8732 34.7926 51.7742C34.7987 51.6753 34.7997 46.9412 34.7997 46.9412Z" fill="#FFBE9D"/>
<path d="M33.8395 50.4565C33.8257 50.4453 33.7845 50.4981 33.6921 50.5435C33.602 50.5878 33.4471 50.6176 33.2845 50.5487C32.9552 50.4114 32.6819 49.8302 32.6718 49.2081C32.6664 48.8941 32.7288 48.5956 32.8317 48.3493C32.9295 48.0978 33.0787 47.9229 33.2453 47.892C33.4113 47.8515 33.5281 47.9627 33.5655 48.0602C33.6067 48.157 33.5861 48.2258 33.6027 48.2317C33.6114 48.2403 33.6701 48.1744 33.6462 48.0319C33.634 47.9631 33.5979 47.8816 33.5251 47.8146C33.4505 47.7465 33.3405 47.7108 33.2244 47.7238C32.9828 47.7398 32.7639 47.9821 32.6505 48.2526C32.524 48.5242 32.4474 48.8595 32.4535 49.2122C32.4676 49.9076 32.7848 50.5614 33.2356 50.7102C33.4552 50.7757 33.6394 50.7046 33.7349 50.6243C33.8334 50.5398 33.8503 50.4628 33.8395 50.4565Z" fill="#EB996E"/>
<path d="M33.5555 45.1676C33.5578 45.1725 33.623 45.1323 33.7444 45.0515C33.8639 44.9678 34.0488 44.8558 34.2691 44.6839C34.7064 44.3353 35.3127 43.7831 35.9578 42.9887C36.607 42.1987 37.2865 41.1736 38.023 40.0302C38.7613 38.8894 39.5714 37.6261 40.6045 36.4853C41.1309 35.9283 41.6839 35.4278 42.2703 35.0338C42.8553 34.6364 43.4684 34.3439 44.0696 34.1333C45.2742 33.7058 46.4308 33.6124 47.3833 33.6846C48.3398 33.7505 49.0966 33.9745 49.603 34.1646C49.8601 34.2505 50.0501 34.3458 50.1824 34.4016C50.3143 34.4585 50.3845 34.4864 50.3868 34.4812C50.3889 34.4764 50.3227 34.4392 50.1942 34.3726C50.0653 34.3075 49.8777 34.2025 49.6216 34.1069C49.1175 33.8982 48.3574 33.6552 47.3907 33.5737C46.4281 33.4863 45.2549 33.5689 44.0298 33.9953C43.4181 34.2051 42.7939 34.4998 42.1977 34.9021C41.5995 35.3017 41.0371 35.8092 40.5043 36.3733C39.4583 37.5279 38.6479 38.8012 37.9157 39.9465C37.1849 41.0951 36.5175 42.1213 35.8822 42.915C35.2513 43.7131 34.6608 44.2731 34.236 44.6348C34.0221 44.8134 33.8433 44.9329 33.7292 45.0251C33.6128 45.1137 33.5531 45.1628 33.5555 45.1676Z" fill="#455A64"/>
<path d="M33.4831 51.0663C33.1785 51.0038 32.8485 51.2375 32.7729 51.569C32.6973 51.9005 32.8883 52.2782 33.1835 52.382C33.4788 52.4858 33.8327 52.299 33.9451 51.9805C34.0571 51.662 33.9103 51.2609 33.6292 51.1176" fill="white"/>
<path d="M33.6287 51.1178C33.6108 51.1382 33.8328 51.2372 33.9101 51.581C33.9462 51.7451 33.9266 51.9632 33.7879 52.1224C33.6567 52.2817 33.4191 52.3806 33.2049 52.307C32.9916 52.2307 32.8496 51.9981 32.826 51.7845C32.7963 51.5661 32.8945 51.3756 33.0102 51.2647C33.2538 51.0337 33.4866 51.0943 33.4829 51.0664C33.4846 51.0579 33.435 51.0307 33.3361 51.0285C33.239 51.0259 33.0902 51.0586 32.9458 51.1792C32.8037 51.2926 32.666 51.5252 32.6951 51.8013C32.718 52.0666 32.882 52.3546 33.1614 52.4573C33.4431 52.5518 33.7282 52.4212 33.8858 52.2195C34.0541 52.0126 34.0636 51.7351 34.0076 51.552C33.9529 51.3619 33.8486 51.2402 33.768 51.1803C33.6867 51.1193 33.6317 51.1096 33.6287 51.1178Z" fill="#263238"/>
<path d="M34.342 46.1436C34.2931 47.0857 34.2536 48.0807 34.6484 48.9179C35.0432 49.7551 36.0385 50.3247 36.7815 49.8563C37.3874 49.4741 37.5686 48.6183 37.6715 47.857C37.9681 45.6598 38.1041 43.4388 38.4179 41.2446L34.342 46.1436Z" fill="#263238"/>
<path d="M44.584 53.2581C44.2827 53.6935 44.1882 54.2936 44.3394 54.8153C44.4905 55.337 44.8833 55.7656 45.3577 55.9275C45.5469 55.9918 45.7558 56.0149 45.941 55.9375C46.2683 55.801 46.4313 55.4058 46.5612 55.0475C46.6691 54.7498 46.7771 54.4521 46.8851 54.1541C46.9212 54.054 46.9576 53.9394 46.9154 53.8423C46.8702 53.7377 46.7548 53.6994 46.6526 53.6722C45.9832 53.4944 45.3138 53.3165 44.6447 53.1387" fill="#EB996E"/>
<path d="M45.8973 55.8292C45.8956 55.8512 45.542 55.8966 44.9849 55.7031C44.7137 55.5993 44.383 55.3849 44.1856 54.9868C44.0851 54.7959 44.0409 54.5302 44.0631 54.3014C44.077 54.0666 44.1259 53.8233 44.2221 53.5933C44.3148 53.3708 44.4464 53.1744 44.5996 53.0173L44.6522 52.9634L44.7191 52.9894C46.0484 53.5066 47.0883 53.7686 47.0775 53.8311C47.0687 53.8955 45.9965 53.737 44.6418 53.2357L44.7612 53.2075C44.6317 53.3448 44.5207 53.513 44.4407 53.7042C44.2882 54.1001 44.2278 54.5582 44.382 54.8737C44.5338 55.206 44.8047 55.4121 45.0473 55.5282C45.5467 55.7522 45.9064 55.7805 45.8973 55.8292Z" fill="#263238"/>
<path d="M50.1832 34.6387C50.1798 34.6587 49.9069 34.581 49.4055 34.5635C48.9071 34.5486 48.1706 34.6215 47.3352 34.9806C46.9192 35.1592 46.4765 35.3966 46.0385 35.717C45.5996 36.0366 45.1525 36.4195 44.7007 36.8436C43.8032 37.6987 42.874 38.7275 42.0811 39.9577C41.684 40.5731 41.3318 41.2056 40.9505 41.7913C40.5726 42.3792 40.1522 42.9102 39.6964 43.3463C38.7871 44.2177 37.8504 44.8283 37.0528 45.2964C36.2525 45.763 35.5834 46.0897 35.1219 46.3155C34.9039 46.4179 34.7268 46.5012 34.5867 46.5671C34.4636 46.6222 34.3975 46.6486 34.3951 46.6422C34.3924 46.6363 34.4535 46.5983 34.5719 46.5314C34.7082 46.4569 34.8806 46.3628 35.0929 46.2471C35.545 46.0004 36.2049 45.6551 36.9934 45.1758C37.7789 44.6947 38.6997 44.0774 39.5891 43.212C40.0321 42.7814 40.439 42.2624 40.8101 41.6804C41.1847 41.1007 41.5359 40.4674 41.9374 39.8449C42.7418 38.5966 43.6835 37.5629 44.5951 36.7071C45.055 36.2822 45.5081 35.9015 45.9589 35.5815C46.4093 35.2604 46.8645 35.0256 47.2913 34.8515C48.149 34.5017 48.9031 34.4489 49.4078 34.4872C49.6616 34.5054 49.8566 34.543 49.9865 34.5761C50.1174 34.6111 50.1845 34.6323 50.1832 34.6387Z" fill="#455A64"/>
<path d="M34.2552 44.0136C34.2602 44.024 34.1624 44.0962 33.9785 44.2194C33.7642 44.3582 33.5004 44.5289 33.1863 44.7321C33.1006 44.7864 33.0115 44.8426 32.9194 44.9007C32.8198 44.9609 32.7102 45.0138 32.5773 45.0257C32.5118 45.0298 32.4342 45.0231 32.3654 44.9706C32.2972 44.92 32.2537 44.8337 32.2483 44.7429C32.2419 44.5617 32.3299 44.4285 32.3961 44.3068C32.6781 43.809 32.9872 43.2631 33.3158 42.6834L33.4397 42.8106C33.1465 43.0503 32.805 43.2415 32.4345 43.3636C32.0627 43.4864 31.6804 43.5329 31.315 43.509C31.2253 43.5057 31.1247 43.4923 31.0313 43.4555C30.9398 43.4197 30.8336 43.3509 30.7887 43.2222C30.7421 43.0964 30.786 42.9569 30.841 42.8735C30.8956 42.7846 30.9631 42.7195 31.0195 42.6577C31.4844 42.1617 31.8329 41.6393 32.0846 41.1761C32.5867 40.2429 32.7294 39.5742 32.7621 39.5876C32.7719 39.5906 32.7456 39.758 32.6636 40.052C32.5789 40.3441 32.4366 40.7634 32.1923 41.2449C31.9493 41.726 31.6038 42.2696 31.1328 42.7857C31.0161 42.9074 30.9004 43.0477 30.9456 43.1563C30.9827 43.265 31.1608 43.3185 31.3248 43.3197C31.6703 43.3397 32.032 43.2944 32.3843 43.1783C32.7352 43.0625 33.0594 42.8828 33.3378 42.6585L33.7113 42.3571L33.4616 42.7857C33.1265 43.361 32.8111 43.9023 32.5236 44.3961C32.4514 44.5156 32.3863 44.6335 32.3907 44.7329C32.3947 44.8307 32.4706 44.8884 32.5708 44.8798C32.7736 44.8683 32.9572 44.7165 33.133 44.6246C33.4569 44.4408 33.7291 44.2867 33.9498 44.1613C34.1421 44.0556 34.2498 44.0032 34.2552 44.0136Z" fill="#455A64"/>
<path d="M18.6591 84.1324L24.3463 117.116C24.5741 118.437 25.731 119.303 26.9285 119.049L48.7757 114.412C49.9755 114.157 50.7586 112.874 50.5214 111.552L44.5021 78.0056C44.2622 76.6694 43.0742 75.8114 41.8677 76.1027L20.3528 81.3034C19.1868 81.5855 18.436 82.8394 18.6591 84.1324Z" fill="#E0E0E0"/>
<path d="M33.2257 96.3223L35.042 95.3255C35.042 95.3255 35.6327 91.8889 36.5923 90.6759C37.5522 89.4629 38.9646 88.0672 38.9545 87.742C38.9444 87.4168 39.3978 85.1474 39.3978 85.1474C39.3978 85.1474 40.2447 84.3333 40.4121 85.9615C40.5794 87.5901 40.4121 88.8113 40.4121 88.8113C40.4121 88.8113 45.5102 87.4112 46.101 87.2482C46.6918 87.0852 47.4277 87.1492 47.3538 87.8004C47.2799 88.4519 46.9644 88.7883 46.5096 89.1935C46.2167 89.4543 45.9694 89.5444 45.9694 89.5444C45.9694 89.5444 46.9152 90.507 46.9152 91.4539C46.9152 92.4009 47.8889 94.5929 47.0029 95.6515C46.1169 96.71 42.0559 99.8855 39.9147 100.293C37.7736 100.7 37.2509 101.399 36.2569 102.8L33.2257 96.3223Z" fill="#FFBE9D"/>
<path d="M40.8869 88.6902C40.9116 88.7405 40.2361 89.1773 39.4739 89.8221C38.7087 90.4636 38.1489 91.0675 38.1115 91.0277C38.0774 90.9949 38.5886 90.3211 39.3673 89.6681C40.143 89.0121 40.867 88.6452 40.8869 88.6902Z" fill="#EB996E"/>
<path d="M46.3046 89.357C46.3245 89.4091 45.7172 89.7098 44.9401 89.9725C44.1641 90.2348 43.5406 90.4499 43.5227 90.403C43.5028 90.3509 44.1101 90.0502 44.8871 89.7876C45.6628 89.5252 46.2867 89.3102 46.3046 89.357Z" fill="#EB996E"/>
<path d="M20.548 101.028L33.0768 95.1729L37.7737 105.506L20.548 115.193V101.028Z" fill="#2DA9DF"/>
<path d="M32.8377 95.492C32.8556 95.5415 29.4701 97.08 25.2768 98.9278C21.0819 100.776 17.6681 102.234 17.6499 102.184C17.632 102.134 21.0168 100.596 25.2114 98.7481C29.405 96.8999 32.8198 95.4421 32.8377 95.492Z" fill="#263238"/>
<g opacity="0.3">
<path d="M21.3733 100.393C19.8516 100.726 18.3589 101.221 16.9236 101.87C16.3386 102.135 15.7542 102.431 15.2744 102.885C14.7946 103.339 14.4251 103.975 14.3877 104.671C14.7727 104.417 15.2258 104.261 15.5423 103.911C16.9628 102.338 19.4167 101.421 21.4964 100.549L21.3733 100.393Z" fill="black"/>
</g>
</svg>
