<svg width="147" height="147" viewBox="0 0 147 147" fill="none" xmlns="http://www.w3.org/2000/svg">
<circle cx="73.0497" cy="73.0497" r="73.0497" fill="#EFF8FF"/>
<path d="M131.509 24.7388H67.4059V125.895H131.509V24.7388Z" fill="#92C8DC"/>
<path d="M133.726 22.646H65.1697V26.8298H133.726V22.646Z" fill="#87DDFD"/>
<path d="M133.726 31.5742H65.1697V35.758H133.726V31.5742Z" fill="#87DDFD"/>
<path d="M133.726 40.5005H65.1697V44.6843H133.726V40.5005Z" fill="#87DDFD"/>
<path d="M133.726 49.4277H65.1697V53.6115H133.726V49.4277Z" fill="#87DDFD"/>
<path d="M133.726 58.353H65.1697V62.5368H133.726V58.353Z" fill="#87DDFD"/>
<path d="M133.726 67.2803H65.1697V71.464H133.726V67.2803Z" fill="#87DDFD"/>
<path d="M133.726 76.2075H65.1697V80.3913H133.726V76.2075Z" fill="#87DDFD"/>
<path d="M133.726 85.1343H65.1697V89.318H133.726V85.1343Z" fill="#87DDFD"/>
<path d="M133.726 94.0605H65.1697V98.2443H133.726V94.0605Z" fill="#87DDFD"/>
<path d="M133.726 102.988H65.1697V107.172H133.726V102.988Z" fill="#87DDFD"/>
<path d="M133.726 111.915H65.1697V116.099H133.726V111.915Z" fill="#87DDFD"/>
<path d="M135.548 120.53H63.3467V131.259H135.548V120.53Z" fill="#017CB2"/>
<path d="M135.548 120.53H63.3467V121.856H135.548V120.53Z" fill="#006A92"/>
<path d="M104.77 123.782H94.1246V131.259H104.77V123.782Z" fill="#3685A3"/>
<path d="M98.9297 124.237H94.601V131.259H98.9297V124.237Z" fill="#87DDFD"/>
<path d="M104.294 124.237H99.9648V131.259H104.294V124.237Z" fill="#87DDFD"/>
<path d="M112.993 22.646H85.9231V120.53H112.993V22.646Z" fill="#017CB2"/>
<path d="M93.835 24.7388H89.5891V28.9847H93.835V24.7388Z" fill="#46BAE6"/>
<path d="M101.581 24.7388H97.3348V28.9847H101.581V24.7388Z" fill="#46BAE6"/>
<path d="M109.306 24.7388H105.06V28.9847H109.306V24.7388Z" fill="#46BAE6"/>
<path d="M93.835 32.2778H89.5891V36.5237H93.835V32.2778Z" fill="#46BAE6"/>
<path d="M101.581 32.2778H97.3348V36.5237H101.581V32.2778Z" fill="#46BAE6"/>
<path d="M109.306 32.2778H105.06V36.5237H109.306V32.2778Z" fill="#46BAE6"/>
<path d="M93.835 39.7964H89.5891V44.0423H93.835V39.7964Z" fill="#46BAE6"/>
<path d="M101.581 39.7964H97.3348V44.0423H101.581V39.7964Z" fill="#46BAE6"/>
<path d="M109.306 39.7964H105.06V44.0423H109.306V39.7964Z" fill="#46BAE6"/>
<path d="M93.835 47.3345H89.5891V51.5804H93.835V47.3345Z" fill="#46BAE6"/>
<path d="M101.581 47.3345H97.3348V51.5804H101.581V47.3345Z" fill="#46BAE6"/>
<path d="M109.306 47.3345H105.06V51.5804H109.306V47.3345Z" fill="#46BAE6"/>
<path d="M93.835 54.875H89.5891V59.1209H93.835V54.875Z" fill="#46BAE6"/>
<path d="M101.581 54.875H97.3348V59.1209H101.581V54.875Z" fill="#46BAE6"/>
<path d="M109.306 54.875H105.06V59.1209H109.306V54.875Z" fill="#46BAE6"/>
<path d="M93.835 62.4136H89.5891V66.6595H93.835V62.4136Z" fill="#46BAE6"/>
<path d="M101.581 62.4136H97.3348V66.6595H101.581V62.4136Z" fill="#46BAE6"/>
<path d="M109.306 62.4136H105.06V66.6595H109.306V62.4136Z" fill="#46BAE6"/>
<path d="M93.835 69.9521H89.5891V74.1981H93.835V69.9521Z" fill="#46BAE6"/>
<path d="M101.581 69.9521H97.3348V74.1981H101.581V69.9521Z" fill="#46BAE6"/>
<path d="M109.306 69.9521H105.06V74.1981H109.306V69.9521Z" fill="#46BAE6"/>
<path d="M93.835 77.4707H89.5891V81.7166H93.835V77.4707Z" fill="#46BAE6"/>
<path d="M101.581 77.4707H97.3348V81.7166H101.581V77.4707Z" fill="#46BAE6"/>
<path d="M109.306 77.4707H105.06V81.7166H109.306V77.4707Z" fill="#46BAE6"/>
<path d="M93.835 85.0098H89.5891V89.2557H93.835V85.0098Z" fill="#46BAE6"/>
<path d="M101.581 85.0098H97.3348V89.2557H101.581V85.0098Z" fill="#46BAE6"/>
<path d="M109.306 85.0098H105.06V89.2557H109.306V85.0098Z" fill="#46BAE6"/>
<path d="M93.835 92.5483H89.5891V96.7942H93.835V92.5483Z" fill="#46BAE6"/>
<path d="M101.581 92.5483H97.3348V96.7942H101.581V92.5483Z" fill="#46BAE6"/>
<path d="M109.306 92.5483H105.06V96.7942H109.306V92.5483Z" fill="#46BAE6"/>
<path d="M93.835 100.088H89.5891V104.334H93.835V100.088Z" fill="#46BAE6"/>
<path d="M101.581 100.088H97.3348V104.334H101.581V100.088Z" fill="#46BAE6"/>
<path d="M109.306 100.088H105.06V104.334H109.306V100.088Z" fill="#46BAE6"/>
<path d="M93.835 107.606H89.5891V111.852H93.835V107.606Z" fill="#46BAE6"/>
<path d="M101.581 107.606H97.3348V111.852H101.581V107.606Z" fill="#46BAE6"/>
<path d="M109.306 107.606H105.06V111.852H109.306V107.606Z" fill="#46BAE6"/>
<path d="M49.7753 91.9069C49.7753 91.9069 51.4421 93.6578 52.4926 93.1955C53.5571 92.7333 53.305 90.9125 50.5877 90.5063C47.8564 90.1001 49.7753 91.9069 49.7753 91.9069Z" fill="#FBCAC5"/>
<path d="M51.4423 90.4788C51.4283 90.5488 51.4003 90.6189 51.3863 90.6889C51.0921 91.5993 50.5599 92.1316 50.2657 92.3557C50.1397 92.4537 50.0556 92.5098 50.0556 92.5098C50.0556 92.5098 50.0556 92.5098 50.0416 92.4958C49.7615 92.3277 45.6856 89.9185 42.8002 86.9772C42.38 86.543 41.9738 86.0947 41.6237 85.6465C38.2201 81.3325 36.9595 77.6488 36.9595 77.6488L41.9178 77.6348C42.4501 79.2175 43.1084 80.6602 43.8227 81.9488C43.8227 81.9488 43.8227 81.9628 43.8367 81.9628C43.8367 81.9628 43.8367 81.9768 43.8507 81.9768C43.9207 82.1029 43.9908 82.2289 44.0608 82.355C44.0748 82.369 44.0748 82.397 44.0888 82.411C47.2543 87.8035 51.4423 90.4788 51.4423 90.4788Z" fill="#2DA9DF"/>
<path d="M50.0281 92.4958C49.7479 92.3278 45.672 89.9186 42.7867 86.9772L42.7026 85.0724L43.8232 81.9629C43.8232 81.9629 43.8232 81.9769 43.8372 81.9769C43.8372 81.9769 43.8372 81.9909 43.8512 81.9909C43.8932 82.0469 43.9632 82.187 44.0613 82.3691C44.0753 82.3831 44.0753 82.4111 44.0893 82.4251C44.6215 83.3916 45.644 86.0388 46.1062 87.6216C46.8066 89.9887 49.776 92.3138 50.0281 92.4958Z" fill="#017CB2"/>
<path d="M42.3243 127.54C42.3243 127.54 42.9265 128.983 44.3692 129.277C45.8119 129.571 46.4002 130.215 46.4702 131.154L40.1532 131.238C40.1532 131.238 39.7471 130.075 40.1112 127.694C40.4614 125.313 42.3243 127.54 42.3243 127.54ZM26.4408 126.042C26.4408 126.042 26.1887 127.582 27.2672 128.591C28.3457 129.599 28.4998 130.468 28.0516 131.294L22.645 128.016C22.645 128.016 22.9252 126.812 24.4799 124.991C26.0346 123.184 26.4408 126.042 26.4408 126.042Z" fill="#0A0B0C"/>
<path d="M43.6823 128.311C43.6823 128.311 42.4777 129.628 39.5784 128.899L38.1637 114.136L38.1217 113.646L37.8135 110.425L37.1972 107.861L37.1132 107.511L34.1438 95.1574L34.3679 94.7792L36.9731 90.2971L37.1972 89.9189L41.4552 92.258C41.4552 92.258 41.4973 92.5522 41.5673 93.0704C41.5953 93.2805 41.6233 93.5326 41.6653 93.8128C41.7354 94.331 41.8194 94.9753 41.9034 95.6897C42.2256 98.1968 42.6598 101.698 42.9679 104.808C43.2761 107.833 43.4722 110.467 43.3601 111.447C43.3461 111.475 43.6823 128.311 43.6823 128.311Z" fill="#245060"/>
<path d="M42.2965 94.5557C42.2965 94.5557 42.1424 94.9759 41.8763 95.6763C41.5402 96.5867 41.0079 97.9733 40.3916 99.5701C39.3131 102.371 35.4753 111.378 35.3773 111.56C35.3072 111.7 33.7385 114.725 32.0157 118.087C29.7746 122.443 27.2394 127.373 27.2394 127.373C27.2394 127.373 24.8303 127.961 23.3596 125.944L28.0938 114.627L28.1779 114.417L29.4805 111.308L30.517 108.828L30.559 108.674L34.4108 94.0095L34.5089 93.6453L37.03 92.0906L39.6773 90.4658L39.7053 90.5078L41.0079 92.5108L42.2965 94.5557Z" fill="#245060"/>
<path d="M44.8032 97.0905C44.8032 97.0905 38.9624 98.7853 34.5784 96.7123C34.2282 96.5442 33.8921 96.3621 33.5699 96.152C33.3598 96.012 33.1497 95.8579 32.9536 95.6898C32.9536 95.6898 32.8696 94.0651 32.8556 91.7119C32.8416 89.5829 32.8836 86.8517 33.1077 84.1904C33.5139 79.2181 34.5224 74.4838 36.8895 74.3018H39.0885C39.0745 74.3018 46.3439 77.9155 44.8032 97.0905Z" fill="#2DA9DF"/>
<path d="M39.1863 78.7837C39.1863 78.7837 37.8277 81.9492 38.6121 85.0727C39.2984 87.7899 37.9257 90.4372 40.9652 94.5411L33.0234 85.0727L36.5251 78.7837H39.1863Z" fill="#017CB2"/>
<path d="M39.7887 94.542L39.0184 96.0687C37.9119 95.8306 35.8529 96.741 34.5923 96.713C34.2421 96.5449 33.906 96.3628 33.5838 96.1527C33.3737 96.0127 33.1636 95.8586 32.9675 95.6905C32.9675 95.6905 32.8835 94.0657 32.8695 91.7126C32.8555 89.5836 32.8975 86.8523 33.1216 84.1911L33.1496 84.1631L39.7887 94.542Z" fill="#017CB2"/>
<path d="M42.9686 104.78C41.8761 107.679 40.2934 110.985 38.1224 113.632L37.8142 110.411L37.1979 107.847L37.1139 107.497C38.3045 104.668 39.7751 101.138 40.3914 99.5695C41.0077 97.9727 41.54 96.5861 41.8761 95.6756L41.9041 95.6616C42.2263 98.1828 42.6465 101.684 42.9686 104.78Z" fill="#1B3C48"/>
<path d="M38.9909 102.3L41.8062 105.101C42.2965 105.578 43.0808 105.578 43.557 105.101L49.6779 98.9666C50.1541 98.4764 50.1541 97.692 49.6779 97.2158L46.8626 94.4145C46.6665 94.2184 46.4144 94.0923 46.1483 94.0643C45.7841 94.0083 45.3919 94.1343 45.0978 94.4145L38.9769 100.549C38.5007 101.04 38.5007 101.824 38.9909 102.3Z" fill="#017CB2"/>
<path d="M39.7046 98.6463L40.2929 99.2346L40.8672 98.6603L40.2789 98.072C40.2369 98.03 40.2088 97.974 40.1948 97.918C40.1808 97.8199 40.2088 97.7219 40.2789 97.6518L42.1838 95.7329C42.2958 95.6209 42.4919 95.6069 42.604 95.7329L43.1922 96.3212L43.7665 95.7469L43.1782 95.1587C42.744 94.7245 42.0297 94.7245 41.5955 95.1587L39.6906 97.0776C39.4385 97.3297 39.3124 97.6938 39.3825 98.058C39.4385 98.2821 39.5365 98.4782 39.7046 98.6463Z" fill="#BC7410"/>
<path d="M49.0891 99.556L49.6633 98.9817C50.1396 98.4915 50.1396 97.7071 49.6633 97.2309L46.848 94.4296C46.6519 94.2335 46.3998 94.1075 46.1337 94.0794C45.7695 94.0234 45.3773 94.1495 45.0832 94.4296L44.5089 95.0039C44.789 94.7237 45.1812 94.5977 45.5594 94.6537C45.8115 94.6817 46.0636 94.8078 46.2737 95.0039L49.0891 97.8052C49.5653 98.2814 49.5653 99.0658 49.0891 99.556Z" fill="#017CB2"/>
<path d="M38.8504 74.5678C39.1305 74.4277 39.5087 74.6518 39.7048 75.044C39.9009 75.4362 39.8168 75.8704 39.5507 75.9965C39.2706 76.1365 38.8924 75.9124 38.6963 75.5202C38.5002 75.1281 38.5702 74.7079 38.8504 74.5678Z" fill="#0A0B0C"/>
<path d="M40.3771 94.5833C40.3771 94.5833 43.1924 96.152 42.0719 97.3146C40.5311 98.8973 39.2005 95.6338 39.2005 95.6338L40.3771 94.5833ZM39.9849 70.8281L39.9008 72.1167L39.7608 74.3578L39.7188 75.0581C38.4021 75.7024 36.7354 74.5259 36.7354 74.5259L37.2676 71.4024L37.2816 71.3043L38.2901 71.1363L39.9849 70.8281Z" fill="#FBCAC5"/>
<path d="M39.8026 77.3835L35.9788 86.2497L40.9791 94.5416C40.9791 94.5416 40.4329 95.7462 39.0182 96.0683C39.0182 96.0683 32.113 88.4487 31.6647 86.88C31.1185 85.0031 32.5331 78.7842 34.9003 76.0249L39.8026 77.3835Z" fill="#2DA9DF"/>
<path d="M39.9009 72.1301L39.7608 74.3712C37.7439 73.7269 37.3237 71.808 37.2536 71.4018C37.2396 71.3458 37.2396 71.3178 37.2396 71.3178L37.6318 70.7295L38.2761 71.1217L39.9009 72.1301Z" fill="#FFBF66"/>
<path d="M41.2601 72.1169C40.6438 73.2795 37.4503 73.6156 37.0021 70.4081C36.9881 70.3241 36.9881 70.2541 36.9741 70.17C36.9461 69.7918 36.9321 69.4417 36.9601 69.1335C36.9741 68.9935 36.9881 68.8534 37.0021 68.7273C37.2122 67.4667 37.8705 66.8505 38.3748 66.5563C38.7389 66.3462 39.0191 66.3042 39.0191 66.3042L39.0611 66.3182L41.4842 67.0746C41.4842 67.0746 41.5543 67.7049 41.5823 68.5312C41.6383 69.7498 41.6243 71.4026 41.2601 72.1169Z" fill="#FBCAC5"/>
<path d="M34.9146 67.7609C35.0267 68.3491 35.4469 68.8534 35.643 69.4136C35.783 69.8338 35.9091 70.268 36.1472 70.6462C36.3853 71.0244 36.7915 71.3325 37.2257 71.3185C37.6179 69.9179 37.6459 69.4697 37.6179 68.013C38.2202 68.3911 39.0326 67.6768 39.7189 67.8449C40.2651 67.985 40.8674 68.055 41.3717 67.8029C41.8199 67.5928 42.142 67.1446 42.2961 66.6683C42.5342 65.954 42.6603 64.8755 41.8759 64.4553C41.5958 64.3152 41.2736 64.2732 40.9655 64.2872C40.3352 64.3152 39.7189 64.5533 39.1586 64.8335C38.6124 65.0996 38.0521 65.4217 37.4498 65.4217C35.9931 65.4077 34.6345 66.2481 34.9146 67.7609Z" fill="#0A0B0C"/>
<path d="M36.6661 69.7351C36.6661 70.1973 37.0303 70.5615 37.4785 70.5615C37.9407 70.5615 38.3049 70.1973 38.3049 69.7491C38.3049 69.2869 37.9407 68.9227 37.4925 68.9227C37.0443 68.9087 36.6801 69.2869 36.6661 69.7351Z" fill="#FBCAC5"/>
<path d="M39.2003 75.7166C41.5814 82.3137 41.5814 90.7036 41.5814 90.7036L42.9821 92.2864L43.9906 90.5776C44.2707 81.5013 39.5645 75.5205 39.5645 75.5205L39.2003 75.7166Z" fill="#0A0B0C"/>
<path d="M40.2928 69.2043C40.2928 69.2043 40.9792 68.6721 41.6095 69.0503V69.2463C41.3153 69.0783 40.8391 69.0923 40.2928 69.2043Z" fill="#FFBF66"/>
<path d="M41.0635 69.6941C41.1409 69.6941 41.2036 69.6001 41.2036 69.484C41.2036 69.368 41.1409 69.2739 41.0635 69.2739C40.9862 69.2739 40.9235 69.368 40.9235 69.484C40.9235 69.6001 40.9862 69.6941 41.0635 69.6941Z" fill="#FFBF66"/>
<path d="M40.6155 71.4016C40.6155 71.4016 40.9796 71.8218 41.4699 71.4296L41.4839 71.3315C41.2178 71.5276 40.9236 71.5416 40.6155 71.4016Z" fill="#FFBF66"/>
</svg>
