<svg width="410" height="383" viewBox="0 0 410 383" fill="none" xmlns="http://www.w3.org/2000/svg">
<path d="M12.4219 7.28693H13.3443C13.5025 7.99852 13.9944 8.36748 14.8466 8.36748C15.7514 8.36748 16.1116 7.95459 16.1116 7.40114C16.1116 6.81255 15.8129 6.49629 14.6182 6.20639C13.1423 5.85499 12.6591 5.33668 12.6591 4.48454C12.6591 3.55333 13.3531 2.81539 14.7324 2.81539C16.217 2.81539 16.8232 3.65875 16.9022 4.47575H15.9886C15.8832 3.96622 15.5669 3.52698 14.6972 3.52698C13.9944 3.52698 13.5991 3.84323 13.5991 4.39669C13.5991 4.94135 13.9241 5.16098 14.9783 5.40695C16.7265 5.82863 17.0428 6.50507 17.0428 7.3045C17.0428 8.31477 16.2961 9.07906 14.7851 9.07906C13.2477 9.07906 12.5537 8.26206 12.4219 7.28693ZM21.8061 6.93554H18.6962C18.6962 7.77889 19.1179 8.40262 19.8558 8.40262C20.5235 8.40262 20.7343 8.0688 20.8749 7.75254H21.7446C21.5689 8.32356 21.0857 9.10542 19.8295 9.10542C18.4063 9.10542 17.8177 7.97216 17.8177 6.82133C17.8177 5.47723 18.503 4.42304 19.8734 4.42304C21.3317 4.42304 21.8149 5.57387 21.8149 6.55778C21.8149 6.69834 21.8149 6.81255 21.8061 6.93554ZM18.7226 6.34694H20.9452C20.9364 5.65293 20.6026 5.0907 19.8646 5.0907C19.1179 5.0907 18.7929 5.60901 18.7226 6.34694ZM23.6619 9H22.7922V2.56063H23.6619V9ZM28.6179 6.93554H25.508C25.508 7.77889 25.9297 8.40262 26.6676 8.40262C27.3353 8.40262 27.5461 8.0688 27.6867 7.75254H28.5564C28.3807 8.32356 27.8975 9.10542 26.6413 9.10542C25.2181 9.10542 24.6295 7.97216 24.6295 6.82133C24.6295 5.47723 25.3147 4.42304 26.6852 4.42304C28.1435 4.42304 28.6267 5.57387 28.6267 6.55778C28.6267 6.69834 28.6267 6.81255 28.6179 6.93554ZM25.5344 6.34694H27.7569C27.7482 5.65293 27.4143 5.0907 26.6764 5.0907C25.9297 5.0907 25.6046 5.60901 25.5344 6.34694ZM32.3878 7.62076H33.2487C33.0642 8.38505 32.5459 9.10542 31.3687 9.10542C30.1037 9.10542 29.3482 8.20935 29.3482 6.79498C29.3482 5.52116 30.0861 4.42304 31.4214 4.42304C32.7568 4.42304 33.196 5.3806 33.2487 5.94284H32.3966C32.2911 5.50359 32.0188 5.13462 31.4039 5.13462C30.6571 5.13462 30.2355 5.77592 30.2355 6.76862C30.2355 7.77011 30.6484 8.40262 31.3863 8.40262C31.9134 8.40262 32.2209 8.11272 32.3878 7.62076ZM33.6834 5.22247V4.52846H34.4389V3.23707H35.2999V4.52846H36.2662V5.22247H35.2999V7.76132C35.2999 8.17421 35.4053 8.38505 35.8094 8.38505C35.906 8.38505 36.0554 8.37627 36.1784 8.34991V8.98243C35.9763 9.05271 35.6952 9.06149 35.4756 9.06149C34.7464 9.06149 34.4389 8.68374 34.4389 7.93702V5.22247H33.6834ZM42.7506 7.25179H40.3523L39.7286 9H38.8325L40.9848 2.90324H42.1093L44.3495 9H43.3919L42.7506 7.25179ZM40.5719 6.4875H42.5222C41.9687 4.94135 41.6613 4.098 41.5207 3.61482H41.5119C41.3626 4.15071 41.02 5.16976 40.5719 6.4875ZM48.9607 5.81985V8.57832C48.9607 10.0103 48.3809 10.8448 46.8786 10.8448C45.473 10.8448 45.0689 10.0542 44.9986 9.4656H45.8771C46.0001 9.92242 46.3603 10.1684 46.9138 10.1684C47.8889 10.1684 48.1261 9.55345 48.1261 8.55197V8.21814C47.8889 8.70131 47.4848 8.97365 46.7556 8.97365C45.6399 8.97365 44.902 8.0688 44.902 6.77741C44.902 5.32789 45.7454 4.42304 46.8347 4.42304C47.6693 4.42304 48.0295 4.81836 48.1261 5.09948C48.1349 4.915 48.1524 4.62509 48.1612 4.52846H48.9782C48.9694 4.81836 48.9607 5.38938 48.9607 5.81985ZM46.984 5.14341C46.211 5.14341 45.7893 5.78471 45.7893 6.74227C45.7893 7.64712 46.2637 8.25328 46.9577 8.25328C47.8801 8.25328 48.1437 7.62955 48.1437 6.68077C48.1437 5.732 47.9065 5.14341 46.984 5.14341ZM53.9347 6.93554H50.8248C50.8248 7.77889 51.2465 8.40262 51.9844 8.40262C52.6521 8.40262 52.8629 8.0688 53.0035 7.75254H53.8732C53.6975 8.32356 53.2143 9.10542 51.958 9.10542C50.5349 9.10542 49.9463 7.97216 49.9463 6.82133C49.9463 5.47723 50.6315 4.42304 52.002 4.42304C53.4603 4.42304 53.9434 5.57387 53.9434 6.55778C53.9434 6.69834 53.9434 6.81255 53.9347 6.93554ZM50.8511 6.34694H53.0737C53.0649 5.65293 52.7311 5.0907 51.9932 5.0907C51.2465 5.0907 50.9214 5.60901 50.8511 6.34694ZM60.8255 5.81985V8.57832C60.8255 10.0103 60.2457 10.8448 58.7435 10.8448C57.3379 10.8448 56.9338 10.0542 56.8635 9.4656H57.742C57.865 9.92242 58.2251 10.1684 58.7786 10.1684C59.7537 10.1684 59.9909 9.55345 59.9909 8.55197V8.21814C59.7537 8.70131 59.3496 8.97365 58.6205 8.97365C57.5048 8.97365 56.7668 8.0688 56.7668 6.77741C56.7668 5.32789 57.6102 4.42304 58.6995 4.42304C59.5341 4.42304 59.8943 4.81836 59.9909 5.09948C59.9997 4.915 60.0173 4.62509 60.0261 4.52846H60.8431C60.8343 4.81836 60.8255 5.38938 60.8255 5.81985ZM58.8489 5.14341C58.0758 5.14341 57.6541 5.78471 57.6541 6.74227C57.6541 7.64712 58.1285 8.25328 58.8225 8.25328C59.7449 8.25328 60.0085 7.62955 60.0085 6.68077C60.0085 5.732 59.7713 5.14341 58.8489 5.14341ZM62.1014 9V5.74957C62.1014 5.15219 62.1014 4.79201 62.0927 4.52846H62.9448C62.9536 4.65145 62.9711 5.02042 62.9711 5.42452C63.1908 4.83593 63.7179 4.4494 64.4558 4.42304V5.27518C63.5422 5.29275 62.9711 5.72321 62.9711 6.87404V9H62.1014ZM67.0257 4.42304C68.282 4.42304 69.1078 5.35425 69.1078 6.75984C69.1078 8.06001 68.3523 9.10542 66.9818 9.10542C65.6729 9.10542 64.891 8.1215 64.891 6.77741C64.891 5.44209 65.6641 4.42304 67.0257 4.42304ZM66.9906 5.13462C66.2087 5.13462 65.7783 5.75835 65.7783 6.76862C65.7783 7.72618 66.2439 8.40262 67.0082 8.40262C67.79 8.40262 68.2205 7.75254 68.2205 6.76862C68.2205 5.77592 67.79 5.13462 66.9906 5.13462ZM73.7347 4.52846V7.69983C73.7347 8.13907 73.7347 8.7101 73.7435 9H72.9001C72.8826 8.8858 72.8738 8.62225 72.8738 8.36748C72.6454 8.85066 72.2149 9.10542 71.5385 9.10542C70.7566 9.10542 70.0626 8.70131 70.0626 7.47142V4.52846H70.9147V7.28693C70.9147 7.85796 71.0904 8.37627 71.7932 8.37627C72.5663 8.37627 72.8738 7.94581 72.8738 6.87404V4.52846H73.7347ZM77.1391 9.10542C76.4275 9.10542 76.0585 8.81552 75.8653 8.48169V10.757H75.0043V5.61779C75.0043 5.25761 75.0043 4.87986 74.9956 4.52846H75.8389C75.8565 4.6778 75.8653 4.95014 75.8653 5.2049C76.1025 4.78322 76.5417 4.42304 77.2972 4.42304C78.325 4.42304 79.0806 5.29275 79.0806 6.65442C79.0806 8.24449 78.2196 9.10542 77.1391 9.10542ZM76.9985 8.39384C77.7804 8.39384 78.1933 7.75254 78.1933 6.68956C78.1933 5.76714 77.7892 5.15219 77.0512 5.15219C76.1727 5.15219 75.8301 5.71443 75.8301 6.75984C75.8301 7.77889 76.1112 8.39384 76.9985 8.39384Z" fill="#5A5A5A"/>
<path d="M12.0793 27.1774C12.0793 23.5386 15.0292 20.5887 18.668 20.5887H129.029C132.668 20.5887 135.617 23.5386 135.617 27.1774V66.7096C135.617 70.3485 132.668 73.2983 129.029 73.2983H18.668C15.0292 73.2983 12.0793 70.3485 12.0793 66.7096V27.1774Z" fill="white"/>
<path d="M21.0663 48.9435H20.1878V44.1909C19.9067 44.3753 19.3357 44.595 19.0194 44.6477V43.9625C19.485 43.8482 20.0472 43.5144 20.425 43.1455H21.0663V48.9435ZM24.3008 49.0489C23.1676 49.0489 22.2803 48.3989 22.2803 47.3095C22.2803 46.5013 22.8249 46.0357 23.3081 45.8424C22.8162 45.5965 22.5263 45.2011 22.5263 44.6213C22.5263 43.7077 23.1676 43.0576 24.3799 43.0576C25.4868 43.0576 26.172 43.6989 26.172 44.6125C26.172 45.2363 25.8382 45.6228 25.3814 45.8073C25.9085 45.9742 26.4004 46.5101 26.4004 47.2744C26.4004 48.3989 25.5219 49.0489 24.3008 49.0489ZM24.3447 48.3461C25.0387 48.3461 25.5219 47.986 25.5219 47.2744C25.5219 46.5628 25.0651 46.2026 24.3447 46.2026C23.5365 46.2026 23.1588 46.6594 23.1588 47.2656C23.1588 47.8893 23.598 48.3461 24.3447 48.3461ZM24.3535 43.7604C23.6595 43.7604 23.3696 44.1118 23.3696 44.6301C23.3696 45.1045 23.6771 45.4822 24.3711 45.4822C25.0212 45.4822 25.3287 45.1748 25.3287 44.6477C25.3287 44.1557 25.0124 43.7604 24.3535 43.7604ZM29.4891 46.308H31.8259V47.0811H29.4891V46.308ZM38.8002 48.9435H34.9172V48.8908C34.9172 48.0299 35.4443 47.169 36.6479 46.2641C37.5527 45.5789 37.8075 45.3593 37.8075 44.7443C37.8075 44.1821 37.5088 43.7692 36.8587 43.7692C36.1823 43.7692 35.8748 44.1294 35.7606 44.797H34.9172C35.0139 43.8219 35.6464 43.0576 36.8587 43.0576C38.1852 43.0576 38.6947 43.901 38.6947 44.7267C38.6947 45.5965 38.3258 45.9479 37.254 46.7561C36.4722 47.3534 36.0768 47.7927 35.9363 48.1968H38.9144L38.8002 48.9435ZM43.3985 43.163L43.2756 43.901H40.8773C40.8246 44.3402 40.6928 45.1572 40.6313 45.4471C40.8773 45.2011 41.2462 45.0166 41.8173 45.0166C42.889 45.0166 43.5655 45.7634 43.5655 46.9318C43.5655 48.0562 42.9681 49.0489 41.5361 49.0489C40.4819 49.0489 39.7176 48.4779 39.5683 47.4852H40.4468C40.5698 47.986 40.93 48.3549 41.5625 48.3549C42.3092 48.3549 42.6782 47.819 42.6782 47.002C42.6782 46.2817 42.3883 45.737 41.6152 45.737C40.9475 45.737 40.6664 46.0181 40.4819 46.4574L39.6825 46.3256C39.8494 45.5701 40.0778 43.9097 40.1657 43.163H43.3985ZM46.2429 44.472H47.1741C47.8418 46.5013 48.2459 47.7224 48.3513 48.1704H48.3601C48.5007 47.6785 48.8081 46.6594 49.4934 44.472H50.3631L48.773 49.1368C48.325 50.4457 47.9911 50.7884 47.0424 50.7884C46.9106 50.7884 46.7173 50.7796 46.5416 50.7532V50.0241C46.6471 50.0329 46.7788 50.0416 46.9018 50.0416C47.4465 50.0416 47.6661 49.8132 47.9121 49.1104L46.2429 44.472ZM54.7668 46.8791H51.6569C51.6569 47.7224 52.0786 48.3461 52.8166 48.3461C53.4842 48.3461 53.6951 48.0123 53.8356 47.6961H54.7053C54.5296 48.2671 54.0465 49.0489 52.7902 49.0489C51.367 49.0489 50.7784 47.9157 50.7784 46.7649C50.7784 45.4208 51.4637 44.3666 52.8341 44.3666C54.2924 44.3666 54.7756 45.5174 54.7756 46.5013C54.7756 46.6419 54.7756 46.7561 54.7668 46.8791ZM51.6833 46.2905H53.9059C53.8971 45.5965 53.5633 45.0342 52.8253 45.0342C52.0786 45.0342 51.7536 45.5525 51.6833 46.2905ZM59.1443 45.8512V47.942C59.1443 48.3461 59.1795 48.8205 59.2058 48.9435H58.38C58.3449 48.8469 58.3185 48.636 58.3098 48.3901C58.1516 48.68 57.809 49.0489 56.9569 49.0489C55.8939 49.0489 55.4459 48.3637 55.4459 47.6785C55.4459 46.677 56.2365 46.2202 57.563 46.2202C57.8529 46.2202 58.1341 46.2202 58.301 46.2202V45.86C58.301 45.4822 58.178 45.0254 57.3873 45.0254C56.6845 45.0254 56.5616 45.368 56.4825 45.7194H55.6567C55.7182 45.0694 56.1135 44.3666 57.4137 44.3666C58.5294 44.3753 59.1443 44.8234 59.1443 45.8512ZM58.301 46.9318V46.7912C58.1692 46.7912 57.8442 46.7912 57.6245 46.7912C56.7548 46.7912 56.3156 47.0372 56.3156 47.6346C56.3156 48.065 56.6143 48.3901 57.1414 48.3901C58.1692 48.3901 58.301 47.7048 58.301 46.9318ZM60.4285 48.9435V45.6931C60.4285 45.0957 60.4285 44.7355 60.4197 44.472H61.2719C61.2807 44.595 61.2982 44.9639 61.2982 45.368C61.5178 44.7795 62.0449 44.3929 62.7829 44.3666V45.2187C61.8692 45.2363 61.2982 45.6667 61.2982 46.8176V48.9435H60.4285ZM63.2424 47.6521H64.0945C64.2175 48.1177 64.5601 48.3901 65.1399 48.3901C65.7637 48.3901 66.0008 48.1265 66.0008 47.7488C66.0008 47.3534 65.7988 47.1777 64.9818 46.9845C63.6728 46.6594 63.4093 46.2553 63.4093 45.6492C63.4093 45.0079 63.8749 44.3666 65.0609 44.3666C66.2556 44.3666 66.73 45.0518 66.7827 45.6755H65.9481C65.8954 45.4032 65.6934 45.0254 65.0257 45.0254C64.4459 45.0254 64.2702 45.2978 64.2702 45.5789C64.2702 45.8864 64.4371 46.0445 65.2453 46.229C66.6246 46.5628 66.8881 47.0196 66.8881 47.6873C66.8881 48.4603 66.2732 49.0489 65.1136 49.0489C63.9188 49.0489 63.3478 48.4516 63.2424 47.6521Z" fill="#231F20"/>
<g filter="url(#filter0_d_1_480)">
<path d="M146.599 27.1774C146.599 23.5386 149.549 20.5887 153.187 20.5887H263.548C267.187 20.5887 270.137 23.5386 270.137 27.1774V66.7096C270.137 70.3485 267.187 73.2983 263.548 73.2983H153.187C149.549 73.2983 146.599 70.3485 146.599 66.7096V27.1774Z" fill="white" shape-rendering="crispEdges"/>
<path d="M263.548 20.0399C267.49 20.0399 270.686 23.2355 270.686 27.1776V66.7098C270.685 70.6518 267.49 73.8475 263.548 73.8475H153.188C149.246 73.8475 146.05 70.6518 146.05 66.7098V27.1776C146.05 23.2355 149.245 20.0399 153.188 20.0399H263.548Z" stroke="#2DA9DF" stroke-width="1.09812" shape-rendering="crispEdges"/>
<path d="M157.457 48.9435H153.574V48.8908C153.574 48.0299 154.101 47.169 155.305 46.2641C156.209 45.5789 156.464 45.3593 156.464 44.7443C156.464 44.1821 156.165 43.7692 155.515 43.7692C154.839 43.7692 154.531 44.1294 154.417 44.797H153.574C153.671 43.8219 154.303 43.0576 155.515 43.0576C156.842 43.0576 157.351 43.901 157.351 44.7267C157.351 45.5965 156.982 45.9479 155.911 46.7561C155.129 47.3534 154.734 47.7927 154.593 48.1968H157.571L157.457 48.9435ZM162.142 44.4544H161.29C161.185 44.0591 160.93 43.7516 160.359 43.7516C159.419 43.7516 159.129 44.6301 159.094 45.7722C159.331 45.3768 159.762 45.0166 160.535 45.0166C161.641 45.0166 162.318 45.8249 162.318 46.9406C162.318 48.0914 161.624 49.0489 160.333 49.0489C158.725 49.0489 158.242 47.7576 158.242 46.1323C158.242 44.5598 158.76 43.0576 160.394 43.0576C161.589 43.0576 162.072 43.8307 162.142 44.4544ZM160.315 48.3374C161.114 48.3374 161.431 47.7048 161.431 47.002C161.431 46.3783 161.193 45.7282 160.341 45.7282C159.656 45.7282 159.182 46.1587 159.182 46.9933C159.182 47.4676 159.419 48.3374 160.315 48.3374ZM165.39 46.308H167.727V47.0811H165.39V46.308ZM174.253 48.9435H173.436V47.494H170.739V46.7209L173.322 43.163H174.253V46.7649H174.991L174.903 47.494H174.253V48.9435ZM173.436 46.7649V45.3856C173.436 44.9112 173.436 44.3753 173.453 44.0064C173.225 44.4544 172.162 45.9127 171.565 46.7649H173.436ZM177.816 43.0576C179.371 43.0576 179.846 44.5071 179.846 46.0181C179.846 47.4764 179.424 49.0489 177.79 49.0489C176.182 49.0489 175.734 47.5731 175.734 46.0533C175.734 44.5598 176.226 43.0576 177.816 43.0576ZM177.816 43.7868C176.859 43.7868 176.639 44.7882 176.639 46.0533C176.639 47.1514 176.815 48.3286 177.79 48.3286C178.774 48.3286 178.941 47.2129 178.941 46.0181C178.941 44.9024 178.756 43.7868 177.816 43.7868ZM182.564 44.472H183.495C184.163 46.5013 184.567 47.7224 184.672 48.1704H184.681C184.822 47.6785 185.129 46.6594 185.814 44.472H186.684L185.094 49.1368C184.646 50.4457 184.312 50.7884 183.363 50.7884C183.232 50.7884 183.038 50.7796 182.863 50.7532V50.0241C182.968 50.0329 183.1 50.0416 183.223 50.0416C183.767 50.0416 183.987 49.8132 184.233 49.1104L182.564 44.472ZM191.088 46.8791H187.978C187.978 47.7224 188.4 48.3461 189.138 48.3461C189.805 48.3461 190.016 48.0123 190.157 47.6961H191.026C190.851 48.2671 190.367 49.0489 189.111 49.0489C187.688 49.0489 187.099 47.9157 187.099 46.7649C187.099 45.4208 187.785 44.3666 189.155 44.3666C190.613 44.3666 191.097 45.5174 191.097 46.5013C191.097 46.6419 191.097 46.7561 191.088 46.8791ZM188.004 46.2905H190.227C190.218 45.5965 189.884 45.0342 189.146 45.0342C188.4 45.0342 188.075 45.5525 188.004 46.2905ZM195.465 45.8512V47.942C195.465 48.3461 195.5 48.8205 195.527 48.9435H194.701C194.666 48.8469 194.639 48.636 194.631 48.3901C194.473 48.68 194.13 49.0489 193.278 49.0489C192.215 49.0489 191.767 48.3637 191.767 47.6785C191.767 46.677 192.557 46.2202 193.884 46.2202C194.174 46.2202 194.455 46.2202 194.622 46.2202V45.86C194.622 45.4822 194.499 45.0254 193.708 45.0254C193.005 45.0254 192.883 45.368 192.803 45.7194H191.978C192.039 45.0694 192.434 44.3666 193.735 44.3666C194.85 44.3753 195.465 44.8234 195.465 45.8512ZM194.622 46.9318V46.7912C194.49 46.7912 194.165 46.7912 193.945 46.7912C193.076 46.7912 192.637 47.0372 192.637 47.6346C192.637 48.065 192.935 48.3901 193.462 48.3901C194.49 48.3901 194.622 47.7048 194.622 46.9318ZM196.749 48.9435V45.6931C196.749 45.0957 196.749 44.7355 196.741 44.472H197.593C197.602 44.595 197.619 44.9639 197.619 45.368C197.839 44.7795 198.366 44.3929 199.104 44.3666V45.2187C198.19 45.2363 197.619 45.6667 197.619 46.8176V48.9435H196.749ZM199.563 47.6521H200.415C200.538 48.1177 200.881 48.3901 201.461 48.3901C202.085 48.3901 202.322 48.1265 202.322 47.7488C202.322 47.3534 202.12 47.1777 201.303 46.9845C199.994 46.6594 199.73 46.2553 199.73 45.6492C199.73 45.0079 200.196 44.3666 201.382 44.3666C202.577 44.3666 203.051 45.0518 203.104 45.6755H202.269C202.216 45.4032 202.014 45.0254 201.347 45.0254C200.767 45.0254 200.591 45.2978 200.591 45.5789C200.591 45.8864 200.758 46.0445 201.566 46.229C202.946 46.5628 203.209 47.0196 203.209 47.6873C203.209 48.4603 202.594 49.0489 201.435 49.0489C200.24 49.0489 199.669 48.4516 199.563 47.6521Z" fill="#231F20"/>
</g>
<rect x="281.118" y="20.5887" width="123.538" height="52.7096" rx="6.58871" fill="white"/>
<path d="M291.528 48.9435H290.711V47.494H288.014V46.7209L290.597 43.163H291.528V46.7649H292.266L292.178 47.494H291.528V48.9435ZM290.711 46.7649V45.3856C290.711 44.9112 290.711 44.3753 290.729 44.0064C290.5 44.4544 289.437 45.9127 288.84 46.7649H290.711ZM294.789 48.9435H293.911V44.1909C293.63 44.3753 293.059 44.595 292.742 44.6477V43.9625C293.208 43.8482 293.77 43.5144 294.148 43.1455H294.789V48.9435ZM298.305 46.308H300.642V47.0811H298.305V46.308ZM307.669 44.4544H306.816C306.711 44.0591 306.456 43.7516 305.885 43.7516C304.945 43.7516 304.655 44.6301 304.62 45.7722C304.857 45.3768 305.288 45.0166 306.061 45.0166C307.168 45.0166 307.844 45.8249 307.844 46.9406C307.844 48.0914 307.15 49.0489 305.859 49.0489C304.251 49.0489 303.768 47.7576 303.768 46.1323C303.768 44.5598 304.286 43.0576 305.92 43.0576C307.115 43.0576 307.598 43.8307 307.669 44.4544ZM305.841 48.3374C306.641 48.3374 306.957 47.7048 306.957 47.002C306.957 46.3783 306.72 45.7282 305.868 45.7282C305.182 45.7282 304.708 46.1587 304.708 46.9933C304.708 47.4676 304.945 48.3374 305.841 48.3374ZM310.774 43.0576C312.329 43.0576 312.804 44.5071 312.804 46.0181C312.804 47.4764 312.382 49.0489 310.748 49.0489C309.14 49.0489 308.692 47.5731 308.692 46.0533C308.692 44.5598 309.184 43.0576 310.774 43.0576ZM310.774 43.7868C309.817 43.7868 309.597 44.7882 309.597 46.0533C309.597 47.1514 309.773 48.3286 310.748 48.3286C311.732 48.3286 311.899 47.2129 311.899 46.0181C311.899 44.9024 311.714 43.7868 310.774 43.7868ZM315.935 44.0503H316.699V46.0972H318.729V46.8527H316.699V48.9435H315.935V46.8527H313.897V46.0972H315.935V44.0503ZM321.682 44.472H322.613C323.28 46.5013 323.685 47.7224 323.79 48.1704H323.799C323.939 47.6785 324.247 46.6594 324.932 44.472H325.802L324.212 49.1368C323.764 50.4457 323.43 50.7884 322.481 50.7884C322.349 50.7884 322.156 50.7796 321.98 50.7532V50.0241C322.086 50.0329 322.218 50.0416 322.34 50.0416C322.885 50.0416 323.105 49.8132 323.351 49.1104L321.682 44.472ZM330.205 46.8791H327.096C327.096 47.7224 327.517 48.3461 328.255 48.3461C328.923 48.3461 329.134 48.0123 329.274 47.6961H330.144C329.968 48.2671 329.485 49.0489 328.229 49.0489C326.806 49.0489 326.217 47.9157 326.217 46.7649C326.217 45.4208 326.902 44.3666 328.273 44.3666C329.731 44.3666 330.214 45.5174 330.214 46.5013C330.214 46.6419 330.214 46.7561 330.205 46.8791ZM327.122 46.2905H329.345C329.336 45.5965 329.002 45.0342 328.264 45.0342C327.517 45.0342 327.192 45.5525 327.122 46.2905ZM334.583 45.8512V47.942C334.583 48.3461 334.618 48.8205 334.645 48.9435H333.819C333.784 48.8469 333.757 48.636 333.748 48.3901C333.59 48.68 333.248 49.0489 332.396 49.0489C331.333 49.0489 330.885 48.3637 330.885 47.6785C330.885 46.677 331.675 46.2202 333.002 46.2202C333.292 46.2202 333.573 46.2202 333.74 46.2202V45.86C333.74 45.4822 333.617 45.0254 332.826 45.0254C332.123 45.0254 332 45.368 331.921 45.7194H331.095C331.157 45.0694 331.552 44.3666 332.852 44.3666C333.968 44.3753 334.583 44.8234 334.583 45.8512ZM333.74 46.9318V46.7912C333.608 46.7912 333.283 46.7912 333.063 46.7912C332.194 46.7912 331.754 47.0372 331.754 47.6346C331.754 48.065 332.053 48.3901 332.58 48.3901C333.608 48.3901 333.74 47.7048 333.74 46.9318ZM335.867 48.9435V45.6931C335.867 45.0957 335.867 44.7355 335.858 44.472H336.711C336.719 44.595 336.737 44.9639 336.737 45.368C336.957 44.7795 337.484 44.3929 338.222 44.3666V45.2187C337.308 45.2363 336.737 45.6667 336.737 46.8176V48.9435H335.867ZM338.681 47.6521H339.533C339.656 48.1177 339.999 48.3901 340.579 48.3901C341.202 48.3901 341.44 48.1265 341.44 47.7488C341.44 47.3534 341.237 47.1777 340.42 46.9845C339.112 46.6594 338.848 46.2553 338.848 45.6492C338.848 45.0079 339.314 44.3666 340.5 44.3666C341.694 44.3666 342.169 45.0518 342.221 45.6755H341.387C341.334 45.4032 341.132 45.0254 340.464 45.0254C339.885 45.0254 339.709 45.2978 339.709 45.5789C339.709 45.8864 339.876 46.0445 340.684 46.229C342.063 46.5628 342.327 47.0196 342.327 47.6873C342.327 48.4603 341.712 49.0489 340.552 49.0489C339.357 49.0489 338.786 48.4516 338.681 47.6521Z" fill="#231F20"/>
<rect x="12.0793" y="79.887" width="123.538" height="52.7096" rx="6.58871" fill="white"/>
<path d="M22.4895 108.242H21.6725V106.792H18.9755V106.019L21.5583 102.461H22.4895V106.063H23.2274L23.1396 106.792H22.4895V108.242ZM21.6725 106.063V104.684C21.6725 104.21 21.6725 103.674 21.69 103.305C21.4616 103.753 20.3986 105.211 19.8013 106.063H21.6725ZM27.8803 103.753H27.0281C26.9227 103.357 26.6679 103.05 26.0969 103.05C25.1569 103.05 24.867 103.928 24.8319 105.07C25.0691 104.675 25.4995 104.315 26.2726 104.315C27.3795 104.315 28.056 105.123 28.056 106.239C28.056 107.39 27.362 108.347 26.0706 108.347C24.4629 108.347 23.9797 107.056 23.9797 105.431C23.9797 103.858 24.4981 102.356 26.1321 102.356C27.3268 102.356 27.81 103.129 27.8803 103.753ZM26.053 107.636C26.8524 107.636 27.1687 107.003 27.1687 106.3C27.1687 105.677 26.9315 105.027 26.0794 105.027C25.3941 105.027 24.9197 105.457 24.9197 106.292C24.9197 106.766 25.1569 107.636 26.053 107.636ZM31.1277 105.606H33.4645V106.379H31.1277V105.606ZM40.4388 102.461L40.3158 103.199H37.9175C37.8648 103.639 37.733 104.456 37.6715 104.745C37.9175 104.499 38.2865 104.315 38.8575 104.315C39.9292 104.315 40.6057 105.062 40.6057 106.23C40.6057 107.355 40.0083 108.347 38.5764 108.347C37.5222 108.347 36.7579 107.776 36.6085 106.784H37.487C37.61 107.284 37.9702 107.653 38.6027 107.653C39.3494 107.653 39.7184 107.117 39.7184 106.3C39.7184 105.58 39.4285 105.035 38.6554 105.035C37.9878 105.035 37.7066 105.316 37.5222 105.756L36.7227 105.624C36.8896 104.868 37.1181 103.208 37.2059 102.461H40.4388ZM45.3031 102.461L45.1801 103.199H42.7818C42.7291 103.639 42.5973 104.456 42.5358 104.745C42.7818 104.499 43.1508 104.315 43.7218 104.315C44.7936 104.315 45.47 105.062 45.47 106.23C45.47 107.355 44.8726 108.347 43.4407 108.347C42.3865 108.347 41.6222 107.776 41.4729 106.784H42.3513C42.4743 107.284 42.8345 107.653 43.467 107.653C44.2138 107.653 44.5827 107.117 44.5827 106.3C44.5827 105.58 44.2928 105.035 43.5197 105.035C42.8521 105.035 42.571 105.316 42.3865 105.756L41.5871 105.624C41.754 104.868 41.9824 103.208 42.0702 102.461H45.3031ZM48.1475 103.77H49.0787C49.7464 105.8 50.1505 107.021 50.2559 107.469H50.2647C50.4052 106.977 50.7127 105.958 51.3979 103.77H52.2676L50.6776 108.435C50.2295 109.744 49.8957 110.087 48.9469 110.087C48.8151 110.087 48.6219 110.078 48.4462 110.052V109.322C48.5516 109.331 48.6834 109.34 48.8064 109.34C49.351 109.34 49.5707 109.112 49.8166 108.409L48.1475 103.77ZM56.6714 106.177H53.5615C53.5615 107.021 53.9832 107.644 54.7211 107.644C55.3888 107.644 55.5996 107.311 55.7402 106.994H56.6099C56.4342 107.565 55.951 108.347 54.6948 108.347C53.2716 108.347 52.683 107.214 52.683 106.063C52.683 104.719 53.3682 103.665 54.7387 103.665C56.197 103.665 56.6802 104.816 56.6802 105.8C56.6802 105.94 56.6802 106.054 56.6714 106.177ZM53.5878 105.589H55.8104C55.8017 104.895 55.4678 104.333 54.7299 104.333C53.9832 104.333 53.6581 104.851 53.5878 105.589ZM61.0489 105.15V107.24C61.0489 107.644 61.084 108.119 61.1104 108.242H60.2846C60.2494 108.145 60.2231 107.934 60.2143 107.688C60.0562 107.978 59.7136 108.347 58.8614 108.347C57.7984 108.347 57.3504 107.662 57.3504 106.977C57.3504 105.975 58.1411 105.519 59.4676 105.519C59.7575 105.519 60.0386 105.519 60.2055 105.519V105.158C60.2055 104.781 60.0825 104.324 59.2919 104.324C58.5891 104.324 58.4661 104.666 58.387 105.018H57.5613C57.6227 104.368 58.0181 103.665 59.3182 103.665C60.4339 103.674 61.0489 104.122 61.0489 105.15ZM60.2055 106.23V106.09C60.0737 106.09 59.7487 106.09 59.5291 106.09C58.6594 106.09 58.2201 106.336 58.2201 106.933C58.2201 107.363 58.5188 107.688 59.0459 107.688C60.0737 107.688 60.2055 107.003 60.2055 106.23ZM62.3331 108.242V104.991C62.3331 104.394 62.3331 104.034 62.3243 103.77H63.1764C63.1852 103.893 63.2028 104.262 63.2028 104.666C63.4224 104.078 63.9495 103.691 64.6874 103.665V104.517C63.7738 104.535 63.2028 104.965 63.2028 106.116V108.242H62.3331ZM65.1469 106.95H65.9991C66.1221 107.416 66.4647 107.688 67.0445 107.688C67.6682 107.688 67.9054 107.425 67.9054 107.047C67.9054 106.652 67.7033 106.476 66.8863 106.283C65.5774 105.958 65.3138 105.554 65.3138 104.947C65.3138 104.306 65.7794 103.665 66.9654 103.665C68.1602 103.665 68.6345 104.35 68.6873 104.974H67.8527C67.8 104.702 67.5979 104.324 66.9303 104.324C66.3505 104.324 66.1748 104.596 66.1748 104.877C66.1748 105.185 66.3417 105.343 67.1499 105.527C68.5291 105.861 68.7927 106.318 68.7927 106.986C68.7927 107.759 68.1777 108.347 67.0181 108.347C65.8234 108.347 65.2523 107.75 65.1469 106.95Z" fill="#231F20"/>
<rect x="146.599" y="79.887" width="123.538" height="52.7096" rx="6.58871" fill="white"/>
<path d="M157.457 102.461L157.334 103.199H154.936C154.883 103.639 154.751 104.456 154.69 104.745C154.936 104.499 155.305 104.315 155.876 104.315C156.947 104.315 157.624 105.062 157.624 106.23C157.624 107.355 157.026 108.347 155.594 108.347C154.54 108.347 153.776 107.776 153.627 106.784H154.505C154.628 107.284 154.988 107.653 155.621 107.653C156.368 107.653 156.736 107.117 156.736 106.3C156.736 105.58 156.447 105.035 155.673 105.035C155.006 105.035 154.725 105.316 154.54 105.756L153.741 105.624C153.908 104.868 154.136 103.208 154.224 102.461H157.457ZM162.4 103.753H161.547C161.442 103.357 161.187 103.05 160.616 103.05C159.676 103.05 159.386 103.928 159.351 105.07C159.588 104.675 160.019 104.315 160.792 104.315C161.899 104.315 162.575 105.123 162.575 106.239C162.575 107.39 161.881 108.347 160.59 108.347C158.982 108.347 158.499 107.056 158.499 105.431C158.499 103.858 159.017 102.356 160.651 102.356C161.846 102.356 162.329 103.129 162.4 103.753ZM160.572 107.636C161.372 107.636 161.688 107.003 161.688 106.3C161.688 105.677 161.451 105.027 160.599 105.027C159.913 105.027 159.439 105.457 159.439 106.292C159.439 106.766 159.676 107.636 160.572 107.636ZM165.647 105.606H167.984V106.379H165.647V105.606ZM175.011 103.753H174.159C174.053 103.357 173.798 103.05 173.227 103.05C172.287 103.05 171.998 103.928 171.962 105.07C172.2 104.675 172.63 104.315 173.403 104.315C174.51 104.315 175.187 105.123 175.187 106.239C175.187 107.39 174.493 108.347 173.201 108.347C171.593 108.347 171.11 107.056 171.11 105.431C171.11 103.858 171.629 102.356 173.263 102.356C174.457 102.356 174.941 103.129 175.011 103.753ZM173.184 107.636C173.983 107.636 174.299 107.003 174.299 106.3C174.299 105.677 174.062 105.027 173.21 105.027C172.525 105.027 172.05 105.457 172.05 106.292C172.05 106.766 172.287 107.636 173.184 107.636ZM179.891 102.461L179.768 103.199H177.37C177.317 103.639 177.185 104.456 177.124 104.745C177.37 104.499 177.739 104.315 178.31 104.315C179.382 104.315 180.058 105.062 180.058 106.23C180.058 107.355 179.461 108.347 178.029 108.347C176.974 108.347 176.21 107.776 176.061 106.784H176.939C177.062 107.284 177.422 107.653 178.055 107.653C178.802 107.653 179.171 107.117 179.171 106.3C179.171 105.58 178.881 105.035 178.108 105.035C177.44 105.035 177.159 105.316 176.974 105.756L176.175 105.624C176.342 104.868 176.57 103.208 176.658 102.461H179.891ZM182.735 103.77H183.667C184.334 105.8 184.738 107.021 184.844 107.469H184.853C184.993 106.977 185.301 105.958 185.986 103.77H186.856L185.266 108.435C184.818 109.744 184.484 110.087 183.535 110.087C183.403 110.087 183.21 110.078 183.034 110.052V109.322C183.14 109.331 183.271 109.34 183.394 109.34C183.939 109.34 184.159 109.112 184.405 108.409L182.735 103.77ZM191.259 106.177H188.149C188.149 107.021 188.571 107.644 189.309 107.644C189.977 107.644 190.188 107.311 190.328 106.994H191.198C191.022 107.565 190.539 108.347 189.283 108.347C187.86 108.347 187.271 107.214 187.271 106.063C187.271 104.719 187.956 103.665 189.327 103.665C190.785 103.665 191.268 104.816 191.268 105.8C191.268 105.94 191.268 106.054 191.259 106.177ZM188.176 105.589H190.398C190.39 104.895 190.056 104.333 189.318 104.333C188.571 104.333 188.246 104.851 188.176 105.589ZM195.637 105.15V107.24C195.637 107.644 195.672 108.119 195.698 108.242H194.873C194.837 108.145 194.811 107.934 194.802 107.688C194.644 107.978 194.302 108.347 193.449 108.347C192.386 108.347 191.938 107.662 191.938 106.977C191.938 105.975 192.729 105.519 194.056 105.519C194.345 105.519 194.627 105.519 194.794 105.519V105.158C194.794 104.781 194.671 104.324 193.88 104.324C193.177 104.324 193.054 104.666 192.975 105.018H192.149C192.211 104.368 192.606 103.665 193.906 103.665C195.022 103.674 195.637 104.122 195.637 105.15ZM194.794 106.23V106.09C194.662 106.09 194.337 106.09 194.117 106.09C193.247 106.09 192.808 106.336 192.808 106.933C192.808 107.363 193.107 107.688 193.634 107.688C194.662 107.688 194.794 107.003 194.794 106.23ZM196.921 108.242V104.991C196.921 104.394 196.921 104.034 196.912 103.77H197.764C197.773 103.893 197.791 104.262 197.791 104.666C198.01 104.078 198.537 103.691 199.275 103.665V104.517C198.362 104.535 197.791 104.965 197.791 106.116V108.242H196.921ZM199.735 106.95H200.587C200.71 107.416 201.053 107.688 201.632 107.688C202.256 107.688 202.493 107.425 202.493 107.047C202.493 106.652 202.291 106.476 201.474 106.283C200.165 105.958 199.902 105.554 199.902 104.947C199.902 104.306 200.367 103.665 201.553 103.665C202.748 103.665 203.223 104.35 203.275 104.974H202.441C202.388 104.702 202.186 104.324 201.518 104.324C200.938 104.324 200.763 104.596 200.763 104.877C200.763 105.185 200.93 105.343 201.738 105.527C203.117 105.861 203.381 106.318 203.381 106.986C203.381 107.759 202.766 108.347 201.606 108.347C200.411 108.347 199.84 107.75 199.735 106.95Z" fill="#231F20"/>
<rect x="281.118" y="79.887" width="123.538" height="52.7096" rx="6.58871" fill="white"/>
<path d="M292.029 103.753H291.177C291.071 103.357 290.817 103.05 290.246 103.05C289.306 103.05 289.016 103.928 288.981 105.07C289.218 104.675 289.648 104.315 290.421 104.315C291.528 104.315 292.205 105.123 292.205 106.239C292.205 107.39 291.511 108.347 290.219 108.347C288.612 108.347 288.128 107.056 288.128 105.431C288.128 103.858 288.647 102.356 290.281 102.356C291.475 102.356 291.959 103.129 292.029 103.753ZM290.202 107.636C291.001 107.636 291.317 107.003 291.317 106.3C291.317 105.677 291.08 105.027 290.228 105.027C289.543 105.027 289.068 105.457 289.068 106.292C289.068 106.766 289.306 107.636 290.202 107.636ZM296.979 103.753H296.127C296.021 103.357 295.767 103.05 295.196 103.05C294.256 103.05 293.966 103.928 293.931 105.07C294.168 104.675 294.598 104.315 295.371 104.315C296.478 104.315 297.155 105.123 297.155 106.239C297.155 107.39 296.461 108.347 295.169 108.347C293.562 108.347 293.079 107.056 293.079 105.431C293.079 103.858 293.597 102.356 295.231 102.356C296.426 102.356 296.909 103.129 296.979 103.753ZM295.152 107.636C295.951 107.636 296.267 107.003 296.267 106.3C296.267 105.677 296.03 105.027 295.178 105.027C294.493 105.027 294.019 105.457 294.019 106.292C294.019 106.766 294.256 107.636 295.152 107.636ZM300.158 103.349H300.922V105.396H302.952V106.151H300.922V108.242H300.158V106.151H298.12V105.396H300.158V103.349ZM305.905 103.77H306.836C307.504 105.8 307.908 107.021 308.013 107.469H308.022C308.162 106.977 308.47 105.958 309.155 103.77H310.025L308.435 108.435C307.987 109.744 307.653 110.087 306.704 110.087C306.572 110.087 306.379 110.078 306.203 110.052V109.322C306.309 109.331 306.441 109.34 306.564 109.34C307.108 109.34 307.328 109.112 307.574 108.409L305.905 103.77ZM314.429 106.177H311.319C311.319 107.021 311.74 107.644 312.478 107.644C313.146 107.644 313.357 107.311 313.497 106.994H314.367C314.191 107.565 313.708 108.347 312.452 108.347C311.029 108.347 310.44 107.214 310.44 106.063C310.44 104.719 311.125 103.665 312.496 103.665C313.954 103.665 314.437 104.816 314.437 105.8C314.437 105.94 314.437 106.054 314.429 106.177ZM311.345 105.589H313.568C313.559 104.895 313.225 104.333 312.487 104.333C311.74 104.333 311.415 104.851 311.345 105.589ZM318.806 105.15V107.24C318.806 107.644 318.841 108.119 318.868 108.242H318.042C318.007 108.145 317.98 107.934 317.972 107.688C317.813 107.978 317.471 108.347 316.619 108.347C315.556 108.347 315.108 107.662 315.108 106.977C315.108 105.975 315.898 105.519 317.225 105.519C317.515 105.519 317.796 105.519 317.963 105.519V105.158C317.963 104.781 317.84 104.324 317.049 104.324C316.346 104.324 316.223 104.666 316.144 105.018H315.319C315.38 104.368 315.775 103.665 317.075 103.665C318.191 103.674 318.806 104.122 318.806 105.15ZM317.963 106.23V106.09C317.831 106.09 317.506 106.09 317.286 106.09C316.417 106.09 315.977 106.336 315.977 106.933C315.977 107.363 316.276 107.688 316.803 107.688C317.831 107.688 317.963 107.003 317.963 106.23ZM320.09 108.242V104.991C320.09 104.394 320.09 104.034 320.082 103.77H320.934C320.942 103.893 320.96 104.262 320.96 104.666C321.18 104.078 321.707 103.691 322.445 103.665V104.517C321.531 104.535 320.96 104.965 320.96 106.116V108.242H320.09ZM322.904 106.95H323.756C323.879 107.416 324.222 107.688 324.802 107.688C325.425 107.688 325.663 107.425 325.663 107.047C325.663 106.652 325.461 106.476 324.644 106.283C323.335 105.958 323.071 105.554 323.071 104.947C323.071 104.306 323.537 103.665 324.723 103.665C325.917 103.665 326.392 104.35 326.445 104.974H325.61C325.557 104.702 325.355 104.324 324.688 104.324C324.108 104.324 323.932 104.596 323.932 104.877C323.932 105.185 324.099 105.343 324.907 105.527C326.286 105.861 326.55 106.318 326.55 106.986C326.55 107.759 325.935 108.347 324.775 108.347C323.581 108.347 323.01 107.75 322.904 106.95Z" fill="#231F20"/>
<path d="M12.4219 159.65H13.3443C13.5025 160.361 13.9944 160.73 14.8466 160.73C15.7514 160.73 16.1116 160.317 16.1116 159.764C16.1116 159.175 15.8129 158.859 14.6182 158.569C13.1423 158.218 12.6591 157.699 12.6591 156.847C12.6591 155.916 13.3531 155.178 14.7324 155.178C16.217 155.178 16.8232 156.022 16.9022 156.839H15.9886C15.8832 156.329 15.5669 155.89 14.6972 155.89C13.9944 155.89 13.5991 156.206 13.5991 156.759C13.5991 157.304 13.9241 157.524 14.9783 157.77C16.7265 158.191 17.0428 158.868 17.0428 159.667C17.0428 160.678 16.2961 161.442 14.7851 161.442C13.2477 161.442 12.5537 160.625 12.4219 159.65ZM21.8061 159.298H18.6962C18.6962 160.142 19.1179 160.765 19.8558 160.765C20.5235 160.765 20.7343 160.432 20.8749 160.115H21.7446C21.5689 160.686 21.0857 161.468 19.8295 161.468C18.4063 161.468 17.8177 160.335 17.8177 159.184C17.8177 157.84 18.503 156.786 19.8734 156.786C21.3317 156.786 21.8149 157.937 21.8149 158.921C21.8149 159.061 21.8149 159.175 21.8061 159.298ZM18.7226 158.71H20.9452C20.9364 158.016 20.6026 157.453 19.8646 157.453C19.1179 157.453 18.7929 157.972 18.7226 158.71ZM23.6619 161.363H22.7922V154.923H23.6619V161.363ZM28.6179 159.298H25.508C25.508 160.142 25.9297 160.765 26.6676 160.765C27.3353 160.765 27.5461 160.432 27.6867 160.115H28.5564C28.3807 160.686 27.8975 161.468 26.6413 161.468C25.2181 161.468 24.6295 160.335 24.6295 159.184C24.6295 157.84 25.3147 156.786 26.6852 156.786C28.1435 156.786 28.6267 157.937 28.6267 158.921C28.6267 159.061 28.6267 159.175 28.6179 159.298ZM25.5344 158.71H27.7569C27.7482 158.016 27.4143 157.453 26.6764 157.453C25.9297 157.453 25.6046 157.972 25.5344 158.71ZM32.3878 159.984H33.2487C33.0642 160.748 32.5459 161.468 31.3687 161.468C30.1037 161.468 29.3482 160.572 29.3482 159.158C29.3482 157.884 30.0861 156.786 31.4214 156.786C32.7568 156.786 33.196 157.743 33.2487 158.306H32.3966C32.2911 157.866 32.0188 157.497 31.4039 157.497C30.6571 157.497 30.2355 158.139 30.2355 159.131C30.2355 160.133 30.6484 160.765 31.3863 160.765C31.9134 160.765 32.2209 160.476 32.3878 159.984ZM33.6834 157.585V156.891H34.4389V155.6H35.2999V156.891H36.2662V157.585H35.2999V160.124C35.2999 160.537 35.4053 160.748 35.8094 160.748C35.906 160.748 36.0554 160.739 36.1784 160.713V161.345C35.9763 161.416 35.6952 161.424 35.4756 161.424C34.7464 161.424 34.4389 161.047 34.4389 160.3V157.585H33.6834ZM44.4724 158.051V161.363H43.7872C43.7433 161.24 43.7169 160.976 43.7082 160.581C43.427 161.02 42.8912 161.451 41.837 161.451C40.0712 161.451 39.1224 160.115 39.1224 158.385C39.1224 156.549 40.1415 155.178 41.9951 155.178C43.4446 155.178 44.3407 155.969 44.5076 157.049H43.6027C43.4183 156.417 42.9526 155.916 41.9775 155.916C40.5895 155.916 40.0712 157.032 40.0712 158.341C40.0712 159.553 40.6071 160.704 41.9512 160.704C43.2777 160.704 43.5939 159.817 43.5939 158.877V158.815H41.9424V158.051H44.4724ZM49.4736 159.298H46.3637C46.3637 160.142 46.7854 160.765 47.5233 160.765C48.191 160.765 48.4018 160.432 48.5423 160.115H49.4121C49.2364 160.686 48.7532 161.468 47.4969 161.468C46.0738 161.468 45.4852 160.335 45.4852 159.184C45.4852 157.84 46.1704 156.786 47.5409 156.786C48.9992 156.786 49.4823 157.937 49.4823 158.921C49.4823 159.061 49.4823 159.175 49.4736 159.298ZM46.39 158.71H48.6126C48.6038 158.016 48.27 157.453 47.5321 157.453C46.7854 157.453 46.4603 157.972 46.39 158.71ZM50.4599 161.363V158.025C50.4599 157.638 50.4599 157.243 50.4511 156.891H51.2857C51.312 157.023 51.3208 157.462 51.3208 157.594C51.4965 157.234 51.8567 156.786 52.7088 156.786C53.561 156.786 54.2023 157.322 54.2023 158.499V161.363H53.3413V158.604C53.3413 157.963 53.0954 157.524 52.4365 157.524C51.6546 157.524 51.3208 158.095 51.3208 158.973V161.363H50.4599ZM58.404 154.923H59.2649V160.107C59.2649 160.528 59.2649 160.941 59.2737 161.363H58.4479C58.4304 161.249 58.4128 160.924 58.404 160.765C58.1844 161.205 57.7451 161.468 57.0248 161.468C55.8827 161.468 55.1711 160.546 55.1711 159.175C55.1711 157.796 55.9354 156.786 57.1741 156.786C57.9384 156.786 58.2898 157.093 58.404 157.331V154.923ZM57.2795 157.506C56.5152 157.506 56.0584 158.112 56.0584 159.149C56.0584 160.194 56.5416 160.757 57.2268 160.757C58.2371 160.757 58.4391 159.992 58.4391 159.079C58.4391 158.13 58.2547 157.506 57.2795 157.506ZM64.2209 159.298H61.1111C61.1111 160.142 61.5327 160.765 62.2707 160.765C62.9383 160.765 63.1492 160.432 63.2897 160.115H64.1594C63.9838 160.686 63.5006 161.468 62.2443 161.468C60.8212 161.468 60.2326 160.335 60.2326 159.184C60.2326 157.84 60.9178 156.786 62.2883 156.786C63.7466 156.786 64.2297 157.937 64.2297 158.921C64.2297 159.061 64.2297 159.175 64.2209 159.298ZM61.1374 158.71H63.36C63.3512 158.016 63.0174 157.453 62.2795 157.453C61.5327 157.453 61.2077 157.972 61.1374 158.71ZM65.1985 161.363V158.112C65.1985 157.515 65.1985 157.155 65.1897 156.891H66.0418C66.0506 157.014 66.0682 157.383 66.0682 157.787C66.2878 157.199 66.8149 156.812 67.5528 156.786V157.638C66.6392 157.656 66.0682 158.086 66.0682 159.237V161.363H65.1985Z" fill="#5A5A5A"/>
<rect x="12.0793" y="172.952" width="123.538" height="52.7096" rx="6.58871" fill="white"/>
<path d="M24.6506 201.306V198.767C24.6506 197.652 24.6593 196.501 24.6857 195.851H24.6506C24.387 196.887 23.4734 199.391 22.7969 201.306H21.9887C21.4792 199.725 20.5304 196.914 20.2581 195.833H20.2317C20.2757 196.545 20.302 197.88 20.302 198.926V201.306H19.4499V195.21H20.8028C21.4528 197.046 22.2435 199.409 22.4455 200.208H22.4631C22.6037 199.576 23.5437 197.002 24.2201 195.21H25.5291V201.306H24.6506ZM30.2158 198.214V200.305C30.2158 200.709 30.2509 201.183 30.2773 201.306H29.4515C29.4163 201.21 29.39 200.999 29.3812 200.753C29.2231 201.043 28.8804 201.412 28.0283 201.412C26.9653 201.412 26.5173 200.727 26.5173 200.041C26.5173 199.04 27.3079 198.583 28.6345 198.583C28.9244 198.583 29.2055 198.583 29.3724 198.583V198.223C29.3724 197.845 29.2494 197.388 28.4588 197.388C27.756 197.388 27.633 197.731 27.5539 198.082H26.7281C26.7896 197.432 27.185 196.729 28.4851 196.729C29.6008 196.738 30.2158 197.186 30.2158 198.214ZM29.3724 199.295V199.154C29.2406 199.154 28.9156 199.154 28.696 199.154C27.8263 199.154 27.387 199.4 27.387 199.997C27.387 200.428 27.6857 200.753 28.2128 200.753C29.2406 200.753 29.3724 200.068 29.3724 199.295ZM32.3697 201.306H31.4999V194.867H32.3697V201.306ZM37.3256 199.242H34.2157C34.2157 200.085 34.6374 200.709 35.3753 200.709C36.043 200.709 36.2538 200.375 36.3944 200.059H37.2641C37.0884 200.63 36.6052 201.412 35.349 201.412C33.9258 201.412 33.3372 200.278 33.3372 199.128C33.3372 197.784 34.0225 196.729 35.3929 196.729C36.8512 196.729 37.3344 197.88 37.3344 198.864C37.3344 199.005 37.3344 199.119 37.3256 199.242ZM34.2421 198.653H36.4647C36.4559 197.959 36.1221 197.397 35.3841 197.397C34.6374 197.397 34.3124 197.915 34.2421 198.653Z" fill="#231F20"/>
<g filter="url(#filter1_d_1_480)">
<path d="M146.599 179.54C146.599 175.901 149.549 172.952 153.187 172.952H263.548C267.187 172.952 270.137 175.901 270.137 179.54V219.072C270.137 222.711 267.187 225.661 263.548 225.661H153.187C149.549 225.661 146.599 222.711 146.599 219.072V179.54Z" fill="white" shape-rendering="crispEdges"/>
<path d="M263.548 172.403C267.49 172.403 270.686 175.598 270.686 179.54V219.073C270.685 223.015 267.49 226.21 263.548 226.21H153.188C149.246 226.21 146.05 223.015 146.05 219.073V179.54C146.05 175.598 149.245 172.403 153.188 172.403H263.548Z" stroke="#2DA9DF" stroke-width="1.09812" shape-rendering="crispEdges"/>
<path d="M153.969 201.306V195.21H157.958V195.974H154.865V197.863H157.764V198.627H154.865V201.306H153.969ZM162.52 199.242H159.41C159.41 200.085 159.831 200.709 160.569 200.709C161.237 200.709 161.448 200.375 161.588 200.059H162.458C162.282 200.63 161.799 201.412 160.543 201.412C159.12 201.412 158.531 200.278 158.531 199.128C158.531 197.784 159.216 196.729 160.587 196.729C162.045 196.729 162.528 197.88 162.528 198.864C162.528 199.005 162.528 199.119 162.52 199.242ZM159.436 198.653H161.659C161.65 197.959 161.316 197.397 160.578 197.397C159.831 197.397 159.506 197.915 159.436 198.653ZM163.497 201.306V197.994C163.497 197.608 163.497 197.204 163.488 196.835H164.323C164.332 196.967 164.358 197.283 164.358 197.494C164.56 197.107 164.947 196.729 165.641 196.729C166.282 196.729 166.695 197.054 166.87 197.511C167.108 197.098 167.529 196.729 168.285 196.729C169.023 196.729 169.69 197.169 169.69 198.372V201.306H168.847V198.478C168.847 197.977 168.671 197.459 168.004 197.459C167.318 197.459 167.02 197.968 167.02 198.741V201.306H166.176V198.504C166.176 197.95 166.027 197.467 165.359 197.467C164.683 197.467 164.358 197.994 164.358 198.829V201.306H163.497ZM174.326 198.214V200.305C174.326 200.709 174.362 201.183 174.388 201.306H173.562C173.527 201.21 173.501 200.999 173.492 200.753C173.334 201.043 172.991 201.412 172.139 201.412C171.076 201.412 170.628 200.727 170.628 200.041C170.628 199.04 171.419 198.583 172.745 198.583C173.035 198.583 173.316 198.583 173.483 198.583V198.223C173.483 197.845 173.36 197.388 172.569 197.388C171.867 197.388 171.744 197.731 171.665 198.082H170.839C170.9 197.432 171.296 196.729 172.596 196.729C173.712 196.738 174.326 197.186 174.326 198.214ZM173.483 199.295V199.154C173.351 199.154 173.026 199.154 172.807 199.154C171.937 199.154 171.498 199.4 171.498 199.997C171.498 200.428 171.796 200.753 172.324 200.753C173.351 200.753 173.483 200.068 173.483 199.295ZM176.48 201.306H175.611V194.867H176.48V201.306ZM181.436 199.242H178.326C178.326 200.085 178.748 200.709 179.486 200.709C180.154 200.709 180.365 200.375 180.505 200.059H181.375C181.199 200.63 180.716 201.412 179.46 201.412C178.037 201.412 177.448 200.278 177.448 199.128C177.448 197.784 178.133 196.729 179.504 196.729C180.962 196.729 181.445 197.88 181.445 198.864C181.445 199.005 181.445 199.119 181.436 199.242ZM178.353 198.653H180.575C180.567 197.959 180.233 197.397 179.495 197.397C178.748 197.397 178.423 197.915 178.353 198.653Z" fill="#231F20"/>
</g>
<path d="M281.118 179.54C281.118 175.901 284.068 172.952 287.707 172.952H398.067C401.706 172.952 404.656 175.901 404.656 179.54V219.072C404.656 222.711 401.706 225.661 398.067 225.661H287.707C284.068 225.661 281.118 222.711 281.118 219.072V179.54Z" fill="white"/>
<path d="M291.054 195.122C292.784 195.122 293.865 196.404 293.865 198.232C293.865 199.91 292.916 201.394 290.975 201.394C289.165 201.394 288.155 200.006 288.155 198.258C288.155 196.51 289.2 195.122 291.054 195.122ZM291.019 195.886C289.683 195.886 289.104 196.949 289.104 198.232C289.104 199.532 289.745 200.639 291.019 200.639C292.389 200.639 292.925 199.505 292.925 198.24C292.925 196.958 292.319 195.886 291.019 195.886ZM294.555 197.529V196.835H295.31V195.543H296.171V196.835H297.138V197.529H296.171V200.068C296.171 200.481 296.277 200.691 296.681 200.691C296.777 200.691 296.927 200.683 297.05 200.656V201.289C296.848 201.359 296.567 201.368 296.347 201.368C295.618 201.368 295.31 200.99 295.31 200.243V197.529H294.555ZM297.931 194.867H298.8V197.476C299.02 197.098 299.415 196.729 300.171 196.729C300.909 196.729 301.673 197.142 301.673 198.451V201.306H300.821V198.592C300.821 197.863 300.513 197.467 299.89 197.467C299.108 197.467 298.8 197.994 298.8 198.882V201.306H297.931V194.867ZM306.639 199.242H303.529C303.529 200.085 303.951 200.709 304.689 200.709C305.356 200.709 305.567 200.375 305.708 200.059H306.577C306.402 200.63 305.918 201.412 304.662 201.412C303.239 201.412 302.65 200.278 302.65 199.128C302.65 197.784 303.336 196.729 304.706 196.729C306.164 196.729 306.648 197.88 306.648 198.864C306.648 199.005 306.648 199.119 306.639 199.242ZM303.555 198.653H305.778C305.769 197.959 305.435 197.397 304.697 197.397C303.951 197.397 303.626 197.915 303.555 198.653ZM307.616 201.306V198.056C307.616 197.459 307.616 197.098 307.608 196.835H308.46C308.469 196.958 308.486 197.327 308.486 197.731C308.706 197.142 309.233 196.756 309.971 196.729V197.582C309.057 197.599 308.486 198.03 308.486 199.18V201.306H307.616Z" fill="#231F20"/>
<path d="M12.4219 252.714H13.3443C13.5025 253.426 13.9944 253.795 14.8466 253.795C15.7514 253.795 16.1116 253.382 16.1116 252.828C16.1116 252.24 15.8129 251.924 14.6182 251.634C13.1423 251.282 12.6591 250.764 12.6591 249.912C12.6591 248.981 13.3531 248.243 14.7324 248.243C16.217 248.243 16.8232 249.086 16.9022 249.903H15.9886C15.8832 249.393 15.5669 248.954 14.6972 248.954C13.9944 248.954 13.5991 249.27 13.5991 249.824C13.5991 250.369 13.9241 250.588 14.9783 250.834C16.7265 251.256 17.0428 251.932 17.0428 252.732C17.0428 253.742 16.2961 254.506 14.7851 254.506C13.2477 254.506 12.5537 253.689 12.4219 252.714ZM21.8061 252.363H18.6962C18.6962 253.206 19.1179 253.83 19.8558 253.83C20.5235 253.83 20.7343 253.496 20.8749 253.18H21.7446C21.5689 253.751 21.0857 254.533 19.8295 254.533C18.4063 254.533 17.8177 253.399 17.8177 252.249C17.8177 250.904 18.503 249.85 19.8734 249.85C21.3317 249.85 21.8149 251.001 21.8149 251.985C21.8149 252.126 21.8149 252.24 21.8061 252.363ZM18.7226 251.774H20.9452C20.9364 251.08 20.6026 250.518 19.8646 250.518C19.1179 250.518 18.7929 251.036 18.7226 251.774ZM23.6619 254.427H22.7922V247.988H23.6619V254.427ZM28.6179 252.363H25.508C25.508 253.206 25.9297 253.83 26.6676 253.83C27.3353 253.83 27.5461 253.496 27.6867 253.18H28.5564C28.3807 253.751 27.8975 254.533 26.6413 254.533C25.2181 254.533 24.6295 253.399 24.6295 252.249C24.6295 250.904 25.3147 249.85 26.6852 249.85C28.1435 249.85 28.6267 251.001 28.6267 251.985C28.6267 252.126 28.6267 252.24 28.6179 252.363ZM25.5344 251.774H27.7569C27.7482 251.08 27.4143 250.518 26.6764 250.518C25.9297 250.518 25.6046 251.036 25.5344 251.774ZM32.3878 253.048H33.2487C33.0642 253.812 32.5459 254.533 31.3687 254.533C30.1037 254.533 29.3482 253.637 29.3482 252.222C29.3482 250.948 30.0861 249.85 31.4214 249.85C32.7568 249.85 33.196 250.808 33.2487 251.37H32.3966C32.2911 250.931 32.0188 250.562 31.4039 250.562C30.6571 250.562 30.2355 251.203 30.2355 252.196C30.2355 253.197 30.6484 253.83 31.3863 253.83C31.9134 253.83 32.2209 253.54 32.3878 253.048ZM33.6834 250.65V249.956H34.4389V248.664H35.2999V249.956H36.2662V250.65H35.2999V253.189C35.2999 253.601 35.4053 253.812 35.8094 253.812C35.906 253.812 36.0554 253.804 36.1784 253.777V254.41C35.9763 254.48 35.6952 254.489 35.4756 254.489C34.7464 254.489 34.4389 254.111 34.4389 253.364V250.65H33.6834ZM39.4562 248.331H40.3611V254.427H39.4562V248.331ZM41.7007 254.427V251.089C41.7007 250.702 41.7007 250.307 41.6919 249.956H42.5264C42.5528 250.087 42.5616 250.527 42.5616 250.659C42.7373 250.298 43.0975 249.85 43.9496 249.85C44.8017 249.85 45.443 250.386 45.443 251.563V254.427H44.5821V251.669C44.5821 251.027 44.3361 250.588 43.6773 250.588C42.8954 250.588 42.5616 251.159 42.5616 252.038V254.427H41.7007ZM49.4515 253.048H50.3124C50.128 253.812 49.6096 254.533 48.4325 254.533C47.1674 254.533 46.4119 253.637 46.4119 252.222C46.4119 250.948 47.1499 249.85 48.4852 249.85C49.8205 249.85 50.2597 250.808 50.3124 251.37H49.4603C49.3549 250.931 49.0826 250.562 48.4676 250.562C47.7209 250.562 47.2992 251.203 47.2992 252.196C47.2992 253.197 47.7121 253.83 48.45 253.83C48.9771 253.83 49.2846 253.54 49.4515 253.048ZM53.0762 249.85C54.3325 249.85 55.1582 250.782 55.1582 252.187C55.1582 253.487 54.4027 254.533 53.0323 254.533C51.7233 254.533 50.9415 253.549 50.9415 252.205C50.9415 250.869 51.7145 249.85 53.0762 249.85ZM53.0411 250.562C52.2592 250.562 51.8287 251.186 51.8287 252.196C51.8287 253.153 52.2943 253.83 53.0586 253.83C53.8405 253.83 54.271 253.18 54.271 252.196C54.271 251.203 53.8405 250.562 53.0411 250.562ZM56.1218 254.427V251.115C56.1218 250.729 56.1218 250.325 56.1131 249.956H56.9476C56.9564 250.087 56.9828 250.404 56.9828 250.615C57.1848 250.228 57.5714 249.85 58.2654 249.85C58.9067 249.85 59.3196 250.175 59.4953 250.632C59.7325 250.219 60.1541 249.85 60.9096 249.85C61.6476 249.85 62.3152 250.29 62.3152 251.493V254.427H61.4719V251.599C61.4719 251.098 61.2962 250.579 60.6285 250.579C59.9433 250.579 59.6446 251.089 59.6446 251.862V254.427H58.8012V251.625C58.8012 251.071 58.6519 250.588 57.9842 250.588C57.3078 250.588 56.9828 251.115 56.9828 251.95V254.427H56.1218ZM67.2751 252.363H64.1652C64.1652 253.206 64.5869 253.83 65.3248 253.83C65.9925 253.83 66.2033 253.496 66.3439 253.18H67.2136C67.0379 253.751 66.5547 254.533 65.2985 254.533C63.8753 254.533 63.2867 253.399 63.2867 252.249C63.2867 250.904 63.9719 249.85 65.3424 249.85C66.8007 249.85 67.2839 251.001 67.2839 251.985C67.2839 252.126 67.2839 252.24 67.2751 252.363ZM64.1916 251.774H66.4142C66.4054 251.08 66.0716 250.518 65.3336 250.518C64.5869 250.518 64.2619 251.036 64.1916 251.774ZM70.5553 254.427V248.331H72.9624C74.2889 248.331 74.8775 249.025 74.8775 249.859C74.8775 250.562 74.4822 251.027 74.0254 251.186C74.447 251.326 75.0708 251.757 75.0708 252.635C75.0708 253.768 74.2098 254.427 73.0239 254.427H70.5553ZM71.4426 250.843H72.8043C73.6388 250.843 73.9727 250.509 73.9727 249.947C73.9727 249.42 73.5949 249.068 72.9185 249.068H71.4426V250.843ZM71.4426 251.581V253.698H72.8921C73.6476 253.698 74.1396 253.347 74.1396 252.626C74.1396 251.994 73.7355 251.581 72.7691 251.581H71.4426ZM76.0939 254.427V251.177C76.0939 250.579 76.0939 250.219 76.0851 249.956H76.9372C76.946 250.079 76.9636 250.448 76.9636 250.852C77.1832 250.263 77.7103 249.877 78.4482 249.85V250.702C77.5346 250.72 76.9636 251.15 76.9636 252.301V254.427H76.0939ZM82.5223 251.335V253.426C82.5223 253.83 82.5574 254.304 82.5838 254.427H81.758C81.7228 254.331 81.6965 254.12 81.6877 253.874C81.5296 254.164 81.187 254.533 80.3348 254.533C79.2718 254.533 78.8238 253.847 78.8238 253.162C78.8238 252.161 79.6144 251.704 80.941 251.704C81.2309 251.704 81.512 251.704 81.6789 251.704V251.344C81.6789 250.966 81.5559 250.509 80.7653 250.509C80.0625 250.509 79.9395 250.852 79.8604 251.203H79.0346C79.0961 250.553 79.4915 249.85 80.7916 249.85C81.9073 249.859 82.5223 250.307 82.5223 251.335ZM81.6789 252.416V252.275C81.5471 252.275 81.2221 252.275 81.0025 252.275C80.1328 252.275 79.6935 252.521 79.6935 253.118C79.6935 253.549 79.9922 253.874 80.5193 253.874C81.5471 253.874 81.6789 253.189 81.6789 252.416ZM86.5388 253.048H87.3997C87.2152 253.812 86.6969 254.533 85.5197 254.533C84.2547 254.533 83.4992 253.637 83.4992 252.222C83.4992 250.948 84.2371 249.85 85.5724 249.85C86.9077 249.85 87.347 250.808 87.3997 251.37H86.5476C86.4421 250.931 86.1698 250.562 85.5549 250.562C84.8081 250.562 84.3865 251.203 84.3865 252.196C84.3865 253.197 84.7994 253.83 85.5373 253.83C86.0644 253.83 86.3719 253.54 86.5388 253.048ZM89.1544 247.988V252.047C89.5146 251.607 90.4282 250.632 91.0344 249.956H92.0535L90.3931 251.695L92.2379 254.427H91.2365L89.8045 252.24L89.1544 252.872V254.427H88.2847V247.988H89.1544ZM96.3924 252.363H93.2825C93.2825 253.206 93.7042 253.83 94.4421 253.83C95.1098 253.83 95.3206 253.496 95.4612 253.18H96.3309C96.1552 253.751 95.672 254.533 94.4158 254.533C92.9926 254.533 92.404 253.399 92.404 252.249C92.404 250.904 93.0893 249.85 94.4597 249.85C95.918 249.85 96.4012 251.001 96.4012 251.985C96.4012 252.126 96.4012 252.24 96.3924 252.363ZM93.3089 251.774H95.5315C95.5227 251.08 95.1889 250.518 94.4509 250.518C93.7042 250.518 93.3792 251.036 93.3089 251.774ZM96.851 250.65V249.956H97.6065V248.664H98.4674V249.956H99.4338V250.65H98.4674V253.189C98.4674 253.601 98.5728 253.812 98.977 253.812C99.0736 253.812 99.2229 253.804 99.3459 253.777V254.41C99.1439 254.48 98.8627 254.489 98.6431 254.489C97.914 254.489 97.6065 254.111 97.6065 253.364V250.65H96.851Z" fill="#5A5A5A"/>
<g filter="url(#filter2_d_1_480)">
<path d="M12.0793 272.605C12.0793 268.966 15.0292 266.016 18.668 266.016H129.029C132.668 266.016 135.617 268.966 135.617 272.605V312.137C135.617 315.776 132.668 318.726 129.029 318.726H18.668C15.0292 318.726 12.0793 315.776 12.0793 312.137V272.605Z" fill="white" shape-rendering="crispEdges"/>
<path d="M129.029 265.467C132.971 265.467 136.166 268.663 136.166 272.605V312.137C136.166 316.079 132.971 319.275 129.029 319.275H18.6682C14.7262 319.275 11.5306 316.079 11.5305 312.137V272.605C11.5305 268.663 14.7261 265.467 18.6682 265.467H129.029Z" stroke="#2DA9DF" stroke-width="1.09812" shape-rendering="crispEdges"/>
<path d="M19.4499 294.371V288.274H20.3547V293.606H23.5173L23.3943 294.371H19.4499ZM26.1465 289.794C27.4028 289.794 28.2286 290.725 28.2286 292.131C28.2286 293.431 27.4731 294.476 26.1026 294.476C24.7937 294.476 24.0118 293.492 24.0118 292.148C24.0118 290.813 24.7849 289.794 26.1465 289.794ZM26.1114 290.505C25.3295 290.505 24.8991 291.129 24.8991 292.139C24.8991 293.097 25.3647 293.773 26.129 293.773C26.9108 293.773 27.3413 293.123 27.3413 292.139C27.3413 291.147 26.9108 290.505 26.1114 290.505ZM28.7188 289.899H29.6325C30.1508 291.946 30.4495 293.106 30.5285 293.589H30.5461C30.6252 293.15 30.9063 292.122 31.5212 289.899H32.3558C33.0147 292.368 33.2167 293.088 33.287 293.51H33.2958C33.4012 293.035 33.5769 292.359 34.2358 289.899H35.1055L33.735 294.371H32.8126C32.3821 292.737 31.9956 291.34 31.899 290.839H31.8902C31.8111 291.34 31.4422 292.631 30.959 294.371H30.0102L28.7188 289.899ZM38.3066 288.274H39.2115V294.371H38.3066V288.274ZM40.551 294.371V291.033C40.551 290.646 40.551 290.251 40.5423 289.899H41.3768C41.4032 290.031 41.412 290.47 41.412 290.602C41.5877 290.242 41.9479 289.794 42.8 289.794C43.6521 289.794 44.2934 290.33 44.2934 291.507V294.371H43.4325V291.612C43.4325 290.971 43.1865 290.532 42.5277 290.532C41.7458 290.532 41.412 291.103 41.412 291.981V294.371H40.551ZM48.3019 292.992H49.1628C48.9784 293.756 48.46 294.476 47.2829 294.476C46.0178 294.476 45.2623 293.58 45.2623 292.166C45.2623 290.892 46.0003 289.794 47.3356 289.794C48.6709 289.794 49.1101 290.751 49.1628 291.314H48.3107C48.2053 290.874 47.9329 290.505 47.318 290.505C46.5713 290.505 46.1496 291.147 46.1496 292.139C46.1496 293.141 46.5625 293.773 47.3004 293.773C47.8275 293.773 48.135 293.484 48.3019 292.992ZM51.9266 289.794C53.1828 289.794 54.0086 290.725 54.0086 292.131C54.0086 293.431 53.2531 294.476 51.8827 294.476C50.5737 294.476 49.7919 293.492 49.7919 292.148C49.7919 290.813 50.5649 289.794 51.9266 289.794ZM51.8915 290.505C51.1096 290.505 50.6791 291.129 50.6791 292.139C50.6791 293.097 51.1447 293.773 51.909 293.773C52.6909 293.773 53.1214 293.123 53.1214 292.139C53.1214 291.147 52.6909 290.505 51.8915 290.505ZM54.9722 294.371V291.059C54.9722 290.672 54.9722 290.268 54.9634 289.899H55.798C55.8068 290.031 55.8332 290.347 55.8332 290.558C56.0352 290.172 56.4218 289.794 57.1158 289.794C57.7571 289.794 58.17 290.119 58.3457 290.576C58.5828 290.163 59.0045 289.794 59.76 289.794C60.498 289.794 61.1656 290.233 61.1656 291.437V294.371H60.3223V291.542C60.3223 291.041 60.1466 290.523 59.4789 290.523C58.7937 290.523 58.495 291.033 58.495 291.806V294.371H57.6516V291.568C57.6516 291.015 57.5023 290.532 56.8346 290.532C56.1582 290.532 55.8332 291.059 55.8332 291.893V294.371H54.9722ZM66.1255 292.306H63.0156C63.0156 293.15 63.4373 293.773 64.1752 293.773C64.8429 293.773 65.0537 293.44 65.1943 293.123H66.064C65.8883 293.694 65.4051 294.476 64.1489 294.476C62.7257 294.476 62.1371 293.343 62.1371 292.192C62.1371 290.848 62.8223 289.794 64.1928 289.794C65.6511 289.794 66.1343 290.945 66.1343 291.929C66.1343 292.069 66.1343 292.183 66.1255 292.306ZM63.042 291.718H65.2646C65.2558 291.024 64.9219 290.461 64.184 290.461C63.4373 290.461 63.1122 290.98 63.042 291.718ZM74.4219 291.059V294.371H73.7367C73.6928 294.248 73.6664 293.984 73.6576 293.589C73.3765 294.028 72.8406 294.459 71.7864 294.459C70.0206 294.459 69.0719 293.123 69.0719 291.393C69.0719 289.557 70.0909 288.186 71.9446 288.186C73.3941 288.186 74.2901 288.977 74.457 290.057H73.5522C73.3677 289.425 72.9021 288.924 71.927 288.924C70.539 288.924 70.0206 290.04 70.0206 291.349C70.0206 292.561 70.5565 293.712 71.9006 293.712C73.2272 293.712 73.5434 292.825 73.5434 291.885V291.823H71.8918V291.059H74.4219ZM75.7078 294.371V291.12C75.7078 290.523 75.7078 290.163 75.699 289.899H76.5512C76.5599 290.022 76.5775 290.391 76.5775 290.795C76.7971 290.207 77.3242 289.82 78.0622 289.794V290.646C77.1485 290.664 76.5775 291.094 76.5775 292.245V294.371H75.7078ZM80.6321 289.794C81.8884 289.794 82.7141 290.725 82.7141 292.131C82.7141 293.431 81.9586 294.476 80.5882 294.476C79.2792 294.476 78.4974 293.492 78.4974 292.148C78.4974 290.813 79.2704 289.794 80.6321 289.794ZM80.597 290.505C79.8151 290.505 79.3847 291.129 79.3847 292.139C79.3847 293.097 79.8503 293.773 80.6145 293.773C81.3964 293.773 81.8269 293.123 81.8269 292.139C81.8269 291.147 81.3964 290.505 80.597 290.505ZM87.3411 289.899V293.071C87.3411 293.51 87.3411 294.081 87.3499 294.371H86.5065C86.4889 294.257 86.4801 293.993 86.4801 293.738C86.2517 294.221 85.8213 294.476 85.1448 294.476C84.363 294.476 83.669 294.072 83.669 292.842V289.899H84.5211V292.658C84.5211 293.229 84.6968 293.747 85.3996 293.747C86.1727 293.747 86.4801 293.317 86.4801 292.245V289.899H87.3411ZM90.7454 294.476C90.0339 294.476 89.6649 294.186 89.4716 293.852V296.128H88.6107V290.989C88.6107 290.628 88.6107 290.251 88.6019 289.899H89.4453C89.4628 290.049 89.4716 290.321 89.4716 290.576C89.7088 290.154 90.1481 289.794 90.9036 289.794C91.9314 289.794 92.6869 290.664 92.6869 292.025C92.6869 293.615 91.826 294.476 90.7454 294.476ZM90.6049 293.765C91.3867 293.765 91.7996 293.123 91.7996 292.06C91.7996 291.138 91.3955 290.523 90.6576 290.523C89.7791 290.523 89.4365 291.085 89.4365 292.131C89.4365 293.15 89.7176 293.765 90.6049 293.765Z" fill="#231F20"/>
</g>
<rect x="146.599" y="266.016" width="123.538" height="52.7096" rx="6.58871" fill="white"/>
<path d="M159.17 294.371V291.832C159.17 290.716 159.179 289.565 159.205 288.915H159.17C158.906 289.952 157.993 292.456 157.316 294.371H156.508C155.999 292.789 155.05 289.978 154.777 288.898H154.751C154.795 289.609 154.821 290.945 154.821 291.99V294.371H153.969V288.274H155.322C155.972 290.11 156.763 292.473 156.965 293.273H156.982C157.123 292.64 158.063 290.066 158.739 288.274H160.048V294.371H159.17ZM161.421 294.371V289.899H162.291V294.371H161.421ZM161.421 288.924V287.931H162.291V288.924H161.421ZM166.5 287.931H167.361V293.115C167.361 293.536 167.361 293.949 167.37 294.371H166.544C166.526 294.257 166.509 293.932 166.5 293.773C166.28 294.213 165.841 294.476 165.121 294.476C163.979 294.476 163.267 293.554 163.267 292.183C163.267 290.804 164.031 289.794 165.27 289.794C166.034 289.794 166.386 290.101 166.5 290.338V287.931ZM165.375 290.514C164.611 290.514 164.154 291.12 164.154 292.157C164.154 293.202 164.637 293.765 165.323 293.765C166.333 293.765 166.535 293 166.535 292.087C166.535 291.138 166.351 290.514 165.375 290.514ZM171.57 287.931H172.431V293.115C172.431 293.536 172.431 293.949 172.44 294.371H171.614C171.596 294.257 171.579 293.932 171.57 293.773C171.35 294.213 170.911 294.476 170.191 294.476C169.049 294.476 168.337 293.554 168.337 292.183C168.337 290.804 169.102 289.794 170.34 289.794C171.104 289.794 171.456 290.101 171.57 290.338V287.931ZM170.446 290.514C169.681 290.514 169.224 291.12 169.224 292.157C169.224 293.202 169.708 293.765 170.393 293.765C171.403 293.765 171.605 293 171.605 292.087C171.605 291.138 171.421 290.514 170.446 290.514ZM174.576 294.371H173.706V287.931H174.576V294.371ZM179.532 292.306H176.422C176.422 293.15 176.844 293.773 177.582 293.773C178.249 293.773 178.46 293.44 178.601 293.123H179.47C179.295 293.694 178.811 294.476 177.555 294.476C176.132 294.476 175.543 293.343 175.543 292.192C175.543 290.848 176.229 289.794 177.599 289.794C179.057 289.794 179.541 290.945 179.541 291.929C179.541 292.069 179.541 292.183 179.532 292.306ZM176.448 291.718H178.671C178.662 291.024 178.328 290.461 177.59 290.461C176.844 290.461 176.519 290.98 176.448 291.718ZM182.812 288.274H183.717V294.371H182.812V288.274ZM185.056 294.371V291.033C185.056 290.646 185.056 290.251 185.048 289.899H185.882C185.909 290.031 185.917 290.47 185.917 290.602C186.093 290.242 186.453 289.794 187.305 289.794C188.158 289.794 188.799 290.33 188.799 291.507V294.371H187.938V291.612C187.938 290.971 187.692 290.532 187.033 290.532C186.251 290.532 185.917 291.103 185.917 291.981V294.371H185.056ZM192.807 292.992H193.668C193.484 293.756 192.965 294.476 191.788 294.476C190.523 294.476 189.768 293.58 189.768 292.166C189.768 290.892 190.506 289.794 191.841 289.794C193.176 289.794 193.615 290.751 193.668 291.314H192.816C192.711 290.874 192.438 290.505 191.823 290.505C191.077 290.505 190.655 291.147 190.655 292.139C190.655 293.141 191.068 293.773 191.806 293.773C192.333 293.773 192.64 293.484 192.807 292.992ZM196.432 289.794C197.688 289.794 198.514 290.725 198.514 292.131C198.514 293.431 197.758 294.476 196.388 294.476C195.079 294.476 194.297 293.492 194.297 292.148C194.297 290.813 195.07 289.794 196.432 289.794ZM196.397 290.505C195.615 290.505 195.185 291.129 195.185 292.139C195.185 293.097 195.65 293.773 196.414 293.773C197.196 293.773 197.627 293.123 197.627 292.139C197.627 291.147 197.196 290.505 196.397 290.505ZM199.478 294.371V291.059C199.478 290.672 199.478 290.268 199.469 289.899H200.303C200.312 290.031 200.339 290.347 200.339 290.558C200.541 290.172 200.927 289.794 201.621 289.794C202.262 289.794 202.675 290.119 202.851 290.576C203.088 290.163 203.51 289.794 204.265 289.794C205.003 289.794 205.671 290.233 205.671 291.437V294.371H204.828V291.542C204.828 291.041 204.652 290.523 203.984 290.523C203.299 290.523 203 291.033 203 291.806V294.371H202.157V291.568C202.157 291.015 202.008 290.532 201.34 290.532C200.664 290.532 200.339 291.059 200.339 291.893V294.371H199.478ZM210.631 292.306H207.521C207.521 293.15 207.943 293.773 208.681 293.773C209.348 293.773 209.559 293.44 209.7 293.123H210.569C210.394 293.694 209.91 294.476 208.654 294.476C207.231 294.476 206.642 293.343 206.642 292.192C206.642 290.848 207.328 289.794 208.698 289.794C210.156 289.794 210.64 290.945 210.64 291.929C210.64 292.069 210.64 292.183 210.631 292.306ZM207.547 291.718H209.77C209.761 291.024 209.427 290.461 208.689 290.461C207.943 290.461 207.618 290.98 207.547 291.718ZM218.927 291.059V294.371H218.242C218.198 294.248 218.172 293.984 218.163 293.589C217.882 294.028 217.346 294.459 216.292 294.459C214.526 294.459 213.577 293.123 213.577 291.393C213.577 289.557 214.596 288.186 216.45 288.186C217.899 288.186 218.795 288.977 218.962 290.057H218.058C217.873 289.425 217.407 288.924 216.432 288.924C215.044 288.924 214.526 290.04 214.526 291.349C214.526 292.561 215.062 293.712 216.406 293.712C217.733 293.712 218.049 292.825 218.049 291.885V291.823H216.397V291.059H218.927ZM220.213 294.371V291.12C220.213 290.523 220.213 290.163 220.204 289.899H221.057C221.065 290.022 221.083 290.391 221.083 290.795C221.303 290.207 221.83 289.82 222.568 289.794V290.646C221.654 290.664 221.083 291.094 221.083 292.245V294.371H220.213ZM225.137 289.794C226.394 289.794 227.22 290.725 227.22 292.131C227.22 293.431 226.464 294.476 225.094 294.476C223.785 294.476 223.003 293.492 223.003 292.148C223.003 290.813 223.776 289.794 225.137 289.794ZM225.102 290.505C224.32 290.505 223.89 291.129 223.89 292.139C223.89 293.097 224.356 293.773 225.12 293.773C225.902 293.773 226.332 293.123 226.332 292.139C226.332 291.147 225.902 290.505 225.102 290.505ZM231.846 289.899V293.071C231.846 293.51 231.846 294.081 231.855 294.371H231.012C230.994 294.257 230.986 293.993 230.986 293.738C230.757 294.221 230.327 294.476 229.65 294.476C228.868 294.476 228.174 294.072 228.174 292.842V289.899H229.026V292.658C229.026 293.229 229.202 293.747 229.905 293.747C230.678 293.747 230.986 293.317 230.986 292.245V289.899H231.846ZM235.251 294.476C234.539 294.476 234.17 294.186 233.977 293.852V296.128H233.116V290.989C233.116 290.628 233.116 290.251 233.107 289.899H233.951C233.968 290.049 233.977 290.321 233.977 290.576C234.214 290.154 234.653 289.794 235.409 289.794C236.437 289.794 237.192 290.664 237.192 292.025C237.192 293.615 236.331 294.476 235.251 294.476ZM235.11 293.765C235.892 293.765 236.305 293.123 236.305 292.06C236.305 291.138 235.901 290.523 235.163 290.523C234.284 290.523 233.942 291.085 233.942 292.131C233.942 293.15 234.223 293.765 235.11 293.765Z" fill="#231F20"/>
<rect x="281.118" y="266.016" width="123.538" height="52.7096" rx="6.58871" fill="white"/>
<path d="M288.489 294.371V288.274H289.393V290.787H292.442V288.274H293.347V294.371H292.442V291.56H289.393V294.371H288.489ZM294.696 294.371V289.899H295.566V294.371H294.696ZM294.696 288.924V287.931H295.566V288.924H294.696ZM300.601 291.191V293.949C300.601 295.381 300.021 296.216 298.519 296.216C297.113 296.216 296.709 295.425 296.639 294.836H297.518C297.641 295.293 298.001 295.539 298.554 295.539C299.529 295.539 299.766 294.924 299.766 293.923V293.589C299.529 294.072 299.125 294.344 298.396 294.344C297.28 294.344 296.542 293.44 296.542 292.148C296.542 290.699 297.386 289.794 298.475 289.794C299.31 289.794 299.67 290.189 299.766 290.47C299.775 290.286 299.793 289.996 299.802 289.899H300.619C300.61 290.189 300.601 290.76 300.601 291.191ZM298.624 290.514C297.851 290.514 297.43 291.155 297.43 292.113C297.43 293.018 297.904 293.624 298.598 293.624C299.52 293.624 299.784 293 299.784 292.052C299.784 291.103 299.547 290.514 298.624 290.514ZM301.877 287.931H302.747V290.541C302.966 290.163 303.362 289.794 304.117 289.794C304.855 289.794 305.619 290.207 305.619 291.516V294.371H304.767V291.656C304.767 290.927 304.46 290.532 303.836 290.532C303.054 290.532 302.747 291.059 302.747 291.946V294.371H301.877V287.931ZM309.258 288.274H310.163V294.371H309.258V288.274ZM311.503 294.371V291.033C311.503 290.646 311.503 290.251 311.494 289.899H312.329C312.355 290.031 312.364 290.47 312.364 290.602C312.54 290.242 312.9 289.794 313.752 289.794C314.604 289.794 315.245 290.33 315.245 291.507V294.371H314.384V291.612C314.384 290.971 314.138 290.532 313.48 290.532C312.698 290.532 312.364 291.103 312.364 291.981V294.371H311.503ZM319.254 292.992H320.115C319.93 293.756 319.412 294.476 318.235 294.476C316.97 294.476 316.214 293.58 316.214 292.166C316.214 290.892 316.952 289.794 318.287 289.794C319.623 289.794 320.062 290.751 320.115 291.314H319.263C319.157 290.874 318.885 290.505 318.27 290.505C317.523 290.505 317.101 291.147 317.101 292.139C317.101 293.141 317.514 293.773 318.252 293.773C318.779 293.773 319.087 293.484 319.254 292.992ZM322.878 289.794C324.135 289.794 324.96 290.725 324.96 292.131C324.96 293.431 324.205 294.476 322.835 294.476C321.526 294.476 320.744 293.492 320.744 292.148C320.744 290.813 321.517 289.794 322.878 289.794ZM322.843 290.505C322.061 290.505 321.631 291.129 321.631 292.139C321.631 293.097 322.097 293.773 322.861 293.773C323.643 293.773 324.073 293.123 324.073 292.139C324.073 291.147 323.643 290.505 322.843 290.505ZM325.924 294.371V291.059C325.924 290.672 325.924 290.268 325.915 289.899H326.75C326.759 290.031 326.785 290.347 326.785 290.558C326.987 290.172 327.374 289.794 328.068 289.794C328.709 289.794 329.122 290.119 329.297 290.576C329.535 290.163 329.956 289.794 330.712 289.794C331.45 289.794 332.117 290.233 332.117 291.437V294.371H331.274V291.542C331.274 291.041 331.098 290.523 330.431 290.523C329.746 290.523 329.447 291.033 329.447 291.806V294.371H328.603V291.568C328.603 291.015 328.454 290.532 327.786 290.532C327.11 290.532 326.785 291.059 326.785 291.893V294.371H325.924ZM337.077 292.306H333.967C333.967 293.15 334.389 293.773 335.127 293.773C335.795 293.773 336.006 293.44 336.146 293.123H337.016C336.84 293.694 336.357 294.476 335.101 294.476C333.678 294.476 333.089 293.343 333.089 292.192C333.089 290.848 333.774 289.794 335.145 289.794C336.603 289.794 337.086 290.945 337.086 291.929C337.086 292.069 337.086 292.183 337.077 292.306ZM333.994 291.718H336.216C336.208 291.024 335.874 290.461 335.136 290.461C334.389 290.461 334.064 290.98 333.994 291.718ZM345.374 291.059V294.371H344.689C344.645 294.248 344.618 293.984 344.609 293.589C344.328 294.028 343.792 294.459 342.738 294.459C340.972 294.459 340.024 293.123 340.024 291.393C340.024 289.557 341.043 288.186 342.896 288.186C344.346 288.186 345.242 288.977 345.409 290.057H344.504C344.32 289.425 343.854 288.924 342.879 288.924C341.491 288.924 340.972 290.04 340.972 291.349C340.972 292.561 341.508 293.712 342.852 293.712C344.179 293.712 344.495 292.825 344.495 291.885V291.823H342.844V291.059H345.374ZM346.66 294.371V291.12C346.66 290.523 346.66 290.163 346.651 289.899H347.503C347.512 290.022 347.529 290.391 347.529 290.795C347.749 290.207 348.276 289.82 349.014 289.794V290.646C348.1 290.664 347.529 291.094 347.529 292.245V294.371H346.66ZM351.584 289.794C352.84 289.794 353.666 290.725 353.666 292.131C353.666 293.431 352.91 294.476 351.54 294.476C350.231 294.476 349.449 293.492 349.449 292.148C349.449 290.813 350.222 289.794 351.584 289.794ZM351.549 290.505C350.767 290.505 350.336 291.129 350.336 292.139C350.336 293.097 350.802 293.773 351.566 293.773C352.348 293.773 352.779 293.123 352.779 292.139C352.779 291.147 352.348 290.505 351.549 290.505ZM358.293 289.899V293.071C358.293 293.51 358.293 294.081 358.302 294.371H357.458C357.441 294.257 357.432 293.993 357.432 293.738C357.204 294.221 356.773 294.476 356.097 294.476C355.315 294.476 354.621 294.072 354.621 292.842V289.899H355.473V292.658C355.473 293.229 355.649 293.747 356.351 293.747C357.125 293.747 357.432 293.317 357.432 292.245V289.899H358.293ZM361.697 294.476C360.986 294.476 360.617 294.186 360.423 293.852V296.128H359.563V290.989C359.563 290.628 359.563 290.251 359.554 289.899H360.397C360.415 290.049 360.423 290.321 360.423 290.576C360.661 290.154 361.1 289.794 361.855 289.794C362.883 289.794 363.639 290.664 363.639 292.025C363.639 293.615 362.778 294.476 361.697 294.476ZM361.557 293.765C362.339 293.765 362.751 293.123 362.751 292.06C362.751 291.138 362.347 290.523 361.609 290.523C360.731 290.523 360.388 291.085 360.388 292.131C360.388 293.15 360.669 293.765 361.557 293.765Z" fill="#231F20"/>
<rect x="12.6284" y="352.275" width="29.6492" height="29.6492" rx="14.8246" stroke="#2DA9DF" stroke-opacity="0.5" stroke-width="1.09812"/>
<path d="M29.1002 362.707L24.7078 367.1L29.1002 371.492" stroke="#2DA9DF" stroke-width="1.09812" stroke-miterlimit="10" stroke-linecap="round" stroke-linejoin="round"/>
<rect x="149.585" y="352.275" width="124.636" height="29.6492" rx="14.8246" stroke="#2DA9DF" stroke-opacity="0.5" stroke-width="1.09812"/>
<path fill-rule="evenodd" clip-rule="evenodd" d="M190.123 362.707C190.512 362.707 190.884 362.861 191.159 363.136C191.433 363.41 191.588 363.783 191.588 364.171V370.028C191.588 370.416 191.433 370.788 191.159 371.063C190.884 371.337 190.512 371.492 190.123 371.492H184.267C183.878 371.492 183.506 371.337 183.231 371.063C182.957 370.788 182.803 370.416 182.803 370.028V364.171C182.803 363.783 182.957 363.41 183.231 363.136C183.506 362.861 183.878 362.707 184.267 362.707H190.123ZM190.123 363.683H184.267C184.137 363.683 184.013 363.734 183.922 363.826C183.83 363.917 183.779 364.041 183.779 364.171V370.028C183.779 370.157 183.83 370.281 183.922 370.373C184.013 370.464 184.137 370.516 184.267 370.516H190.123C190.253 370.516 190.377 370.464 190.469 370.373C190.56 370.281 190.611 370.157 190.611 370.028V364.171C190.611 364.041 190.56 363.917 190.469 363.826C190.377 363.734 190.253 363.683 190.123 363.683ZM185.487 368.075C185.669 368.075 185.844 368.143 185.979 368.265C186.114 368.388 186.198 368.556 186.216 368.737L186.219 368.812C186.219 369 186.146 369.181 186.017 369.317C185.887 369.453 185.71 369.534 185.522 369.543C185.334 369.552 185.15 369.489 185.008 369.366C184.866 369.243 184.776 369.07 184.758 368.883L184.755 368.807C184.755 368.613 184.832 368.427 184.969 368.29C185.107 368.152 185.293 368.075 185.487 368.075ZM188.903 368.075C189.085 368.075 189.261 368.143 189.395 368.265C189.53 368.388 189.614 368.556 189.632 368.737L189.635 368.812C189.635 369 189.563 369.181 189.433 369.317C189.303 369.453 189.126 369.534 188.938 369.543C188.751 369.552 188.567 369.489 188.424 369.366C188.282 369.243 188.193 369.07 188.175 368.883L188.171 368.807C188.171 368.613 188.248 368.427 188.386 368.29C188.523 368.152 188.709 368.075 188.903 368.075ZM187.195 366.367C187.377 366.367 187.553 366.435 187.687 366.557C187.822 366.68 187.906 366.848 187.924 367.029L187.927 367.104C187.927 367.292 187.855 367.473 187.725 367.609C187.595 367.745 187.418 367.826 187.23 367.835C187.042 367.844 186.858 367.78 186.716 367.657C186.574 367.534 186.485 367.362 186.466 367.174L186.463 367.099C186.463 366.905 186.54 366.719 186.677 366.582C186.815 366.444 187.001 366.367 187.195 366.367ZM185.487 364.659C185.669 364.659 185.844 364.727 185.979 364.849C186.114 364.971 186.198 365.14 186.216 365.321L186.219 365.396C186.219 365.584 186.146 365.765 186.017 365.901C185.887 366.037 185.71 366.118 185.522 366.127C185.334 366.136 185.15 366.072 185.008 365.949C184.866 365.826 184.776 365.653 184.758 365.466L184.755 365.391C184.755 365.197 184.832 365.011 184.969 364.873C185.107 364.736 185.293 364.659 185.487 364.659ZM188.903 364.659C189.085 364.659 189.261 364.727 189.395 364.849C189.53 364.971 189.614 365.14 189.632 365.321L189.635 365.396C189.635 365.584 189.563 365.765 189.433 365.901C189.303 366.037 189.126 366.118 188.938 366.127C188.751 366.136 188.567 366.072 188.424 365.949C188.282 365.826 188.193 365.653 188.175 365.466L188.171 365.391C188.171 365.197 188.248 365.011 188.386 364.873C188.523 364.736 188.709 364.659 188.903 364.659Z" fill="#2DA9DF"/>
<path d="M198.835 367.92H197.842V370.432H196.727V364.362H199.292C200.592 364.362 201.286 365.073 201.286 366.013C201.286 366.822 200.838 367.278 200.355 367.445C200.724 367.568 201.172 367.902 201.172 368.974V369.264C201.172 369.677 201.163 370.16 201.251 370.432H200.17C200.056 370.169 200.047 369.712 200.047 369.088V368.991C200.047 368.254 199.854 367.92 198.835 367.92ZM197.842 365.284V366.997H199.02C199.81 366.997 200.135 366.699 200.135 366.136C200.135 365.592 199.775 365.284 199.072 365.284H197.842ZM205.945 367.349V369.334C205.945 369.756 205.98 370.318 206.006 370.432H204.961C204.926 370.344 204.899 370.116 204.899 369.949C204.732 370.213 204.407 370.538 203.59 370.538C202.501 370.538 202.044 369.835 202.044 369.141C202.044 368.113 202.861 367.647 204.196 367.647C204.442 367.647 204.723 367.647 204.882 367.647V367.331C204.882 366.989 204.759 366.611 204.091 366.611C203.485 366.611 203.371 366.892 203.3 367.226H202.255C202.325 366.479 202.782 365.811 204.126 365.811C205.303 365.82 205.945 366.286 205.945 367.349ZM204.882 368.456V368.333C204.767 368.333 204.486 368.333 204.302 368.333C203.494 368.333 203.151 368.57 203.151 369.071C203.151 369.448 203.388 369.747 203.871 369.747C204.767 369.747 204.882 369.132 204.882 368.456ZM207.155 370.432V367.059C207.155 366.672 207.155 366.259 207.147 365.917H208.21C208.227 366.04 208.245 366.409 208.245 366.549C208.412 366.233 208.781 365.811 209.598 365.811C210.485 365.811 211.1 366.4 211.1 367.551V370.432H210.002V367.683C210.002 367.112 209.8 366.716 209.202 366.716C208.57 366.716 208.245 367.129 208.245 367.964V370.432H207.155ZM215.202 364.01H216.292V369.185C216.292 369.598 216.292 370.019 216.3 370.432H215.255C215.229 370.309 215.211 370.037 215.202 369.905C214.983 370.3 214.57 370.538 213.876 370.538C212.725 370.538 212.005 369.615 212.005 368.218C212.005 366.83 212.778 365.811 214.043 365.811C214.745 365.811 215.097 366.075 215.202 366.295V364.01ZM214.218 366.699C213.516 366.699 213.129 367.252 213.129 368.192C213.129 369.141 213.533 369.659 214.174 369.659C215.097 369.659 215.246 368.921 215.246 368.157C215.246 367.305 215.106 366.699 214.218 366.699ZM219.417 365.811C220.718 365.811 221.561 366.751 221.561 368.166C221.561 369.519 220.77 370.538 219.356 370.538C217.994 370.538 217.186 369.545 217.186 368.192C217.186 366.822 218.003 365.811 219.417 365.811ZM219.374 366.681C218.697 366.681 218.302 367.199 218.302 368.174C218.302 369.088 218.715 369.677 219.391 369.677C220.068 369.677 220.454 369.097 220.454 368.183C220.454 367.217 220.068 366.681 219.374 366.681ZM222.477 370.432V367.085C222.477 366.699 222.477 366.303 222.469 365.917H223.523C223.532 366.04 223.558 366.321 223.558 366.514C223.786 366.154 224.155 365.811 224.832 365.811C225.482 365.811 225.868 366.145 226.026 366.54C226.29 366.154 226.685 365.811 227.441 365.811C228.205 365.811 228.864 366.286 228.864 367.472V370.432H227.801V367.603C227.801 367.155 227.634 366.707 227.063 366.707C226.457 366.707 226.211 367.12 226.211 367.849V370.432H225.148V367.647C225.148 367.138 225.016 366.716 224.419 366.716C223.839 366.716 223.558 367.12 223.558 367.92V370.432H222.477ZM230.061 370.432V365.917H231.159V370.432H230.061ZM230.061 365.082V364.01H231.159V365.082H230.061ZM232.018 370.432V369.598L234.372 366.795H232.132V365.917H235.611V366.786L233.292 369.563H235.751L235.611 370.432H232.018ZM240.327 368.403H237.287C237.287 369.088 237.63 369.677 238.297 369.677C238.886 369.677 239.062 369.413 239.185 369.114H240.283C240.116 369.677 239.624 370.538 238.271 370.538C236.804 370.538 236.18 369.413 236.18 368.236C236.18 366.848 236.892 365.811 238.315 365.811C239.835 365.811 240.344 366.953 240.344 368.025C240.344 368.174 240.344 368.28 240.327 368.403ZM237.313 367.709H239.246C239.237 367.112 238.974 366.62 238.315 366.62C237.647 366.62 237.366 367.076 237.313 367.709Z" fill="#2DA9DF"/>
<rect x="283.555" y="351.726" width="125.734" height="30.7473" rx="15.3736" fill="#231F20"/>
<path d="M333.192 367.342H334.106C333.842 368.396 333.052 369.178 331.637 369.178C329.793 369.178 328.87 367.799 328.87 366.077C328.87 364.417 329.801 362.915 331.672 362.915C333.148 362.915 333.93 363.758 334.106 364.777H333.201C332.999 364.153 332.577 363.653 331.637 363.653C330.346 363.653 329.819 364.83 329.819 366.042C329.819 367.21 330.311 368.44 331.672 368.44C332.604 368.44 332.99 367.896 333.192 367.342ZM336.956 364.522C338.212 364.522 339.038 365.453 339.038 366.859C339.038 368.159 338.282 369.205 336.912 369.205C335.603 369.205 334.821 368.221 334.821 366.877C334.821 365.541 335.594 364.522 336.956 364.522ZM336.921 365.234C336.139 365.234 335.708 365.858 335.708 366.868C335.708 367.825 336.174 368.502 336.938 368.502C337.72 368.502 338.151 367.852 338.151 366.868C338.151 365.875 337.72 365.234 336.921 365.234ZM340.01 369.099V365.761C340.01 365.374 340.01 364.979 340.001 364.628H340.836C340.862 364.759 340.871 365.199 340.871 365.33C341.047 364.97 341.407 364.522 342.259 364.522C343.111 364.522 343.753 365.058 343.753 366.235V369.099H342.892V366.341C342.892 365.699 342.646 365.26 341.987 365.26C341.205 365.26 340.871 365.831 340.871 366.71V369.099H340.01ZM344.415 365.322V364.628H345.171V363.336H346.032V364.628H346.998V365.322H346.032V367.861C346.032 368.273 346.137 368.484 346.541 368.484C346.638 368.484 346.787 368.475 346.91 368.449V369.082C346.708 369.152 346.427 369.161 346.208 369.161C345.478 369.161 345.171 368.783 345.171 368.036V365.322H344.415ZM347.791 369.099V364.628H348.661V369.099H347.791ZM347.791 363.653V362.66H348.661V363.653H347.791ZM349.945 369.099V365.761C349.945 365.374 349.945 364.979 349.936 364.628H350.771C350.797 364.759 350.806 365.199 350.806 365.33C350.981 364.97 351.342 364.522 352.194 364.522C353.046 364.522 353.687 365.058 353.687 366.235V369.099H352.826V366.341C352.826 365.699 352.58 365.26 351.921 365.26C351.139 365.26 350.806 365.831 350.806 366.71V369.099H349.945ZM358.584 364.628V367.799C358.584 368.238 358.584 368.809 358.592 369.099H357.749C357.732 368.985 357.723 368.721 357.723 368.467C357.494 368.95 357.064 369.205 356.387 369.205C355.606 369.205 354.912 368.801 354.912 367.571V364.628H355.764V367.386C355.764 367.957 355.939 368.475 356.642 368.475C357.415 368.475 357.723 368.045 357.723 366.973V364.628H358.584ZM363.551 367.035H360.441C360.441 367.878 360.863 368.502 361.601 368.502C362.269 368.502 362.48 368.168 362.62 367.852H363.49C363.314 368.423 362.831 369.205 361.575 369.205C360.152 369.205 359.563 368.071 359.563 366.921C359.563 365.576 360.248 364.522 361.619 364.522C363.077 364.522 363.56 365.673 363.56 366.657C363.56 366.798 363.56 366.912 363.551 367.035ZM360.468 366.446H362.69C362.682 365.752 362.348 365.19 361.61 365.19C360.863 365.19 360.538 365.708 360.468 366.446Z" fill="white"/>
<defs>
<filter id="filter0_d_1_480" x="134.519" y="8.50941" width="147.697" height="76.8682" filterUnits="userSpaceOnUse" color-interpolation-filters="sRGB">
<feFlood flood-opacity="0" result="BackgroundImageFix"/>
<feColorMatrix in="SourceAlpha" type="matrix" values="0 0 0 0 0 0 0 0 0 0 0 0 0 0 0 0 0 0 127 0" result="hardAlpha"/>
<feOffset/>
<feGaussianBlur stdDeviation="5.49059"/>
<feComposite in2="hardAlpha" operator="out"/>
<feColorMatrix type="matrix" values="0 0 0 0 0.0313726 0 0 0 0 0.396078 0 0 0 0 1 0 0 0 0.15 0"/>
<feBlend mode="normal" in2="BackgroundImageFix" result="effect1_dropShadow_1_480"/>
<feBlend mode="normal" in="SourceGraphic" in2="effect1_dropShadow_1_480" result="shape"/>
</filter>
<filter id="filter1_d_1_480" x="134.519" y="160.872" width="147.697" height="76.8682" filterUnits="userSpaceOnUse" color-interpolation-filters="sRGB">
<feFlood flood-opacity="0" result="BackgroundImageFix"/>
<feColorMatrix in="SourceAlpha" type="matrix" values="0 0 0 0 0 0 0 0 0 0 0 0 0 0 0 0 0 0 127 0" result="hardAlpha"/>
<feOffset/>
<feGaussianBlur stdDeviation="5.49059"/>
<feComposite in2="hardAlpha" operator="out"/>
<feColorMatrix type="matrix" values="0 0 0 0 0.0313726 0 0 0 0 0.396078 0 0 0 0 1 0 0 0 0.15 0"/>
<feBlend mode="normal" in2="BackgroundImageFix" result="effect1_dropShadow_1_480"/>
<feBlend mode="normal" in="SourceGraphic" in2="effect1_dropShadow_1_480" result="shape"/>
</filter>
<filter id="filter2_d_1_480" x="0" y="253.937" width="147.697" height="76.8682" filterUnits="userSpaceOnUse" color-interpolation-filters="sRGB">
<feFlood flood-opacity="0" result="BackgroundImageFix"/>
<feColorMatrix in="SourceAlpha" type="matrix" values="0 0 0 0 0 0 0 0 0 0 0 0 0 0 0 0 0 0 127 0" result="hardAlpha"/>
<feOffset/>
<feGaussianBlur stdDeviation="5.49059"/>
<feComposite in2="hardAlpha" operator="out"/>
<feColorMatrix type="matrix" values="0 0 0 0 0.0313726 0 0 0 0 0.396078 0 0 0 0 1 0 0 0 0.15 0"/>
<feBlend mode="normal" in2="BackgroundImageFix" result="effect1_dropShadow_1_480"/>
<feBlend mode="normal" in="SourceGraphic" in2="effect1_dropShadow_1_480" result="shape"/>
</filter>
</defs>
</svg>
