<svg width="44" height="44" viewBox="0 0 44 44" fill="none" xmlns="http://www.w3.org/2000/svg">
<path d="M26.6395 5.5404C28.8604 5.0572 30.9605 4.1094 33.2371 3.79346C33.3487 4.34171 33.0234 4.60188 32.8469 4.90853C31.3136 7.53828 29.7897 10.168 28.2193 12.7699C27.7546 13.5319 27.6617 14.331 27.5502 15.1952C27.1692 18.1688 28.0055 20.7985 29.5667 23.2982C30.6446 25.0266 31.5645 26.8479 32.5588 28.632C32.8283 29.1152 33.0978 29.5984 33.1442 30.314C31.7132 29.8493 30.3379 29.3754 28.9533 28.9666C22.0305 26.9037 15.1077 24.8593 8.18484 22.7964C5.07188 21.8672 5.32278 22.0066 5.21127 18.9494C5.19268 18.5033 5.1741 18.0573 5.15552 17.6205C5.1741 16.8771 5.20197 16.1337 5.22056 15.3904C5.35065 14.647 5.48074 13.9036 5.61084 13.1602C5.72235 12.2031 6.33564 11.8221 7.20913 11.5991C8.42644 11.2924 9.60657 10.8557 10.8053 10.4747C13.4443 9.77774 16.0462 8.96003 18.6109 8.03079C21.315 7.30598 23.9819 6.45107 26.6395 5.54971V5.5404Z" fill="#1E75BC"/>
<path d="M7.2345 26.52C9.70628 27.0125 12.0944 27.8396 14.5012 28.5458C20.0859 30.1812 25.7171 31.6587 31.1717 33.6845C32.9466 34.3442 34.4798 34.2978 35.9573 33.0991C36.5613 34.6973 35.9573 36.147 34.5263 36.3049C33.6528 36.4072 32.77 36.4072 31.8872 36.1284C27.7521 34.8646 23.5984 33.6566 19.454 32.4114C16.4433 31.5101 13.3582 30.841 10.4497 29.6237C9.00006 29.0197 7.65266 28.2205 7.2345 26.5107V26.52Z" fill="#A4A6AC" fill-opacity="0.2"/>
<path d="M36.8874 31.6198C38.4392 33.6363 38.4207 35.9036 36.6551 37.344C35.382 38.3847 33.8953 38.2174 32.4456 37.7807C28.4127 36.5634 24.417 35.2439 20.3655 34.1009C17.0946 33.181 13.7865 32.3818 10.5899 31.2203C8.61062 30.5047 6.8079 29.4547 5.88795 27.3453C5.69281 26.9086 5.7021 26.4904 5.65564 26.063C6.21318 26.1095 6.76143 26.1745 7.23535 26.5183C7.6535 28.2281 9.00091 29.0273 10.4505 29.6313C13.359 30.8393 16.4441 31.5083 19.4549 32.419C23.5993 33.6642 27.753 34.8722 31.8881 36.1359C32.7709 36.4054 33.6629 36.4054 34.5271 36.3125C35.9489 36.1452 36.5622 34.7049 35.9582 33.1066C36.2648 32.6141 36.5715 32.1216 36.8874 31.6291V31.6198Z" fill="#B3B5B9" fill-opacity="0.2"/>
<path d="M10.8023 10.4652C9.6036 10.8462 8.42347 11.2737 7.20617 11.5896C6.33268 11.8126 5.71938 12.1936 5.60787 13.1507C5.2083 13.3273 4.80872 13.5131 4.39986 13.6711C3.45203 14.0335 2.74581 14.9256 1.64001 14.9442C1.74223 14.3495 1.47275 13.7083 1.87232 13.1507C2.08605 13.0857 2.30908 13.0485 2.49493 12.9463C5.93312 10.9763 9.38059 9.0249 12.7723 6.98057C13.4135 6.59029 14.4357 6.56239 14.6029 5.54023C16.8889 4.54594 19.2956 3.90477 21.7116 3.31006C22.0461 3.59812 21.8045 3.72822 21.5629 3.86761C19.1376 5.26147 16.6751 6.61817 14.2963 8.08637C13.0976 8.82047 11.6293 9.18285 10.8023 10.4745V10.4652Z" fill="white"/>
<path d="M10.8043 10.4662C11.6314 9.18388 13.0996 8.82147 14.2983 8.07808C16.6864 6.60988 19.1396 5.25318 21.5649 3.85932C21.8065 3.71993 22.0481 3.58986 21.7136 3.3018C24.2319 2.20529 26.8895 1.54552 29.5378 0.876465C29.4914 1.57339 28.8502 1.72208 28.4041 1.98226C25.412 3.73853 22.392 5.45762 19.3719 7.17671C19.0188 7.37185 18.5914 7.49265 18.6007 8.01302C16.036 8.94226 13.4341 9.76 10.795 10.4569L10.8043 10.4662Z" fill="white"/>
<path d="M18.6172 8.02119C18.6172 7.50081 19.0446 7.38002 19.3885 7.18488C22.3992 5.45649 25.4192 3.7374 28.4207 1.99043C28.8667 1.73024 29.4986 1.58156 29.5543 0.88463C31.5801 -0.109657 33.0855 -0.267628 34.1448 0.42001C34.0983 0.856753 33.7452 0.996137 33.4293 1.17269C31.4128 2.32495 29.3964 3.49578 27.3799 4.64804C27.0175 4.85247 26.683 5.07549 26.6458 5.54941C23.9882 6.45077 21.3306 7.31497 18.6172 8.03049V8.02119Z" fill="white"/>
<path d="M14.6147 5.53271C14.4382 6.55488 13.4253 6.58274 12.7841 6.97303C9.39241 9.01735 5.94493 10.9688 2.50674 12.9388C2.3209 13.0503 2.08859 13.0781 1.88416 13.1432C2.14434 10.1417 3.33376 8.78505 6.15865 7.9952C8.63972 7.30756 11.0929 6.50842 13.5554 5.76502C13.9085 5.66281 14.2709 5.60705 14.624 5.53271H14.6147Z" fill="white"/>
<path d="M31.9707 19.6309C30.9299 17.7631 30.9578 15.8396 31.8963 13.9904C32.7141 12.3922 33.7269 10.8961 34.6562 9.35352C35.7155 9.7345 36.2266 10.5987 35.9385 11.658C35.6783 12.6152 35.3252 13.5537 34.8048 14.4086C33.9221 15.8582 33.1601 17.3636 32.5468 18.9433C32.4353 19.2313 32.426 19.6309 31.9614 19.6402L31.9707 19.6309Z" fill="#A4A6AC" fill-opacity="0.2"/>
<path d="M31.972 19.6271C32.4274 19.6271 32.4367 19.2275 32.5575 18.9302C33.1801 17.3505 33.9328 15.8451 34.8155 14.3955C35.3359 13.5406 35.689 12.6113 35.9492 11.6449C36.2373 10.5856 35.7169 9.72143 34.6669 9.34044C34.8527 8.75502 35.2058 8.2625 35.5682 7.7793C37.0178 8.07665 38.0493 9.69354 37.7519 11.1896C37.501 12.4813 36.8413 13.5964 36.2187 14.7114C34.9549 17.0067 33.8491 19.3483 33.3195 21.9316C32.6318 21.2998 32.288 20.4634 31.9813 19.6085L31.972 19.6271Z" fill="#B3B5B9" fill-opacity="0.2"/>
<path d="M1.43762 19.1712C1.43762 18.5021 1.43762 17.8331 1.43762 17.1547C1.85578 17.1361 2.15313 16.8481 2.50624 16.6808C3.39831 16.2348 4.12312 15.4263 5.21033 15.3799C5.19175 16.1233 5.16387 16.8667 5.14528 17.6101C4.30897 17.703 3.65851 18.1955 2.96158 18.6043C2.49696 18.8831 2.03234 19.2176 1.43762 19.1712Z" fill="white"/>
<path d="M5.21962 15.3796C4.13241 15.4261 3.41689 16.2345 2.51553 16.6805C2.16242 16.8571 1.86507 17.1359 1.44691 17.1544C1.44691 17.0058 1.44691 16.8571 1.43762 16.7177C1.48408 16.123 1.32611 15.5097 1.65134 14.9429C2.75714 14.9243 3.46336 14.0322 4.41119 13.6698C4.82005 13.5118 5.21034 13.326 5.6192 13.1494C5.48911 13.8928 5.359 14.6362 5.22891 15.3796H5.21962Z" fill="white"/>
</svg>
