<svg width="208" height="40" viewBox="0 0 208 40" fill="none" xmlns="http://www.w3.org/2000/svg">
<path d="M24.2726 5.10028C26.2962 4.65548 28.2096 3.78302 30.284 3.49219C30.3856 3.99686 30.0893 4.23635 29.9284 4.51863C28.5314 6.93935 27.1428 9.36007 25.712 11.7551C25.2886 12.4565 25.204 13.1922 25.1024 13.9877C24.7552 16.7249 25.5172 19.1456 26.9396 21.4466C27.9218 23.0376 28.76 24.7141 29.6659 26.3565C29.9115 26.8013 30.157 27.246 30.1993 27.9047C28.8955 27.477 27.6424 27.0408 26.3808 26.6644C20.0731 24.7655 13.7654 22.8836 7.45766 20.9847C4.6213 20.1293 4.84991 20.2576 4.74831 17.4434C4.73137 17.0328 4.71444 16.6222 4.69751 16.2202C4.71444 15.5359 4.73984 14.8516 4.75677 14.1673C4.8753 13.483 4.99384 12.7987 5.11237 12.1144C5.21397 11.2334 5.77278 10.8827 6.56865 10.6774C7.6778 10.3951 8.75307 9.99305 9.84528 9.64234C12.2498 9.00081 14.6205 8.24809 16.9574 7.39271C19.4212 6.72552 21.8511 5.93856 24.2726 5.10884V5.10028Z" fill="#1E75BC"/>
<path d="M6.59155 24.4119C8.84371 24.8652 11.0197 25.6265 13.2126 26.2766C18.3011 27.7821 23.4319 29.1421 28.4019 31.0068C30.019 31.6142 31.416 31.5714 32.7623 30.468C33.3126 31.9392 32.7623 33.2736 31.4584 33.419C30.6625 33.5131 29.8582 33.5131 29.0538 33.2565C25.2861 32.0932 21.5015 30.9812 17.7253 29.835C14.9821 29.0053 12.1711 28.3894 9.52105 27.2688C8.20024 26.7128 6.97256 25.9772 6.59155 24.4033V24.4119Z" fill="#A4A6AC" fill-opacity="0.2"/>
<path d="M33.6098 29.1064C35.0237 30.9625 35.0068 33.0497 33.3981 34.3755C32.2382 35.3335 30.8835 35.1796 29.5627 34.7775C25.8881 33.657 22.2474 32.4424 18.5559 31.3902C15.5756 30.5434 12.5615 29.8078 9.64891 28.7386C7.8455 28.0799 6.20295 27.1133 5.36474 25.1716C5.18694 24.7696 5.19541 24.3847 5.15308 23.9912C5.66108 24.034 6.16062 24.0938 6.59242 24.4103C6.97342 25.9842 8.20111 26.7199 9.52192 27.2759C12.172 28.3879 14.983 29.0037 17.7262 29.842C21.5024 30.9882 25.287 32.1002 29.0547 33.2635C29.859 33.5116 30.6718 33.5116 31.4592 33.426C32.7546 33.2721 33.3135 31.9462 32.7631 30.475C33.0425 30.0216 33.3219 29.5683 33.6098 29.1149V29.1064Z" fill="#B3B5B9" fill-opacity="0.2"/>
<path d="M9.84259 9.63331C8.75038 9.98401 7.67511 10.3775 6.56597 10.6683C5.77009 10.8736 5.21129 11.2243 5.10969 12.1053C4.74562 12.2679 4.38155 12.4389 4.00901 12.5843C3.1454 12.9179 2.50193 13.7391 1.49438 13.7562C1.58752 13.2088 1.34198 12.6186 1.70605 12.1053C1.90079 12.0455 2.104 12.0112 2.27334 11.9172C5.40603 10.1037 8.54719 8.30747 11.6376 6.42563C12.2218 6.06637 13.1531 6.0407 13.3055 5.09978C15.3883 4.18452 17.5812 3.59432 19.7826 3.04688C20.0874 3.31204 19.8672 3.4318 19.6471 3.56011C17.4373 4.84318 15.1936 6.09204 13.0261 7.44354C11.9339 8.11929 10.5961 8.45286 9.84259 9.64184V9.63331Z" fill="white"/>
<path d="M9.8444 9.63416C10.5979 8.45374 11.9357 8.12013 13.0279 7.43583C15.2039 6.08433 17.4391 4.83547 19.6489 3.5524C19.869 3.42409 20.0892 3.30436 19.7844 3.03919C22.0788 2.02985 24.5003 1.42251 26.9134 0.806641C26.871 1.44818 26.2868 1.58504 25.8804 1.82454C23.1541 3.44121 20.4024 5.02366 17.6507 6.60611C17.329 6.78574 16.9395 6.89693 16.948 7.37595C14.6112 8.23133 12.2405 8.98406 9.83594 9.6256L9.8444 9.63416Z" fill="white"/>
<path d="M16.9631 7.38362C16.9631 6.90461 17.3526 6.79341 17.6659 6.61378C20.4091 5.02278 23.1608 3.44033 25.8956 1.83222C26.302 1.59271 26.8777 1.45585 26.9285 0.814315C28.7742 -0.100941 30.1459 -0.246355 31.1111 0.386625C31.0687 0.788654 30.747 0.916959 30.4591 1.07948C28.6218 2.14015 26.7846 3.21792 24.9473 4.27859C24.6171 4.46677 24.3123 4.67207 24.2784 5.10831C21.8569 5.93803 19.4354 6.73354 16.9631 7.39218V7.38362Z" fill="white"/>
<path d="M13.316 5.09277C13.1551 6.03369 12.2322 6.05934 11.648 6.4186C8.55768 8.30044 5.41652 10.0967 2.28382 11.9101C2.11449 12.0128 1.90282 12.0385 1.71655 12.0983C1.95362 9.33546 3.03736 8.0866 5.61125 7.35952C7.87187 6.72654 10.1071 5.99092 12.3508 5.30662C12.6725 5.21253 13.0027 5.1612 13.3245 5.09277H13.316Z" fill="white"/>
<path d="M29.1299 18.0708C28.1816 16.3515 28.207 14.5809 29.0622 12.8787C29.8073 11.4075 30.7301 10.0303 31.5768 8.61035C32.542 8.96106 33.0077 9.75657 32.7452 10.7317C32.5081 11.6127 32.1864 12.4767 31.7123 13.2636C30.9079 14.598 30.2137 15.9837 29.6549 17.4379C29.5533 17.703 29.5448 18.0709 29.1215 18.0794L29.1299 18.0708Z" fill="#A4A6AC" fill-opacity="0.2"/>
<path d="M29.1313 18.0672C29.5462 18.0672 29.5547 17.6994 29.6648 17.4257C30.232 15.9715 30.9178 14.5858 31.7222 13.2514C32.1963 12.4645 32.5181 11.6091 32.7551 10.7195C33.0176 9.74438 32.5435 8.94889 31.5867 8.59819C31.756 8.0593 32.0778 7.60593 32.408 7.16113C33.7288 7.43485 34.6686 8.92323 34.3977 10.3004C34.1691 11.4894 33.5679 12.5158 33.0007 13.5423C31.8492 15.6551 30.8416 17.8106 30.359 20.1886C29.7325 19.6069 29.4192 18.8371 29.1398 18.0501L29.1313 18.0672Z" fill="#B3B5B9" fill-opacity="0.2"/>
<path d="M1.30981 17.6472C1.30981 17.0313 1.30981 16.4154 1.30981 15.791C1.69082 15.7739 1.96175 15.5087 2.28348 15.3548C3.09629 14.9442 3.7567 14.2 4.74731 14.1572C4.73038 14.8415 4.70497 15.5258 4.68804 16.2101C3.92603 16.2957 3.33337 16.749 2.69836 17.1254C2.27502 17.382 1.85169 17.6899 1.30981 17.6472Z" fill="white"/>
<path d="M4.75577 14.1574C3.76516 14.2002 3.11322 14.9444 2.29195 15.3549C1.97021 15.5175 1.69928 15.7741 1.31828 15.7912C1.31828 15.6543 1.31828 15.5175 1.30981 15.3891C1.35215 14.8417 1.20821 14.2772 1.50455 13.7554C2.51209 13.7383 3.15556 12.9171 4.01917 12.5835C4.39171 12.4381 4.74731 12.267 5.11985 12.1045C5.00131 12.7888 4.88277 13.4731 4.76423 14.1574H4.75577Z" fill="white"/>
<path d="M55.04 26V9.416H61.712C65.144 9.416 67.472 11.336 67.472 14.456C67.472 17.936 64.88 19.592 61.616 19.592H58.16V26H55.04ZM58.16 11.936V17.096H61.28C63.152 17.096 64.304 16.28 64.304 14.504C64.304 12.704 63.032 11.936 61.352 11.936H58.16ZM69.8658 26V13.664H72.8658V26H69.8658ZM69.8658 11.384V8.456H72.8658V11.384H69.8658ZM74.8271 15.968V13.664H76.8191V10.232H79.7951V13.664H82.3151V15.968H79.7951V22.424C79.7951 23.456 80.0831 23.912 81.1391 23.912C81.3551 23.912 81.7151 23.912 82.0031 23.84V25.952C81.3791 26.168 80.5151 26.168 79.8671 26.168C77.6111 26.168 76.8191 24.992 76.8191 22.88V15.968H74.8271ZM91.7199 22.088H94.6479C94.1919 24.176 92.7519 26.288 89.2479 26.288C85.5759 26.288 83.5599 23.72 83.5599 19.928C83.5599 16.328 85.6959 13.376 89.4159 13.376C93.3759 13.376 94.5519 16.232 94.6479 17.672H91.7199C91.4799 16.592 90.8559 15.752 89.3679 15.752C87.5919 15.752 86.5839 17.288 86.5839 19.832C86.5839 22.52 87.6159 23.936 89.3199 23.936C90.6159 23.936 91.3359 23.216 91.7199 22.088ZM96.8893 8.456H99.8893V15.248C100.465 14.36 101.497 13.376 103.513 13.376C105.721 13.376 107.665 14.648 107.665 18.104V26H104.689V18.56C104.689 16.808 104.017 15.848 102.457 15.848C100.465 15.848 99.8893 17.264 99.8893 19.4V26H96.8893V8.456ZM117.243 26V9.416H123.915C127.347 9.416 129.675 11.336 129.675 14.456C129.675 17.936 127.083 19.592 123.819 19.592H120.363V26H117.243ZM120.363 11.936V17.096H123.483C125.355 17.096 126.507 16.28 126.507 14.504C126.507 12.704 125.235 11.936 123.555 11.936H120.363ZM142.184 20.456H133.88C133.88 22.328 134.816 23.936 136.64 23.936C138.248 23.936 138.728 23.216 139.064 22.4H142.064C141.608 23.936 140.264 26.288 136.568 26.288C132.56 26.288 130.856 23.216 130.856 20C130.856 16.208 132.8 13.376 136.688 13.376C140.84 13.376 142.232 16.496 142.232 19.424C142.232 19.832 142.232 20.12 142.184 20.456ZM133.952 18.56H139.232C139.208 16.928 138.488 15.584 136.688 15.584C134.864 15.584 134.096 16.832 133.952 18.56ZM144.725 26V17.024C144.725 15.632 144.725 14.576 144.701 13.664H147.629C147.677 13.976 147.725 15.104 147.725 15.968C148.301 14.456 149.669 13.424 151.733 13.376V16.256C149.237 16.256 147.725 17.144 147.725 20.432V26H144.725ZM157.884 26H154.884V15.968H153.036V13.664H154.884V12.464C154.884 10.016 156.036 8.216 158.724 8.216C159.252 8.216 159.924 8.264 160.236 8.36V10.76C159.996 10.712 159.684 10.688 159.372 10.688C158.292 10.688 157.884 11.192 157.884 12.68V13.664H160.14V15.968H157.884V26ZM172.348 20.456H164.044C164.044 22.328 164.98 23.936 166.804 23.936C168.412 23.936 168.892 23.216 169.228 22.4H172.228C171.772 23.936 170.428 26.288 166.732 26.288C162.724 26.288 161.02 23.216 161.02 20C161.02 16.208 162.964 13.376 166.852 13.376C171.004 13.376 172.396 16.496 172.396 19.424C172.396 19.832 172.396 20.12 172.348 20.456ZM164.116 18.56H169.396C169.372 16.928 168.652 15.584 166.852 15.584C165.028 15.584 164.26 16.832 164.116 18.56ZM182.47 22.088H185.398C184.942 24.176 183.502 26.288 179.998 26.288C176.326 26.288 174.31 23.72 174.31 19.928C174.31 16.328 176.446 13.376 180.166 13.376C184.126 13.376 185.302 16.232 185.398 17.672H182.47C182.23 16.592 181.606 15.752 180.118 15.752C178.342 15.752 177.334 17.288 177.334 19.832C177.334 22.52 178.366 23.936 180.07 23.936C181.366 23.936 182.086 23.216 182.47 22.088ZM186.554 15.968V13.664H188.546V10.232H191.522V13.664H194.042V15.968H191.522V22.424C191.522 23.456 191.81 23.912 192.866 23.912C193.082 23.912 193.442 23.912 193.73 23.84V25.952C193.106 26.168 192.242 26.168 191.594 26.168C189.338 26.168 188.546 24.992 188.546 22.88V15.968H186.554Z" fill="white"/>
</svg>
