<svg width="116" height="104" viewBox="0 0 116 104" fill="none" xmlns="http://www.w3.org/2000/svg">
<path d="M31.4777 43.502L8.7878 52.2846C6.72761 53.0821 5.70395 55.3986 6.50139 57.4588L14.4428 77.9755C15.2403 80.0357 17.5568 81.0593 19.617 80.2619L42.3069 71.4793C44.3671 70.6818 45.3908 68.3653 44.5933 66.3051L36.6519 45.7884C35.8545 43.7282 33.5379 42.7045 31.4777 43.502Z" fill="white" stroke="white" stroke-width="6.66667" stroke-linecap="round" stroke-linejoin="round"/>
<path d="M35.2067 42.0582L59.3947 19.0411C62.4502 16.1335 67.4728 17.2029 69.0789 21.1029L84.6555 58.9282C86.2 62.6786 83.6555 66.8491 79.6139 67.1915L46.036 70.0355M85.7422 20.5L93.2422 8.5M91.7422 34.5L106.742 29M97.3998 48L113.242 50.154" stroke="white" stroke-width="4" stroke-linecap="round" stroke-linejoin="round"/>
</svg>
